<?xml version="1.0" encoding="utf-8" standalone="no"?>
<!DOCTYPE svg PUBLIC "-//W3C//DTD SVG 1.1//EN"
  "http://www.w3.org/Graphics/SVG/1.1/DTD/svg11.dtd">
<!-- Created with matplotlib (http://matplotlib.org/) -->
<svg height="288pt" version="1.1" viewBox="0 0 432 288" width="432pt" xmlns="http://www.w3.org/2000/svg" xmlns:xlink="http://www.w3.org/1999/xlink">
 <defs>
  <style type="text/css">
*{stroke-linecap:butt;stroke-linejoin:round;}
  </style>
 </defs>
 <g id="figure_1">
  <g id="patch_1">
   <path d="M 0 288 
L 432 288 
L 432 0 
L 0 0 
z
" style="fill:#ffffff;"/>
  </g>
  <g id="axes_1">
   <g id="patch_2">
    <path d="M 54 252 
L 388.8 252 
L 388.8 34.56 
L 54 34.56 
z
" style="fill:#ffffff;"/>
   </g>
   <g id="matplotlib.axis_1">
    <g id="xtick_1">
     <g id="line2d_1">
      <defs>
       <path d="M 0 0 
L 0 3.5 
" id="mb7c8774caa" style="stroke:#000000;stroke-width:0.8;"/>
      </defs>
      <g>
       <use style="stroke:#000000;stroke-width:0.8;" x="63.298299" xlink:href="#mb7c8774caa" y="252"/>
      </g>
     </g>
     <g id="text_1">
      <!-- 2008 -->
      <defs>
       <path d="M 19.1875 8.296875 
L 53.609375 8.296875 
L 53.609375 0 
L 7.328125 0 
L 7.328125 8.296875 
Q 12.9375 14.109375 22.625 23.890625 
Q 32.328125 33.6875 34.8125 36.53125 
Q 39.546875 41.84375 41.421875 45.53125 
Q 43.3125 49.21875 43.3125 52.78125 
Q 43.3125 58.59375 39.234375 62.25 
Q 35.15625 65.921875 28.609375 65.921875 
Q 23.96875 65.921875 18.8125 64.3125 
Q 13.671875 62.703125 7.8125 59.421875 
L 7.8125 69.390625 
Q 13.765625 71.78125 18.9375 73 
Q 24.125 74.21875 28.421875 74.21875 
Q 39.75 74.21875 46.484375 68.546875 
Q 53.21875 62.890625 53.21875 53.421875 
Q 53.21875 48.921875 51.53125 44.890625 
Q 49.859375 40.875 45.40625 35.40625 
Q 44.1875 33.984375 37.640625 27.21875 
Q 31.109375 20.453125 19.1875 8.296875 
z
" id="DejaVuSans-32"/>
       <path d="M 31.78125 66.40625 
Q 24.171875 66.40625 20.328125 58.90625 
Q 16.5 51.421875 16.5 36.375 
Q 16.5 21.390625 20.328125 13.890625 
Q 24.171875 6.390625 31.78125 6.390625 
Q 39.453125 6.390625 43.28125 13.890625 
Q 47.125 21.390625 47.125 36.375 
Q 47.125 51.421875 43.28125 58.90625 
Q 39.453125 66.40625 31.78125 66.40625 
z
M 31.78125 74.21875 
Q 44.046875 74.21875 50.515625 64.515625 
Q 56.984375 54.828125 56.984375 36.375 
Q 56.984375 17.96875 50.515625 8.265625 
Q 44.046875 -1.421875 31.78125 -1.421875 
Q 19.53125 -1.421875 13.0625 8.265625 
Q 6.59375 17.96875 6.59375 36.375 
Q 6.59375 54.828125 13.0625 64.515625 
Q 19.53125 74.21875 31.78125 74.21875 
z
" id="DejaVuSans-30"/>
       <path d="M 31.78125 34.625 
Q 24.75 34.625 20.71875 30.859375 
Q 16.703125 27.09375 16.703125 20.515625 
Q 16.703125 13.921875 20.71875 10.15625 
Q 24.75 6.390625 31.78125 6.390625 
Q 38.8125 6.390625 42.859375 10.171875 
Q 46.921875 13.96875 46.921875 20.515625 
Q 46.921875 27.09375 42.890625 30.859375 
Q 38.875 34.625 31.78125 34.625 
z
M 21.921875 38.8125 
Q 15.578125 40.375 12.03125 44.71875 
Q 8.5 49.078125 8.5 55.328125 
Q 8.5 64.0625 14.71875 69.140625 
Q 20.953125 74.21875 31.78125 74.21875 
Q 42.671875 74.21875 48.875 69.140625 
Q 55.078125 64.0625 55.078125 55.328125 
Q 55.078125 49.078125 51.53125 44.71875 
Q 48 40.375 41.703125 38.8125 
Q 48.828125 37.15625 52.796875 32.3125 
Q 56.78125 27.484375 56.78125 20.515625 
Q 56.78125 9.90625 50.3125 4.234375 
Q 43.84375 -1.421875 31.78125 -1.421875 
Q 19.734375 -1.421875 13.25 4.234375 
Q 6.78125 9.90625 6.78125 20.515625 
Q 6.78125 27.484375 10.78125 32.3125 
Q 14.796875 37.15625 21.921875 38.8125 
z
M 18.3125 54.390625 
Q 18.3125 48.734375 21.84375 45.5625 
Q 25.390625 42.390625 31.78125 42.390625 
Q 38.140625 42.390625 41.71875 45.5625 
Q 45.3125 48.734375 45.3125 54.390625 
Q 45.3125 60.0625 41.71875 63.234375 
Q 38.140625 66.40625 31.78125 66.40625 
Q 25.390625 66.40625 21.84375 63.234375 
Q 18.3125 60.0625 18.3125 54.390625 
z
" id="DejaVuSans-38"/>
      </defs>
      <g transform="translate(50.573299 266.598437)scale(0.1 -0.1)">
       <use xlink:href="#DejaVuSans-32"/>
       <use x="63.623047" xlink:href="#DejaVuSans-30"/>
       <use x="127.246094" xlink:href="#DejaVuSans-30"/>
       <use x="190.869141" xlink:href="#DejaVuSans-38"/>
      </g>
     </g>
    </g>
    <g id="xtick_2">
     <g id="line2d_2">
      <g>
       <use style="stroke:#000000;stroke-width:0.8;" x="100.654802" xlink:href="#mb7c8774caa" y="252"/>
      </g>
     </g>
     <g id="text_2">
      <!-- 2009 -->
      <defs>
       <path d="M 10.984375 1.515625 
L 10.984375 10.5 
Q 14.703125 8.734375 18.5 7.8125 
Q 22.3125 6.890625 25.984375 6.890625 
Q 35.75 6.890625 40.890625 13.453125 
Q 46.046875 20.015625 46.78125 33.40625 
Q 43.953125 29.203125 39.59375 26.953125 
Q 35.25 24.703125 29.984375 24.703125 
Q 19.046875 24.703125 12.671875 31.3125 
Q 6.296875 37.9375 6.296875 49.421875 
Q 6.296875 60.640625 12.9375 67.421875 
Q 19.578125 74.21875 30.609375 74.21875 
Q 43.265625 74.21875 49.921875 64.515625 
Q 56.59375 54.828125 56.59375 36.375 
Q 56.59375 19.140625 48.40625 8.859375 
Q 40.234375 -1.421875 26.421875 -1.421875 
Q 22.703125 -1.421875 18.890625 -0.6875 
Q 15.09375 0.046875 10.984375 1.515625 
z
M 30.609375 32.421875 
Q 37.25 32.421875 41.125 36.953125 
Q 45.015625 41.5 45.015625 49.421875 
Q 45.015625 57.28125 41.125 61.84375 
Q 37.25 66.40625 30.609375 66.40625 
Q 23.96875 66.40625 20.09375 61.84375 
Q 16.21875 57.28125 16.21875 49.421875 
Q 16.21875 41.5 20.09375 36.953125 
Q 23.96875 32.421875 30.609375 32.421875 
z
" id="DejaVuSans-39"/>
      </defs>
      <g transform="translate(87.929802 266.598437)scale(0.1 -0.1)">
       <use xlink:href="#DejaVuSans-32"/>
       <use x="63.623047" xlink:href="#DejaVuSans-30"/>
       <use x="127.246094" xlink:href="#DejaVuSans-30"/>
       <use x="190.869141" xlink:href="#DejaVuSans-39"/>
      </g>
     </g>
    </g>
    <g id="xtick_3">
     <g id="line2d_3">
      <g>
       <use style="stroke:#000000;stroke-width:0.8;" x="137.909237" xlink:href="#mb7c8774caa" y="252"/>
      </g>
     </g>
     <g id="text_3">
      <!-- 2010 -->
      <defs>
       <path d="M 12.40625 8.296875 
L 28.515625 8.296875 
L 28.515625 63.921875 
L 10.984375 60.40625 
L 10.984375 69.390625 
L 28.421875 72.90625 
L 38.28125 72.90625 
L 38.28125 8.296875 
L 54.390625 8.296875 
L 54.390625 0 
L 12.40625 0 
z
" id="DejaVuSans-31"/>
      </defs>
      <g transform="translate(125.184237 266.598437)scale(0.1 -0.1)">
       <use xlink:href="#DejaVuSans-32"/>
       <use x="63.623047" xlink:href="#DejaVuSans-30"/>
       <use x="127.246094" xlink:href="#DejaVuSans-31"/>
       <use x="190.869141" xlink:href="#DejaVuSans-30"/>
      </g>
     </g>
    </g>
    <g id="xtick_4">
     <g id="line2d_4">
      <g>
       <use style="stroke:#000000;stroke-width:0.8;" x="175.163673" xlink:href="#mb7c8774caa" y="252"/>
      </g>
     </g>
     <g id="text_4">
      <!-- 2011 -->
      <g transform="translate(162.438673 266.598437)scale(0.1 -0.1)">
       <use xlink:href="#DejaVuSans-32"/>
       <use x="63.623047" xlink:href="#DejaVuSans-30"/>
       <use x="127.246094" xlink:href="#DejaVuSans-31"/>
       <use x="190.869141" xlink:href="#DejaVuSans-31"/>
      </g>
     </g>
    </g>
    <g id="xtick_5">
     <g id="line2d_5">
      <g>
       <use style="stroke:#000000;stroke-width:0.8;" x="212.418109" xlink:href="#mb7c8774caa" y="252"/>
      </g>
     </g>
     <g id="text_5">
      <!-- 2012 -->
      <g transform="translate(199.693109 266.598437)scale(0.1 -0.1)">
       <use xlink:href="#DejaVuSans-32"/>
       <use x="63.623047" xlink:href="#DejaVuSans-30"/>
       <use x="127.246094" xlink:href="#DejaVuSans-31"/>
       <use x="190.869141" xlink:href="#DejaVuSans-32"/>
      </g>
     </g>
    </g>
    <g id="xtick_6">
     <g id="line2d_6">
      <g>
       <use style="stroke:#000000;stroke-width:0.8;" x="249.774611" xlink:href="#mb7c8774caa" y="252"/>
      </g>
     </g>
     <g id="text_6">
      <!-- 2013 -->
      <defs>
       <path d="M 40.578125 39.3125 
Q 47.65625 37.796875 51.625 33 
Q 55.609375 28.21875 55.609375 21.1875 
Q 55.609375 10.40625 48.1875 4.484375 
Q 40.765625 -1.421875 27.09375 -1.421875 
Q 22.515625 -1.421875 17.65625 -0.515625 
Q 12.796875 0.390625 7.625 2.203125 
L 7.625 11.71875 
Q 11.71875 9.328125 16.59375 8.109375 
Q 21.484375 6.890625 26.8125 6.890625 
Q 36.078125 6.890625 40.9375 10.546875 
Q 45.796875 14.203125 45.796875 21.1875 
Q 45.796875 27.640625 41.28125 31.265625 
Q 36.765625 34.90625 28.71875 34.90625 
L 20.21875 34.90625 
L 20.21875 43.015625 
L 29.109375 43.015625 
Q 36.375 43.015625 40.234375 45.921875 
Q 44.09375 48.828125 44.09375 54.296875 
Q 44.09375 59.90625 40.109375 62.90625 
Q 36.140625 65.921875 28.71875 65.921875 
Q 24.65625 65.921875 20.015625 65.03125 
Q 15.375 64.15625 9.8125 62.3125 
L 9.8125 71.09375 
Q 15.4375 72.65625 20.34375 73.4375 
Q 25.25 74.21875 29.59375 74.21875 
Q 40.828125 74.21875 47.359375 69.109375 
Q 53.90625 64.015625 53.90625 55.328125 
Q 53.90625 49.265625 50.4375 45.09375 
Q 46.96875 40.921875 40.578125 39.3125 
z
" id="DejaVuSans-33"/>
      </defs>
      <g transform="translate(237.049611 266.598437)scale(0.1 -0.1)">
       <use xlink:href="#DejaVuSans-32"/>
       <use x="63.623047" xlink:href="#DejaVuSans-30"/>
       <use x="127.246094" xlink:href="#DejaVuSans-31"/>
       <use x="190.869141" xlink:href="#DejaVuSans-33"/>
      </g>
     </g>
    </g>
    <g id="xtick_7">
     <g id="line2d_7">
      <g>
       <use style="stroke:#000000;stroke-width:0.8;" x="287.029047" xlink:href="#mb7c8774caa" y="252"/>
      </g>
     </g>
     <g id="text_7">
      <!-- 2014 -->
      <defs>
       <path d="M 37.796875 64.3125 
L 12.890625 25.390625 
L 37.796875 25.390625 
z
M 35.203125 72.90625 
L 47.609375 72.90625 
L 47.609375 25.390625 
L 58.015625 25.390625 
L 58.015625 17.1875 
L 47.609375 17.1875 
L 47.609375 0 
L 37.796875 0 
L 37.796875 17.1875 
L 4.890625 17.1875 
L 4.890625 26.703125 
z
" id="DejaVuSans-34"/>
      </defs>
      <g transform="translate(274.304047 266.598437)scale(0.1 -0.1)">
       <use xlink:href="#DejaVuSans-32"/>
       <use x="63.623047" xlink:href="#DejaVuSans-30"/>
       <use x="127.246094" xlink:href="#DejaVuSans-31"/>
       <use x="190.869141" xlink:href="#DejaVuSans-34"/>
      </g>
     </g>
    </g>
    <g id="xtick_8">
     <g id="line2d_8">
      <g>
       <use style="stroke:#000000;stroke-width:0.8;" x="324.283483" xlink:href="#mb7c8774caa" y="252"/>
      </g>
     </g>
     <g id="text_8">
      <!-- 2015 -->
      <defs>
       <path d="M 10.796875 72.90625 
L 49.515625 72.90625 
L 49.515625 64.59375 
L 19.828125 64.59375 
L 19.828125 46.734375 
Q 21.96875 47.46875 24.109375 47.828125 
Q 26.265625 48.1875 28.421875 48.1875 
Q 40.625 48.1875 47.75 41.5 
Q 54.890625 34.8125 54.890625 23.390625 
Q 54.890625 11.625 47.5625 5.09375 
Q 40.234375 -1.421875 26.90625 -1.421875 
Q 22.3125 -1.421875 17.546875 -0.640625 
Q 12.796875 0.140625 7.71875 1.703125 
L 7.71875 11.625 
Q 12.109375 9.234375 16.796875 8.0625 
Q 21.484375 6.890625 26.703125 6.890625 
Q 35.15625 6.890625 40.078125 11.328125 
Q 45.015625 15.765625 45.015625 23.390625 
Q 45.015625 31 40.078125 35.4375 
Q 35.15625 39.890625 26.703125 39.890625 
Q 22.75 39.890625 18.8125 39.015625 
Q 14.890625 38.140625 10.796875 36.28125 
z
" id="DejaVuSans-35"/>
      </defs>
      <g transform="translate(311.558483 266.598437)scale(0.1 -0.1)">
       <use xlink:href="#DejaVuSans-32"/>
       <use x="63.623047" xlink:href="#DejaVuSans-30"/>
       <use x="127.246094" xlink:href="#DejaVuSans-31"/>
       <use x="190.869141" xlink:href="#DejaVuSans-35"/>
      </g>
     </g>
    </g>
    <g id="xtick_9">
     <g id="line2d_9">
      <g>
       <use style="stroke:#000000;stroke-width:0.8;" x="361.537918" xlink:href="#mb7c8774caa" y="252"/>
      </g>
     </g>
     <g id="text_9">
      <!-- 2016 -->
      <defs>
       <path d="M 33.015625 40.375 
Q 26.375 40.375 22.484375 35.828125 
Q 18.609375 31.296875 18.609375 23.390625 
Q 18.609375 15.53125 22.484375 10.953125 
Q 26.375 6.390625 33.015625 6.390625 
Q 39.65625 6.390625 43.53125 10.953125 
Q 47.40625 15.53125 47.40625 23.390625 
Q 47.40625 31.296875 43.53125 35.828125 
Q 39.65625 40.375 33.015625 40.375 
z
M 52.59375 71.296875 
L 52.59375 62.3125 
Q 48.875 64.0625 45.09375 64.984375 
Q 41.3125 65.921875 37.59375 65.921875 
Q 27.828125 65.921875 22.671875 59.328125 
Q 17.53125 52.734375 16.796875 39.40625 
Q 19.671875 43.65625 24.015625 45.921875 
Q 28.375 48.1875 33.59375 48.1875 
Q 44.578125 48.1875 50.953125 41.515625 
Q 57.328125 34.859375 57.328125 23.390625 
Q 57.328125 12.15625 50.6875 5.359375 
Q 44.046875 -1.421875 33.015625 -1.421875 
Q 20.359375 -1.421875 13.671875 8.265625 
Q 6.984375 17.96875 6.984375 36.375 
Q 6.984375 53.65625 15.1875 63.9375 
Q 23.390625 74.21875 37.203125 74.21875 
Q 40.921875 74.21875 44.703125 73.484375 
Q 48.484375 72.75 52.59375 71.296875 
z
" id="DejaVuSans-36"/>
      </defs>
      <g transform="translate(348.812918 266.598437)scale(0.1 -0.1)">
       <use xlink:href="#DejaVuSans-32"/>
       <use x="63.623047" xlink:href="#DejaVuSans-30"/>
       <use x="127.246094" xlink:href="#DejaVuSans-31"/>
       <use x="190.869141" xlink:href="#DejaVuSans-36"/>
      </g>
     </g>
    </g>
   </g>
   <g id="matplotlib.axis_2">
    <g id="ytick_1">
     <g id="line2d_10">
      <defs>
       <path d="M 0 0 
L -3.5 0 
" id="m4087590e3d" style="stroke:#000000;stroke-width:0.8;"/>
      </defs>
      <g>
       <use style="stroke:#000000;stroke-width:0.8;" x="54" xlink:href="#m4087590e3d" y="246.34481"/>
      </g>
     </g>
     <g id="text_10">
      <!-- $\mathdefault{10^{-1}}$ -->
      <defs>
       <path d="M 10.59375 35.5 
L 73.1875 35.5 
L 73.1875 27.203125 
L 10.59375 27.203125 
z
" id="DejaVuSans-2212"/>
      </defs>
      <g transform="translate(23.5 250.144029)scale(0.1 -0.1)">
       <use transform="translate(0 0.684375)" xlink:href="#DejaVuSans-31"/>
       <use transform="translate(63.623047 0.684375)" xlink:href="#DejaVuSans-30"/>
       <use transform="translate(128.203125 38.965625)scale(0.7)" xlink:href="#DejaVuSans-2212"/>
       <use transform="translate(186.855469 38.965625)scale(0.7)" xlink:href="#DejaVuSans-31"/>
      </g>
     </g>
    </g>
    <g id="ytick_2">
     <g id="line2d_11">
      <g>
       <use style="stroke:#000000;stroke-width:0.8;" x="54" xlink:href="#m4087590e3d" y="202.712097"/>
      </g>
     </g>
     <g id="text_11">
      <!-- $\mathdefault{10^{0}}$ -->
      <g transform="translate(29.4 206.511316)scale(0.1 -0.1)">
       <use transform="translate(0 0.765625)" xlink:href="#DejaVuSans-31"/>
       <use transform="translate(63.623047 0.765625)" xlink:href="#DejaVuSans-30"/>
       <use transform="translate(128.203125 39.046875)scale(0.7)" xlink:href="#DejaVuSans-30"/>
      </g>
     </g>
    </g>
    <g id="ytick_3">
     <g id="line2d_12">
      <g>
       <use style="stroke:#000000;stroke-width:0.8;" x="54" xlink:href="#m4087590e3d" y="159.079384"/>
      </g>
     </g>
     <g id="text_12">
      <!-- $\mathdefault{10^{1}}$ -->
      <g transform="translate(29.4 162.878603)scale(0.1 -0.1)">
       <use transform="translate(0 0.684375)" xlink:href="#DejaVuSans-31"/>
       <use transform="translate(63.623047 0.684375)" xlink:href="#DejaVuSans-30"/>
       <use transform="translate(128.203125 38.965625)scale(0.7)" xlink:href="#DejaVuSans-31"/>
      </g>
     </g>
    </g>
    <g id="ytick_4">
     <g id="line2d_13">
      <g>
       <use style="stroke:#000000;stroke-width:0.8;" x="54" xlink:href="#m4087590e3d" y="115.446671"/>
      </g>
     </g>
     <g id="text_13">
      <!-- $\mathdefault{10^{2}}$ -->
      <g transform="translate(29.4 119.24589)scale(0.1 -0.1)">
       <use transform="translate(0 0.765625)" xlink:href="#DejaVuSans-31"/>
       <use transform="translate(63.623047 0.765625)" xlink:href="#DejaVuSans-30"/>
       <use transform="translate(128.203125 39.046875)scale(0.7)" xlink:href="#DejaVuSans-32"/>
      </g>
     </g>
    </g>
    <g id="ytick_5">
     <g id="line2d_14">
      <g>
       <use style="stroke:#000000;stroke-width:0.8;" x="54" xlink:href="#m4087590e3d" y="71.813959"/>
      </g>
     </g>
     <g id="text_14">
      <!-- $\mathdefault{10^{3}}$ -->
      <g transform="translate(29.4 75.613177)scale(0.1 -0.1)">
       <use transform="translate(0 0.765625)" xlink:href="#DejaVuSans-31"/>
       <use transform="translate(63.623047 0.765625)" xlink:href="#DejaVuSans-30"/>
       <use transform="translate(128.203125 39.046875)scale(0.7)" xlink:href="#DejaVuSans-33"/>
      </g>
     </g>
    </g>
    <g id="ytick_6">
     <g id="line2d_15">
      <defs>
       <path d="M 0 0 
L -2 0 
" id="m292f14bbf4" style="stroke:#000000;stroke-width:0.6;"/>
      </defs>
      <g>
       <use style="stroke:#000000;stroke-width:0.6;" x="54" xlink:href="#m292f14bbf4" y="250.573257"/>
      </g>
     </g>
    </g>
    <g id="ytick_7">
     <g id="line2d_16">
      <g>
       <use style="stroke:#000000;stroke-width:0.6;" x="54" xlink:href="#m292f14bbf4" y="248.341334"/>
      </g>
     </g>
    </g>
    <g id="ytick_8">
     <g id="line2d_17">
      <g>
       <use style="stroke:#000000;stroke-width:0.6;" x="54" xlink:href="#m292f14bbf4" y="233.210055"/>
      </g>
     </g>
    </g>
    <g id="ytick_9">
     <g id="line2d_18">
      <g>
       <use style="stroke:#000000;stroke-width:0.6;" x="54" xlink:href="#m292f14bbf4" y="225.526716"/>
      </g>
     </g>
    </g>
    <g id="ytick_10">
     <g id="line2d_19">
      <g>
       <use style="stroke:#000000;stroke-width:0.6;" x="54" xlink:href="#m292f14bbf4" y="220.0753"/>
      </g>
     </g>
    </g>
    <g id="ytick_11">
     <g id="line2d_20">
      <g>
       <use style="stroke:#000000;stroke-width:0.6;" x="54" xlink:href="#m292f14bbf4" y="215.846853"/>
      </g>
     </g>
    </g>
    <g id="ytick_12">
     <g id="line2d_21">
      <g>
       <use style="stroke:#000000;stroke-width:0.6;" x="54" xlink:href="#m292f14bbf4" y="212.39196"/>
      </g>
     </g>
    </g>
    <g id="ytick_13">
     <g id="line2d_22">
      <g>
       <use style="stroke:#000000;stroke-width:0.6;" x="54" xlink:href="#m292f14bbf4" y="209.47089"/>
      </g>
     </g>
    </g>
    <g id="ytick_14">
     <g id="line2d_23">
      <g>
       <use style="stroke:#000000;stroke-width:0.6;" x="54" xlink:href="#m292f14bbf4" y="206.940544"/>
      </g>
     </g>
    </g>
    <g id="ytick_15">
     <g id="line2d_24">
      <g>
       <use style="stroke:#000000;stroke-width:0.6;" x="54" xlink:href="#m292f14bbf4" y="204.708621"/>
      </g>
     </g>
    </g>
    <g id="ytick_16">
     <g id="line2d_25">
      <g>
       <use style="stroke:#000000;stroke-width:0.6;" x="54" xlink:href="#m292f14bbf4" y="189.577342"/>
      </g>
     </g>
    </g>
    <g id="ytick_17">
     <g id="line2d_26">
      <g>
       <use style="stroke:#000000;stroke-width:0.6;" x="54" xlink:href="#m292f14bbf4" y="181.894003"/>
      </g>
     </g>
    </g>
    <g id="ytick_18">
     <g id="line2d_27">
      <g>
       <use style="stroke:#000000;stroke-width:0.6;" x="54" xlink:href="#m292f14bbf4" y="176.442587"/>
      </g>
     </g>
    </g>
    <g id="ytick_19">
     <g id="line2d_28">
      <g>
       <use style="stroke:#000000;stroke-width:0.6;" x="54" xlink:href="#m292f14bbf4" y="172.21414"/>
      </g>
     </g>
    </g>
    <g id="ytick_20">
     <g id="line2d_29">
      <g>
       <use style="stroke:#000000;stroke-width:0.6;" x="54" xlink:href="#m292f14bbf4" y="168.759247"/>
      </g>
     </g>
    </g>
    <g id="ytick_21">
     <g id="line2d_30">
      <g>
       <use style="stroke:#000000;stroke-width:0.6;" x="54" xlink:href="#m292f14bbf4" y="165.838177"/>
      </g>
     </g>
    </g>
    <g id="ytick_22">
     <g id="line2d_31">
      <g>
       <use style="stroke:#000000;stroke-width:0.6;" x="54" xlink:href="#m292f14bbf4" y="163.307831"/>
      </g>
     </g>
    </g>
    <g id="ytick_23">
     <g id="line2d_32">
      <g>
       <use style="stroke:#000000;stroke-width:0.6;" x="54" xlink:href="#m292f14bbf4" y="161.075908"/>
      </g>
     </g>
    </g>
    <g id="ytick_24">
     <g id="line2d_33">
      <g>
       <use style="stroke:#000000;stroke-width:0.6;" x="54" xlink:href="#m292f14bbf4" y="145.944629"/>
      </g>
     </g>
    </g>
    <g id="ytick_25">
     <g id="line2d_34">
      <g>
       <use style="stroke:#000000;stroke-width:0.6;" x="54" xlink:href="#m292f14bbf4" y="138.26129"/>
      </g>
     </g>
    </g>
    <g id="ytick_26">
     <g id="line2d_35">
      <g>
       <use style="stroke:#000000;stroke-width:0.6;" x="54" xlink:href="#m292f14bbf4" y="132.809874"/>
      </g>
     </g>
    </g>
    <g id="ytick_27">
     <g id="line2d_36">
      <g>
       <use style="stroke:#000000;stroke-width:0.6;" x="54" xlink:href="#m292f14bbf4" y="128.581427"/>
      </g>
     </g>
    </g>
    <g id="ytick_28">
     <g id="line2d_37">
      <g>
       <use style="stroke:#000000;stroke-width:0.6;" x="54" xlink:href="#m292f14bbf4" y="125.126534"/>
      </g>
     </g>
    </g>
    <g id="ytick_29">
     <g id="line2d_38">
      <g>
       <use style="stroke:#000000;stroke-width:0.6;" x="54" xlink:href="#m292f14bbf4" y="122.205464"/>
      </g>
     </g>
    </g>
    <g id="ytick_30">
     <g id="line2d_39">
      <g>
       <use style="stroke:#000000;stroke-width:0.6;" x="54" xlink:href="#m292f14bbf4" y="119.675118"/>
      </g>
     </g>
    </g>
    <g id="ytick_31">
     <g id="line2d_40">
      <g>
       <use style="stroke:#000000;stroke-width:0.6;" x="54" xlink:href="#m292f14bbf4" y="117.443195"/>
      </g>
     </g>
    </g>
    <g id="ytick_32">
     <g id="line2d_41">
      <g>
       <use style="stroke:#000000;stroke-width:0.6;" x="54" xlink:href="#m292f14bbf4" y="102.311916"/>
      </g>
     </g>
    </g>
    <g id="ytick_33">
     <g id="line2d_42">
      <g>
       <use style="stroke:#000000;stroke-width:0.6;" x="54" xlink:href="#m292f14bbf4" y="94.628577"/>
      </g>
     </g>
    </g>
    <g id="ytick_34">
     <g id="line2d_43">
      <g>
       <use style="stroke:#000000;stroke-width:0.6;" x="54" xlink:href="#m292f14bbf4" y="89.177161"/>
      </g>
     </g>
    </g>
    <g id="ytick_35">
     <g id="line2d_44">
      <g>
       <use style="stroke:#000000;stroke-width:0.6;" x="54" xlink:href="#m292f14bbf4" y="84.948714"/>
      </g>
     </g>
    </g>
    <g id="ytick_36">
     <g id="line2d_45">
      <g>
       <use style="stroke:#000000;stroke-width:0.6;" x="54" xlink:href="#m292f14bbf4" y="81.493821"/>
      </g>
     </g>
    </g>
    <g id="ytick_37">
     <g id="line2d_46">
      <g>
       <use style="stroke:#000000;stroke-width:0.6;" x="54" xlink:href="#m292f14bbf4" y="78.572751"/>
      </g>
     </g>
    </g>
    <g id="ytick_38">
     <g id="line2d_47">
      <g>
       <use style="stroke:#000000;stroke-width:0.6;" x="54" xlink:href="#m292f14bbf4" y="76.042405"/>
      </g>
     </g>
    </g>
    <g id="ytick_39">
     <g id="line2d_48">
      <g>
       <use style="stroke:#000000;stroke-width:0.6;" x="54" xlink:href="#m292f14bbf4" y="73.810482"/>
      </g>
     </g>
    </g>
    <g id="ytick_40">
     <g id="line2d_49">
      <g>
       <use style="stroke:#000000;stroke-width:0.6;" x="54" xlink:href="#m292f14bbf4" y="58.679203"/>
      </g>
     </g>
    </g>
    <g id="ytick_41">
     <g id="line2d_50">
      <g>
       <use style="stroke:#000000;stroke-width:0.6;" x="54" xlink:href="#m292f14bbf4" y="50.995864"/>
      </g>
     </g>
    </g>
    <g id="ytick_42">
     <g id="line2d_51">
      <g>
       <use style="stroke:#000000;stroke-width:0.6;" x="54" xlink:href="#m292f14bbf4" y="45.544448"/>
      </g>
     </g>
    </g>
    <g id="ytick_43">
     <g id="line2d_52">
      <g>
       <use style="stroke:#000000;stroke-width:0.6;" x="54" xlink:href="#m292f14bbf4" y="41.316001"/>
      </g>
     </g>
    </g>
    <g id="ytick_44">
     <g id="line2d_53">
      <g>
       <use style="stroke:#000000;stroke-width:0.6;" x="54" xlink:href="#m292f14bbf4" y="37.861108"/>
      </g>
     </g>
    </g>
    <g id="ytick_45">
     <g id="line2d_54">
      <g>
       <use style="stroke:#000000;stroke-width:0.6;" x="54" xlink:href="#m292f14bbf4" y="34.940038"/>
      </g>
     </g>
    </g>
   </g>
   <g id="line2d_55">
    <path clip-path="url(#pfd2765a441)" d="M 69.218182 228.981608 
L 69.93265 242.116364 
L 72.076056 221.298269 
L 72.790525 228.981608 
L 73.504994 221.298269 
L 74.219462 215.846853 
L 76.362868 215.846853 
L 78.506274 211.618406 
L 79.220743 208.163513 
L 79.935211 215.846853 
L 80.64968 211.618406 
L 82.078617 215.846853 
L 83.507554 221.298269 
L 86.365429 215.846853 
L 87.079898 211.618406 
L 87.794366 211.618406 
L 88.508835 215.846853 
L 92.081178 215.846853 
L 94.224584 211.618406 
L 94.939052 215.846853 
L 97.796927 215.846853 
L 98.511396 211.618406 
L 99.225864 211.618406 
L 101.36927 208.163513 
L 102.798207 211.618406 
L 103.512676 211.618406 
L 104.227145 215.846853 
L 107.085019 215.846853 
L 107.799488 221.298269 
L 109.228425 228.981608 
L 113.515237 228.981608 
L 114.944174 242.116364 
L 115.658643 242.116364 
L 115.66018 289 
M 117.80128 289 
L 117.802049 242.116364 
L 118.516517 242.116364 
L 120.659923 228.981608 
L 122.08886 221.298269 
L 124.232266 221.298269 
L 124.946735 211.618406 
L 125.661204 166.527324 
L 126.375672 152.873373 
L 127.090141 150.622491 
L 127.804609 150.173076 
L 128.519078 150.173076 
L 129.233547 149.734073 
L 129.948015 149.58997 
L 130.662484 149.734073 
L 131.376953 158.154838 
L 132.091421 179.662079 
L 132.80589 193.511993 
L 133.520359 196.677576 
L 134.234827 198.483651 
L 134.949296 202.712097 
L 136.378233 202.712097 
L 137.80717 208.163513 
L 138.521639 208.163513 
L 139.950576 211.618406 
L 140.665045 211.618406 
L 141.379513 215.846853 
L 142.808451 200.480174 
L 144.237388 202.712097 
L 144.951857 198.483651 
L 146.380794 198.483651 
L 147.095262 193.511993 
L 147.809731 190.800311 
L 148.5242 193.511993 
L 149.238668 196.677576 
L 149.953137 192.107688 
L 150.667606 195.028758 
L 152.811012 195.028758 
L 153.52548 196.677576 
L 154.239949 202.712097 
L 154.954417 205.242443 
L 156.383355 208.163513 
L 157.097823 211.618406 
L 158.526761 228.981608 
L 159.955698 228.981608 
L 161.384635 221.298269 
L 162.099104 221.298269 
L 162.813572 228.981608 
L 163.528041 228.981608 
L 164.24251 242.116364 
L 164.956978 228.981608 
L 165.671447 221.298269 
L 169.958259 221.298269 
L 170.672727 228.981608 
L 171.387196 242.116364 
L 172.101665 221.298269 
L 176.388476 221.298269 
L 177.102945 215.846853 
L 177.817414 211.618406 
L 178.531882 211.618406 
L 179.246351 221.298269 
L 182.104225 221.298269 
L 182.818694 228.981608 
L 183.533163 242.116364 
L 184.247631 242.116364 
L 184.9621 215.846853 
L 186.391037 215.846853 
L 187.105506 208.163513 
L 187.819974 198.483651 
L 188.534443 198.483651 
L 189.96338 195.028758 
L 190.677849 200.480174 
L 192.106786 200.480174 
L 192.821255 205.242443 
L 193.535723 215.846853 
L 194.250192 215.846853 
L 194.964661 221.298269 
L 195.679129 228.981608 
L 196.393598 228.981608 
L 197.108067 242.116364 
L 197.822535 242.116364 
L 198.537004 228.981608 
L 199.251472 228.981608 
L 199.965941 215.846853 
L 200.68041 208.163513 
L 201.394878 208.163513 
L 202.823816 196.677576 
L 203.538284 195.028758 
L 204.252753 196.677576 
L 204.967222 196.677576 
L 205.68169 193.511993 
L 206.396159 196.677576 
L 207.110627 192.107688 
L 207.825096 192.107688 
L 208.539565 195.028758 
L 209.254033 192.107688 
L 209.968502 192.107688 
L 210.682971 188.428539 
L 211.397439 192.107688 
L 212.111908 192.107688 
L 212.826376 196.677576 
L 213.540845 200.480174 
L 214.255314 202.712097 
L 214.969782 211.618406 
L 215.684251 208.163513 
L 216.39872 208.163513 
L 217.113188 198.483651 
L 217.827657 195.028758 
L 218.542125 195.028758 
L 219.256594 185.348895 
L 219.971063 179.662079 
L 220.685531 177.665556 
L 221.4 177.665556 
L 222.114469 178.307972 
L 223.543406 178.307972 
L 224.257875 170.408065 
L 224.972343 173.186119 
L 225.686812 174.210663 
L 226.40128 170.408065 
L 227.115749 169.565728 
L 227.830218 168.368523 
L 228.544686 169.565728 
L 229.259155 169.158198 
L 229.973624 173.186119 
L 230.688092 174.210663 
L 231.402561 177.044207 
L 232.117029 182.700484 
L 232.831498 182.700484 
L 233.545967 187.345419 
L 234.260435 185.348895 
L 234.974904 188.428539 
L 235.689373 192.107688 
L 236.403841 190.800311 
L 237.11831 188.428539 
L 237.832778 184.424349 
L 239.261716 178.307972 
L 239.976184 179.662079 
L 240.690653 174.210663 
L 241.405122 173.186119 
L 242.11959 170.843703 
L 242.834059 171.289593 
L 244.262996 174.210663 
L 244.977465 173.186119 
L 245.691933 173.186119 
L 246.406402 178.307972 
L 247.120871 181.120448 
L 247.835339 182.700484 
L 248.549808 181.120448 
L 249.264277 183.54282 
L 249.978745 183.54282 
L 250.693214 188.428539 
L 251.407682 188.428539 
L 252.122151 187.345419 
L 252.83662 184.424349 
L 253.551088 186.320875 
L 254.265557 189.577342 
L 254.980026 185.348895 
L 255.694494 185.348895 
L 256.408963 181.120448 
L 257.123431 180.377238 
L 257.8379 178.307972 
L 258.552369 179.662079 
L 259.266837 178.972933 
L 260.695775 176.442587 
L 261.410243 176.442587 
L 262.124712 177.665556 
L 262.839181 177.044207 
L 263.553649 178.972933 
L 264.268118 177.044207 
L 265.697055 178.307972 
L 267.840461 170.843703 
L 268.55493 166.527324 
L 269.269398 166.527324 
L 269.983867 167.985693 
L 270.698335 167.242482 
L 271.412804 166.88153 
L 272.127273 166.88153 
L 272.841741 166.527324 
L 273.55621 169.158198 
L 274.270679 173.186119 
L 274.985147 170.843703 
L 275.699616 166.179618 
L 276.414085 165.838177 
L 277.128553 164.849286 
L 277.843022 167.242482 
L 278.55749 166.527324 
L 279.986428 167.242482 
L 281.415365 170.408065 
L 282.129834 171.289593 
L 282.844302 171.746229 
L 283.558771 170.408065 
L 284.273239 174.210663 
L 284.987708 172.21414 
L 285.702177 173.186119 
L 286.416645 172.693898 
L 287.131114 174.210663 
L 287.845583 163.909452 
L 288.560051 164.217579 
L 289.27452 166.527324 
L 289.988988 163.909452 
L 290.703457 162.724725 
L 291.417926 157.708948 
L 292.132394 156.638073 
L 292.846863 156.023442 
L 293.561332 158.38178 
L 294.2758 157.930581 
L 294.990269 155.822917 
L 295.704738 152.368025 
L 296.419206 152.703422 
L 297.133675 155.428123 
L 297.848143 156.226112 
L 298.562612 155.428123 
L 299.277081 158.154838 
L 299.991549 156.226112 
L 300.706018 155.624492 
L 301.420487 161.882389 
L 302.134955 161.075908 
L 302.849424 160.814532 
L 303.563892 161.340939 
L 304.278361 162.159028 
L 304.99283 161.882389 
L 306.421767 168.759247 
L 307.136236 169.982217 
L 307.850704 175.293784 
L 308.565173 179.662079 
L 309.279641 175.859481 
L 309.99411 174.210663 
L 310.708579 175.859481 
L 311.423047 173.691468 
L 312.137516 172.693898 
L 312.851985 170.408065 
L 313.566453 167.242482 
L 314.280922 165.173216 
L 314.995391 166.88153 
L 315.709859 171.289593 
L 316.424328 171.746229 
L 317.138796 169.982217 
L 317.853265 170.408065 
L 318.567734 169.982217 
L 319.282202 167.985693 
L 319.996671 166.88153 
L 321.425608 157.930581 
L 322.140077 156.226112 
L 322.854545 155.233768 
L 323.569014 151.396045 
L 324.283483 151.082824 
L 324.997951 149.87928 
L 325.71242 147.550428 
L 326.426889 146.424388 
L 327.141357 146.303304 
L 327.855826 145.020082 
L 328.570294 141.527629 
L 329.284763 142.195941 
L 329.999232 140.345746 
L 330.7137 136.671782 
L 332.857106 130.110039 
L 333.571575 129.753932 
L 334.286044 129.703601 
L 335.000512 127.566859 
L 335.714981 123.682792 
L 336.429449 122.512483 
L 337.143918 122.859552 
L 337.858387 123.070886 
L 338.572855 123.646246 
L 339.287324 123.248817 
L 340.001793 123.177444 
L 340.716261 122.512483 
L 341.43073 124.35298 
L 342.145198 124.467019 
L 342.859667 122.307252 
L 343.574136 118.892092 
L 345.003073 107.700272 
L 345.717542 103.097811 
L 347.146479 96.546308 
L 347.860948 92.750859 
L 349.289885 80.7696 
L 350.004353 63.696631 
L 350.718822 61.939446 
L 351.433291 60.939424 
L 352.147759 60.429932 
L 352.862228 60.074764 
L 353.576697 60.233509 
L 354.291165 60.603488 
L 355.005634 62.101909 
L 355.720102 75.865582 
L 356.434571 77.529339 
L 357.14904 77.780798 
L 357.863508 77.609572 
L 358.577977 77.871886 
L 359.292446 75.539862 
L 360.006914 74.865756 
L 360.721383 72.798409 
L 361.435851 71.672368 
L 362.15032 71.712378 
L 363.579257 70.481017 
L 364.293726 69.301979 
L 365.008195 66.450982 
L 365.722663 65.139203 
L 367.151601 65.619901 
L 367.866069 65.519382 
L 368.580538 65.864036 
L 369.295006 65.975106 
L 370.009475 66.518927 
L 370.723944 69.930521 
L 371.438412 71.597283 
L 372.152881 70.846598 
L 373.581818 70.492059 
L 373.581818 70.492059 
" style="fill:none;stroke:#1f77b4;stroke-linecap:square;stroke-width:1.5;"/>
   </g>
   <g id="line2d_56">
    <path clip-path="url(#pfd2765a441)" d="M 69.218182 198.483651 
L 69.93265 200.480174 
L 72.076056 195.028758 
L 72.790525 196.677576 
L 74.933931 196.677576 
L 76.362868 195.028758 
L 78.506274 193.511993 
L 79.220743 195.028758 
L 79.935211 198.483651 
L 80.64968 196.677576 
L 82.078617 196.677576 
L 83.507554 198.483651 
L 86.365429 198.483651 
L 87.794366 202.712097 
L 88.508835 205.242443 
L 89.223303 205.242443 
L 90.652241 208.163513 
L 92.081178 205.242443 
L 94.224584 202.712097 
L 94.939052 202.712097 
L 95.653521 196.677576 
L 97.082458 195.028758 
L 97.796927 195.028758 
L 99.225864 192.107688 
L 101.36927 193.511993 
L 102.798207 192.107688 
L 103.512676 193.511993 
L 104.227145 200.480174 
L 105.656082 202.712097 
L 107.085019 202.712097 
L 107.799488 205.242443 
L 109.228425 198.483651 
L 110.657362 200.480174 
L 112.0863 196.677576 
L 113.515237 195.028758 
L 114.944174 196.677576 
L 115.658643 195.028758 
L 117.802049 200.480174 
L 118.516517 211.618406 
L 120.659923 211.618406 
L 122.08886 215.846853 
L 124.232266 215.846853 
L 124.946735 205.242443 
L 125.661204 152.873373 
L 126.375672 142.391298 
L 127.090141 140.345746 
L 127.804609 140.170287 
L 128.519078 140.170287 
L 129.233547 139.824168 
L 130.662484 139.738618 
L 131.376953 150.928134 
L 132.091421 170.843703 
L 132.80589 182.700484 
L 134.234827 182.700484 
L 134.949296 183.54282 
L 135.663764 182.700484 
L 136.378233 186.320875 
L 137.092702 190.800311 
L 137.80717 193.511993 
L 138.521639 195.028758 
L 140.665045 200.480174 
L 141.379513 208.163513 
L 142.093982 205.242443 
L 142.808451 187.345419 
L 144.237388 187.345419 
L 144.951857 184.424349 
L 145.666325 185.348895 
L 146.380794 184.424349 
L 147.095262 182.700484 
L 147.809731 180.377238 
L 148.5242 181.120448 
L 149.238668 189.577342 
L 149.953137 188.428539 
L 150.667606 190.800311 
L 152.811012 189.577342 
L 154.239949 195.028758 
L 154.954417 198.483651 
L 156.383355 202.712097 
L 157.097823 205.242443 
L 158.526761 211.618406 
L 159.241229 211.618406 
L 159.955698 215.846853 
L 161.384635 208.163513 
L 162.099104 208.163513 
L 162.813572 211.618406 
L 163.528041 208.163513 
L 164.24251 211.618406 
L 164.956978 208.163513 
L 165.671447 211.618406 
L 166.385915 211.618406 
L 167.100384 221.298269 
L 167.814853 215.846853 
L 168.529321 211.618406 
L 169.24379 211.618406 
L 169.958259 208.163513 
L 170.672727 211.618406 
L 171.387196 202.712097 
L 172.101665 190.800311 
L 172.816133 189.577342 
L 173.530602 190.800311 
L 175.674008 192.107688 
L 176.388476 187.345419 
L 177.102945 187.345419 
L 177.817414 184.424349 
L 178.531882 187.345419 
L 179.246351 192.107688 
L 179.960819 189.577342 
L 180.675288 189.577342 
L 181.389757 190.800311 
L 182.104225 198.483651 
L 182.818694 198.483651 
L 183.533163 192.107688 
L 184.9621 181.894003 
L 185.676569 183.54282 
L 186.391037 182.700484 
L 187.105506 179.662079 
L 187.819974 174.744486 
L 188.534443 174.210663 
L 189.248912 173.186119 
L 189.96338 173.691468 
L 190.677849 177.665556 
L 192.106786 177.665556 
L 192.821255 177.044207 
L 193.535723 180.377238 
L 194.250192 181.894003 
L 194.964661 190.800311 
L 195.679129 193.511993 
L 196.393598 195.028758 
L 197.108067 190.800311 
L 197.822535 184.424349 
L 198.537004 185.348895 
L 199.251472 185.348895 
L 199.965941 180.377238 
L 200.68041 176.442587 
L 201.394878 175.859481 
L 202.109347 173.186119 
L 202.823816 171.746229 
L 203.538284 166.527324 
L 204.252753 165.838177 
L 204.967222 165.50278 
L 205.68169 161.075908 
L 206.396159 160.302354 
L 207.110627 157.930581 
L 207.825096 156.847461 
L 208.539565 158.154838 
L 209.254033 160.814532 
L 209.968502 161.075908 
L 210.682971 160.556713 
L 211.397439 164.849286 
L 212.111908 167.610444 
L 212.826376 172.693898 
L 213.540845 176.442587 
L 214.255314 172.21414 
L 214.969782 174.744486 
L 215.684251 173.691468 
L 216.39872 168.368523 
L 217.113188 167.242482 
L 217.827657 164.217579 
L 218.542125 162.159028 
L 219.256594 156.638073 
L 219.971063 156.847461 
L 220.685531 156.023442 
L 221.4 156.023442 
L 222.114469 157.930581 
L 222.828937 156.226112 
L 223.543406 155.624492 
L 224.257875 152.873373 
L 224.972343 156.023442 
L 225.686812 154.475689 
L 226.40128 151.396045 
L 227.830218 152.038461 
L 228.544686 154.290815 
L 229.259155 154.475689 
L 229.973624 157.708948 
L 230.688092 159.317745 
L 231.402561 162.439766 
L 232.117029 169.982217 
L 232.831498 170.843703 
L 233.545967 170.408065 
L 234.260435 169.565728 
L 234.974904 169.565728 
L 236.403841 167.242482 
L 237.11831 166.527324 
L 237.832778 163.606254 
L 238.547247 162.439766 
L 239.261716 163.307831 
L 239.976184 163.909452 
L 240.690653 162.439766 
L 241.405122 160.556713 
L 242.11959 160.051364 
L 242.834059 160.051364 
L 243.548528 161.882389 
L 244.262996 161.882389 
L 244.977465 158.843985 
L 245.691933 158.611473 
L 247.120871 164.5308 
L 248.549808 164.5308 
L 249.264277 165.838177 
L 249.978745 166.88153 
L 250.693214 170.843703 
L 251.407682 172.693898 
L 252.122151 174.210663 
L 252.83662 173.691468 
L 253.551088 174.744486 
L 254.265557 178.307972 
L 254.980026 174.210663 
L 255.694494 172.693898 
L 256.408963 172.693898 
L 257.123431 170.408065 
L 257.8379 169.158198 
L 259.266837 167.610444 
L 259.981306 163.606254 
L 260.695775 162.724725 
L 261.410243 162.159028 
L 262.124712 160.556713 
L 262.839181 160.302354 
L 263.553649 159.559143 
L 264.982586 161.60973 
L 265.697055 163.307831 
L 267.840461 152.703422 
L 268.55493 149.87928 
L 269.269398 150.622491 
L 269.983867 151.082824 
L 270.698335 150.774696 
L 271.412804 150.025609 
L 272.127273 151.238787 
L 272.841741 153.044863 
L 273.55621 157.489877 
L 274.270679 161.075908 
L 274.985147 160.556713 
L 275.699616 154.107727 
L 276.414085 154.107727 
L 277.128553 153.746774 
L 277.843022 155.822917 
L 278.55749 155.822917 
L 279.271959 154.107727 
L 280.700896 153.392569 
L 281.415365 158.611473 
L 282.129834 158.38178 
L 282.844302 159.317745 
L 283.558771 159.079384 
L 284.273239 158.611473 
L 284.987708 161.60973 
L 285.702177 163.909452 
L 286.416645 165.50278 
L 287.131114 164.217579 
L 287.845583 151.714531 
L 288.560051 152.534981 
L 289.27452 153.568844 
L 289.988988 153.568844 
L 290.703457 151.554619 
L 291.417926 147.679777 
L 292.846863 146.063435 
L 293.561332 152.703422 
L 294.2758 152.202526 
L 294.990269 150.025609 
L 295.704738 146.303304 
L 296.419206 146.424388 
L 297.133675 148.610814 
L 298.562612 148.610814 
L 299.277081 149.87928 
L 299.991549 148.885448 
L 300.706018 148.340103 
L 301.420487 155.041386 
L 302.134955 155.428123 
L 302.849424 156.638073 
L 303.563892 157.273309 
L 304.278361 158.611473 
L 304.99283 158.611473 
L 305.707298 160.814532 
L 306.421767 163.606254 
L 307.136236 164.5308 
L 307.850704 168.759247 
L 308.565173 169.565728 
L 309.279641 168.759247 
L 309.99411 168.759247 
L 310.708579 169.565728 
L 311.423047 165.173216 
L 312.137516 165.173216 
L 312.851985 162.439766 
L 313.566453 160.302354 
L 314.280922 159.803655 
L 314.995391 157.273309 
L 315.709859 159.079384 
L 316.424328 158.38178 
L 317.138796 158.611473 
L 317.853265 155.428123 
L 318.567734 153.217918 
L 319.282202 149.30501 
L 319.996671 142.688162 
L 320.71114 140.612019 
L 321.425608 135.959313 
L 322.140077 135.34022 
L 322.854545 133.534144 
L 323.569014 129.256542 
L 324.283483 128.581427 
L 324.997951 125.565846 
L 325.71242 121.02484 
L 326.426889 117.628327 
L 327.141357 115.541656 
L 327.855826 112.410899 
L 328.570294 107.716018 
L 329.284763 106.130312 
L 329.999232 104.021123 
L 330.7137 99.901866 
L 331.428169 99.276144 
L 332.142638 98.876773 
L 332.857106 97.422429 
L 334.286044 97.385865 
L 335.714981 95.051733 
L 336.429449 95.675505 
L 337.143918 96.097371 
L 337.858387 95.986779 
L 338.572855 97.294762 
L 339.287324 97.312947 
L 340.001793 97.652569 
L 340.716261 97.376735 
L 342.859667 87.457416 
L 343.574136 83.372279 
L 344.288604 75.632355 
L 345.003073 70.941368 
L 345.717542 67.413852 
L 346.43201 64.843409 
L 347.146479 63.340397 
L 347.860948 60.85953 
L 349.289885 53.016089 
L 350.004353 44.52034 
L 350.718822 44.443636 
L 351.433291 44.632877 
L 352.862228 45.356481 
L 353.576697 46.461031 
L 354.291165 48.395574 
L 355.005634 51.670979 
L 355.720102 68.217475 
L 356.434571 69.727874 
L 357.14904 70.305212 
L 357.863508 70.554015 
L 358.577977 71.295275 
L 359.292446 69.341437 
L 360.006914 69.184094 
L 360.721383 68.32751 
L 361.435851 68.166604 
L 362.15032 68.950501 
L 362.864789 69.331045 
L 363.579257 69.433132 
L 364.293726 69.026001 
L 365.008195 68.956611 
L 365.722663 69.235707 
L 366.437132 69.742732 
L 367.866069 71.380743 
L 368.580538 72.830872 
L 369.295006 74.024871 
L 370.009475 75.519689 
L 370.723944 79.32869 
L 371.438412 81.079908 
L 372.86735 83.569466 
L 373.581818 84.393191 
L 373.581818 84.393191 
" style="fill:none;stroke:#ff7f0e;stroke-linecap:square;stroke-width:1.5;"/>
   </g>
   <g id="patch_3">
    <path d="M 54 252 
L 54 34.56 
" style="fill:none;stroke:#000000;stroke-linecap:square;stroke-linejoin:miter;stroke-width:0.8;"/>
   </g>
   <g id="patch_4">
    <path d="M 388.8 252 
L 388.8 34.56 
" style="fill:none;stroke:#000000;stroke-linecap:square;stroke-linejoin:miter;stroke-width:0.8;"/>
   </g>
   <g id="patch_5">
    <path d="M 54 252 
L 388.8 252 
" style="fill:none;stroke:#000000;stroke-linecap:square;stroke-linejoin:miter;stroke-width:0.8;"/>
   </g>
   <g id="patch_6">
    <path d="M 54 34.56 
L 388.8 34.56 
" style="fill:none;stroke:#000000;stroke-linecap:square;stroke-linejoin:miter;stroke-width:0.8;"/>
   </g>
   <g id="legend_1">
    <g id="patch_7">
     <path d="M 61 71.91625 
L 129.971875 71.91625 
Q 131.971875 71.91625 131.971875 69.91625 
L 131.971875 41.56 
Q 131.971875 39.56 129.971875 39.56 
L 61 39.56 
Q 59 39.56 59 41.56 
L 59 69.91625 
Q 59 71.91625 61 71.91625 
z
" style="fill:#ffffff;opacity:0.8;stroke:#cccccc;stroke-linejoin:miter;"/>
    </g>
    <g id="line2d_57">
     <path d="M 63 47.658437 
L 83 47.658437 
" style="fill:none;stroke:#1f77b4;stroke-linecap:square;stroke-width:1.5;"/>
    </g>
    <g id="line2d_58"/>
    <g id="text_15">
     <!-- outflow -->
     <defs>
      <path d="M 30.609375 48.390625 
Q 23.390625 48.390625 19.1875 42.75 
Q 14.984375 37.109375 14.984375 27.296875 
Q 14.984375 17.484375 19.15625 11.84375 
Q 23.34375 6.203125 30.609375 6.203125 
Q 37.796875 6.203125 41.984375 11.859375 
Q 46.1875 17.53125 46.1875 27.296875 
Q 46.1875 37.015625 41.984375 42.703125 
Q 37.796875 48.390625 30.609375 48.390625 
z
M 30.609375 56 
Q 42.328125 56 49.015625 48.375 
Q 55.71875 40.765625 55.71875 27.296875 
Q 55.71875 13.875 49.015625 6.21875 
Q 42.328125 -1.421875 30.609375 -1.421875 
Q 18.84375 -1.421875 12.171875 6.21875 
Q 5.515625 13.875 5.515625 27.296875 
Q 5.515625 40.765625 12.171875 48.375 
Q 18.84375 56 30.609375 56 
z
" id="DejaVuSans-6f"/>
      <path d="M 8.5 21.578125 
L 8.5 54.6875 
L 17.484375 54.6875 
L 17.484375 21.921875 
Q 17.484375 14.15625 20.5 10.265625 
Q 23.53125 6.390625 29.59375 6.390625 
Q 36.859375 6.390625 41.078125 11.03125 
Q 45.3125 15.671875 45.3125 23.6875 
L 45.3125 54.6875 
L 54.296875 54.6875 
L 54.296875 0 
L 45.3125 0 
L 45.3125 8.40625 
Q 42.046875 3.421875 37.71875 1 
Q 33.40625 -1.421875 27.6875 -1.421875 
Q 18.265625 -1.421875 13.375 4.4375 
Q 8.5 10.296875 8.5 21.578125 
z
M 31.109375 56 
z
" id="DejaVuSans-75"/>
      <path d="M 18.3125 70.21875 
L 18.3125 54.6875 
L 36.8125 54.6875 
L 36.8125 47.703125 
L 18.3125 47.703125 
L 18.3125 18.015625 
Q 18.3125 11.328125 20.140625 9.421875 
Q 21.96875 7.515625 27.59375 7.515625 
L 36.8125 7.515625 
L 36.8125 0 
L 27.59375 0 
Q 17.1875 0 13.234375 3.875 
Q 9.28125 7.765625 9.28125 18.015625 
L 9.28125 47.703125 
L 2.6875 47.703125 
L 2.6875 54.6875 
L 9.28125 54.6875 
L 9.28125 70.21875 
z
" id="DejaVuSans-74"/>
      <path d="M 37.109375 75.984375 
L 37.109375 68.5 
L 28.515625 68.5 
Q 23.6875 68.5 21.796875 66.546875 
Q 19.921875 64.59375 19.921875 59.515625 
L 19.921875 54.6875 
L 34.71875 54.6875 
L 34.71875 47.703125 
L 19.921875 47.703125 
L 19.921875 0 
L 10.890625 0 
L 10.890625 47.703125 
L 2.296875 47.703125 
L 2.296875 54.6875 
L 10.890625 54.6875 
L 10.890625 58.5 
Q 10.890625 67.625 15.140625 71.796875 
Q 19.390625 75.984375 28.609375 75.984375 
z
" id="DejaVuSans-66"/>
      <path d="M 9.421875 75.984375 
L 18.40625 75.984375 
L 18.40625 0 
L 9.421875 0 
z
" id="DejaVuSans-6c"/>
      <path d="M 4.203125 54.6875 
L 13.1875 54.6875 
L 24.421875 12.015625 
L 35.59375 54.6875 
L 46.1875 54.6875 
L 57.421875 12.015625 
L 68.609375 54.6875 
L 77.59375 54.6875 
L 63.28125 0 
L 52.6875 0 
L 40.921875 44.828125 
L 29.109375 0 
L 18.5 0 
z
" id="DejaVuSans-77"/>
     </defs>
     <g transform="translate(91 51.158437)scale(0.1 -0.1)">
      <use xlink:href="#DejaVuSans-6f"/>
      <use x="61.181641" xlink:href="#DejaVuSans-75"/>
      <use x="124.560547" xlink:href="#DejaVuSans-74"/>
      <use x="163.769531" xlink:href="#DejaVuSans-66"/>
      <use x="198.974609" xlink:href="#DejaVuSans-6c"/>
      <use x="226.757812" xlink:href="#DejaVuSans-6f"/>
      <use x="287.939453" xlink:href="#DejaVuSans-77"/>
     </g>
    </g>
    <g id="line2d_59">
     <path d="M 63 62.336562 
L 83 62.336562 
" style="fill:none;stroke:#ff7f0e;stroke-linecap:square;stroke-width:1.5;"/>
    </g>
    <g id="line2d_60"/>
    <g id="text_16">
     <!-- inflow -->
     <defs>
      <path d="M 9.421875 54.6875 
L 18.40625 54.6875 
L 18.40625 0 
L 9.421875 0 
z
M 9.421875 75.984375 
L 18.40625 75.984375 
L 18.40625 64.59375 
L 9.421875 64.59375 
z
" id="DejaVuSans-69"/>
      <path d="M 54.890625 33.015625 
L 54.890625 0 
L 45.90625 0 
L 45.90625 32.71875 
Q 45.90625 40.484375 42.875 44.328125 
Q 39.84375 48.1875 33.796875 48.1875 
Q 26.515625 48.1875 22.3125 43.546875 
Q 18.109375 38.921875 18.109375 30.90625 
L 18.109375 0 
L 9.078125 0 
L 9.078125 54.6875 
L 18.109375 54.6875 
L 18.109375 46.1875 
Q 21.34375 51.125 25.703125 53.5625 
Q 30.078125 56 35.796875 56 
Q 45.21875 56 50.046875 50.171875 
Q 54.890625 44.34375 54.890625 33.015625 
z
" id="DejaVuSans-6e"/>
     </defs>
     <g transform="translate(91 65.836562)scale(0.1 -0.1)">
      <use xlink:href="#DejaVuSans-69"/>
      <use x="27.783203" xlink:href="#DejaVuSans-6e"/>
      <use x="91.162109" xlink:href="#DejaVuSans-66"/>
      <use x="126.367188" xlink:href="#DejaVuSans-6c"/>
      <use x="154.150391" xlink:href="#DejaVuSans-6f"/>
      <use x="215.332031" xlink:href="#DejaVuSans-77"/>
     </g>
    </g>
   </g>
  </g>
 </g>
 <defs>
  <clipPath id="pfd2765a441">
   <rect height="217.44" width="334.8" x="54" y="34.56"/>
  </clipPath>
 </defs>
</svg>
