<?xml version="1.0" encoding="utf-8" standalone="no"?>
<!DOCTYPE svg PUBLIC "-//W3C//DTD SVG 1.1//EN"
  "http://www.w3.org/Graphics/SVG/1.1/DTD/svg11.dtd">
<!-- Created with matplotlib (http://matplotlib.org/) -->
<svg height="288pt" version="1.1" viewBox="0 0 432 288" width="432pt" xmlns="http://www.w3.org/2000/svg" xmlns:xlink="http://www.w3.org/1999/xlink">
 <defs>
  <style type="text/css">
*{stroke-linecap:butt;stroke-linejoin:round;}
  </style>
 </defs>
 <g id="figure_1">
  <g id="patch_1">
   <path d="M 0 288 
L 432 288 
L 432 0 
L 0 0 
z
" style="fill:#ffffff;"/>
  </g>
  <g id="axes_1">
   <g id="patch_2">
    <path d="M 54 252 
L 388.8 252 
L 388.8 34.56 
L 54 34.56 
z
" style="fill:#ffffff;"/>
   </g>
   <g id="matplotlib.axis_1">
    <g id="xtick_1">
     <g id="line2d_1">
      <defs>
       <path d="M 0 0 
L 0 3.5 
" id="ma9c133e67b" style="stroke:#000000;stroke-width:0.8;"/>
      </defs>
      <g>
       <use style="stroke:#000000;stroke-width:0.8;" x="105.109374" xlink:href="#ma9c133e67b" y="252"/>
      </g>
     </g>
     <g id="text_1">
      <!-- 2012 -->
      <defs>
       <path d="M 19.1875 8.296875 
L 53.609375 8.296875 
L 53.609375 0 
L 7.328125 0 
L 7.328125 8.296875 
Q 12.9375 14.109375 22.625 23.890625 
Q 32.328125 33.6875 34.8125 36.53125 
Q 39.546875 41.84375 41.421875 45.53125 
Q 43.3125 49.21875 43.3125 52.78125 
Q 43.3125 58.59375 39.234375 62.25 
Q 35.15625 65.921875 28.609375 65.921875 
Q 23.96875 65.921875 18.8125 64.3125 
Q 13.671875 62.703125 7.8125 59.421875 
L 7.8125 69.390625 
Q 13.765625 71.78125 18.9375 73 
Q 24.125 74.21875 28.421875 74.21875 
Q 39.75 74.21875 46.484375 68.546875 
Q 53.21875 62.890625 53.21875 53.421875 
Q 53.21875 48.921875 51.53125 44.890625 
Q 49.859375 40.875 45.40625 35.40625 
Q 44.1875 33.984375 37.640625 27.21875 
Q 31.109375 20.453125 19.1875 8.296875 
z
" id="DejaVuSans-32"/>
       <path d="M 31.78125 66.40625 
Q 24.171875 66.40625 20.328125 58.90625 
Q 16.5 51.421875 16.5 36.375 
Q 16.5 21.390625 20.328125 13.890625 
Q 24.171875 6.390625 31.78125 6.390625 
Q 39.453125 6.390625 43.28125 13.890625 
Q 47.125 21.390625 47.125 36.375 
Q 47.125 51.421875 43.28125 58.90625 
Q 39.453125 66.40625 31.78125 66.40625 
z
M 31.78125 74.21875 
Q 44.046875 74.21875 50.515625 64.515625 
Q 56.984375 54.828125 56.984375 36.375 
Q 56.984375 17.96875 50.515625 8.265625 
Q 44.046875 -1.421875 31.78125 -1.421875 
Q 19.53125 -1.421875 13.0625 8.265625 
Q 6.59375 17.96875 6.59375 36.375 
Q 6.59375 54.828125 13.0625 64.515625 
Q 19.53125 74.21875 31.78125 74.21875 
z
" id="DejaVuSans-30"/>
       <path d="M 12.40625 8.296875 
L 28.515625 8.296875 
L 28.515625 63.921875 
L 10.984375 60.40625 
L 10.984375 69.390625 
L 28.421875 72.90625 
L 38.28125 72.90625 
L 38.28125 8.296875 
L 54.390625 8.296875 
L 54.390625 0 
L 12.40625 0 
z
" id="DejaVuSans-31"/>
      </defs>
      <g transform="translate(92.384374 266.598437)scale(0.1 -0.1)">
       <use xlink:href="#DejaVuSans-32"/>
       <use x="63.623047" xlink:href="#DejaVuSans-30"/>
       <use x="127.246094" xlink:href="#DejaVuSans-31"/>
       <use x="190.869141" xlink:href="#DejaVuSans-32"/>
      </g>
     </g>
    </g>
    <g id="xtick_2">
     <g id="line2d_2">
      <g>
       <use style="stroke:#000000;stroke-width:0.8;" x="162.977993" xlink:href="#ma9c133e67b" y="252"/>
      </g>
     </g>
     <g id="text_2">
      <!-- 2013 -->
      <defs>
       <path d="M 40.578125 39.3125 
Q 47.65625 37.796875 51.625 33 
Q 55.609375 28.21875 55.609375 21.1875 
Q 55.609375 10.40625 48.1875 4.484375 
Q 40.765625 -1.421875 27.09375 -1.421875 
Q 22.515625 -1.421875 17.65625 -0.515625 
Q 12.796875 0.390625 7.625 2.203125 
L 7.625 11.71875 
Q 11.71875 9.328125 16.59375 8.109375 
Q 21.484375 6.890625 26.8125 6.890625 
Q 36.078125 6.890625 40.9375 10.546875 
Q 45.796875 14.203125 45.796875 21.1875 
Q 45.796875 27.640625 41.28125 31.265625 
Q 36.765625 34.90625 28.71875 34.90625 
L 20.21875 34.90625 
L 20.21875 43.015625 
L 29.109375 43.015625 
Q 36.375 43.015625 40.234375 45.921875 
Q 44.09375 48.828125 44.09375 54.296875 
Q 44.09375 59.90625 40.109375 62.90625 
Q 36.140625 65.921875 28.71875 65.921875 
Q 24.65625 65.921875 20.015625 65.03125 
Q 15.375 64.15625 9.8125 62.3125 
L 9.8125 71.09375 
Q 15.4375 72.65625 20.34375 73.4375 
Q 25.25 74.21875 29.59375 74.21875 
Q 40.828125 74.21875 47.359375 69.109375 
Q 53.90625 64.015625 53.90625 55.328125 
Q 53.90625 49.265625 50.4375 45.09375 
Q 46.96875 40.921875 40.578125 39.3125 
z
" id="DejaVuSans-33"/>
      </defs>
      <g transform="translate(150.252993 266.598437)scale(0.1 -0.1)">
       <use xlink:href="#DejaVuSans-32"/>
       <use x="63.623047" xlink:href="#DejaVuSans-30"/>
       <use x="127.246094" xlink:href="#DejaVuSans-31"/>
       <use x="190.869141" xlink:href="#DejaVuSans-33"/>
      </g>
     </g>
    </g>
    <g id="xtick_3">
     <g id="line2d_3">
      <g>
       <use style="stroke:#000000;stroke-width:0.8;" x="220.688501" xlink:href="#ma9c133e67b" y="252"/>
      </g>
     </g>
     <g id="text_3">
      <!-- 2014 -->
      <defs>
       <path d="M 37.796875 64.3125 
L 12.890625 25.390625 
L 37.796875 25.390625 
z
M 35.203125 72.90625 
L 47.609375 72.90625 
L 47.609375 25.390625 
L 58.015625 25.390625 
L 58.015625 17.1875 
L 47.609375 17.1875 
L 47.609375 0 
L 37.796875 0 
L 37.796875 17.1875 
L 4.890625 17.1875 
L 4.890625 26.703125 
z
" id="DejaVuSans-34"/>
      </defs>
      <g transform="translate(207.963501 266.598437)scale(0.1 -0.1)">
       <use xlink:href="#DejaVuSans-32"/>
       <use x="63.623047" xlink:href="#DejaVuSans-30"/>
       <use x="127.246094" xlink:href="#DejaVuSans-31"/>
       <use x="190.869141" xlink:href="#DejaVuSans-34"/>
      </g>
     </g>
    </g>
    <g id="xtick_4">
     <g id="line2d_4">
      <g>
       <use style="stroke:#000000;stroke-width:0.8;" x="278.399008" xlink:href="#ma9c133e67b" y="252"/>
      </g>
     </g>
     <g id="text_4">
      <!-- 2015 -->
      <defs>
       <path d="M 10.796875 72.90625 
L 49.515625 72.90625 
L 49.515625 64.59375 
L 19.828125 64.59375 
L 19.828125 46.734375 
Q 21.96875 47.46875 24.109375 47.828125 
Q 26.265625 48.1875 28.421875 48.1875 
Q 40.625 48.1875 47.75 41.5 
Q 54.890625 34.8125 54.890625 23.390625 
Q 54.890625 11.625 47.5625 5.09375 
Q 40.234375 -1.421875 26.90625 -1.421875 
Q 22.3125 -1.421875 17.546875 -0.640625 
Q 12.796875 0.140625 7.71875 1.703125 
L 7.71875 11.625 
Q 12.109375 9.234375 16.796875 8.0625 
Q 21.484375 6.890625 26.703125 6.890625 
Q 35.15625 6.890625 40.078125 11.328125 
Q 45.015625 15.765625 45.015625 23.390625 
Q 45.015625 31 40.078125 35.4375 
Q 35.15625 39.890625 26.703125 39.890625 
Q 22.75 39.890625 18.8125 39.015625 
Q 14.890625 38.140625 10.796875 36.28125 
z
" id="DejaVuSans-35"/>
      </defs>
      <g transform="translate(265.674008 266.598437)scale(0.1 -0.1)">
       <use xlink:href="#DejaVuSans-32"/>
       <use x="63.623047" xlink:href="#DejaVuSans-30"/>
       <use x="127.246094" xlink:href="#DejaVuSans-31"/>
       <use x="190.869141" xlink:href="#DejaVuSans-35"/>
      </g>
     </g>
    </g>
    <g id="xtick_5">
     <g id="line2d_5">
      <g>
       <use style="stroke:#000000;stroke-width:0.8;" x="336.109516" xlink:href="#ma9c133e67b" y="252"/>
      </g>
     </g>
     <g id="text_5">
      <!-- 2016 -->
      <defs>
       <path d="M 33.015625 40.375 
Q 26.375 40.375 22.484375 35.828125 
Q 18.609375 31.296875 18.609375 23.390625 
Q 18.609375 15.53125 22.484375 10.953125 
Q 26.375 6.390625 33.015625 6.390625 
Q 39.65625 6.390625 43.53125 10.953125 
Q 47.40625 15.53125 47.40625 23.390625 
Q 47.40625 31.296875 43.53125 35.828125 
Q 39.65625 40.375 33.015625 40.375 
z
M 52.59375 71.296875 
L 52.59375 62.3125 
Q 48.875 64.0625 45.09375 64.984375 
Q 41.3125 65.921875 37.59375 65.921875 
Q 27.828125 65.921875 22.671875 59.328125 
Q 17.53125 52.734375 16.796875 39.40625 
Q 19.671875 43.65625 24.015625 45.921875 
Q 28.375 48.1875 33.59375 48.1875 
Q 44.578125 48.1875 50.953125 41.515625 
Q 57.328125 34.859375 57.328125 23.390625 
Q 57.328125 12.15625 50.6875 5.359375 
Q 44.046875 -1.421875 33.015625 -1.421875 
Q 20.359375 -1.421875 13.671875 8.265625 
Q 6.984375 17.96875 6.984375 36.375 
Q 6.984375 53.65625 15.1875 63.9375 
Q 23.390625 74.21875 37.203125 74.21875 
Q 40.921875 74.21875 44.703125 73.484375 
Q 48.484375 72.75 52.59375 71.296875 
z
" id="DejaVuSans-36"/>
      </defs>
      <g transform="translate(323.384516 266.598437)scale(0.1 -0.1)">
       <use xlink:href="#DejaVuSans-32"/>
       <use x="63.623047" xlink:href="#DejaVuSans-30"/>
       <use x="127.246094" xlink:href="#DejaVuSans-31"/>
       <use x="190.869141" xlink:href="#DejaVuSans-36"/>
      </g>
     </g>
    </g>
   </g>
   <g id="matplotlib.axis_2">
    <g id="ytick_1">
     <g id="line2d_6">
      <defs>
       <path d="M 0 0 
L -3.5 0 
" id="mbc8f0f642e" style="stroke:#000000;stroke-width:0.8;"/>
      </defs>
      <g>
       <use style="stroke:#000000;stroke-width:0.8;" x="54" xlink:href="#mbc8f0f642e" y="230.818062"/>
      </g>
     </g>
     <g id="text_6">
      <!-- 0.60 -->
      <defs>
       <path d="M 10.6875 12.40625 
L 21 12.40625 
L 21 0 
L 10.6875 0 
z
" id="DejaVuSans-2e"/>
      </defs>
      <g transform="translate(24.734375 234.617281)scale(0.1 -0.1)">
       <use xlink:href="#DejaVuSans-30"/>
       <use x="63.623047" xlink:href="#DejaVuSans-2e"/>
       <use x="95.410156" xlink:href="#DejaVuSans-36"/>
       <use x="159.033203" xlink:href="#DejaVuSans-30"/>
      </g>
     </g>
    </g>
    <g id="ytick_2">
     <g id="line2d_7">
      <g>
       <use style="stroke:#000000;stroke-width:0.8;" x="54" xlink:href="#mbc8f0f642e" y="206.008165"/>
      </g>
     </g>
     <g id="text_7">
      <!-- 0.65 -->
      <g transform="translate(24.734375 209.807384)scale(0.1 -0.1)">
       <use xlink:href="#DejaVuSans-30"/>
       <use x="63.623047" xlink:href="#DejaVuSans-2e"/>
       <use x="95.410156" xlink:href="#DejaVuSans-36"/>
       <use x="159.033203" xlink:href="#DejaVuSans-35"/>
      </g>
     </g>
    </g>
    <g id="ytick_3">
     <g id="line2d_8">
      <g>
       <use style="stroke:#000000;stroke-width:0.8;" x="54" xlink:href="#mbc8f0f642e" y="181.198268"/>
      </g>
     </g>
     <g id="text_8">
      <!-- 0.70 -->
      <defs>
       <path d="M 8.203125 72.90625 
L 55.078125 72.90625 
L 55.078125 68.703125 
L 28.609375 0 
L 18.3125 0 
L 43.21875 64.59375 
L 8.203125 64.59375 
z
" id="DejaVuSans-37"/>
      </defs>
      <g transform="translate(24.734375 184.997486)scale(0.1 -0.1)">
       <use xlink:href="#DejaVuSans-30"/>
       <use x="63.623047" xlink:href="#DejaVuSans-2e"/>
       <use x="95.410156" xlink:href="#DejaVuSans-37"/>
       <use x="159.033203" xlink:href="#DejaVuSans-30"/>
      </g>
     </g>
    </g>
    <g id="ytick_4">
     <g id="line2d_9">
      <g>
       <use style="stroke:#000000;stroke-width:0.8;" x="54" xlink:href="#mbc8f0f642e" y="156.38837"/>
      </g>
     </g>
     <g id="text_9">
      <!-- 0.75 -->
      <g transform="translate(24.734375 160.187589)scale(0.1 -0.1)">
       <use xlink:href="#DejaVuSans-30"/>
       <use x="63.623047" xlink:href="#DejaVuSans-2e"/>
       <use x="95.410156" xlink:href="#DejaVuSans-37"/>
       <use x="159.033203" xlink:href="#DejaVuSans-35"/>
      </g>
     </g>
    </g>
    <g id="ytick_5">
     <g id="line2d_10">
      <g>
       <use style="stroke:#000000;stroke-width:0.8;" x="54" xlink:href="#mbc8f0f642e" y="131.578473"/>
      </g>
     </g>
     <g id="text_10">
      <!-- 0.80 -->
      <defs>
       <path d="M 31.78125 34.625 
Q 24.75 34.625 20.71875 30.859375 
Q 16.703125 27.09375 16.703125 20.515625 
Q 16.703125 13.921875 20.71875 10.15625 
Q 24.75 6.390625 31.78125 6.390625 
Q 38.8125 6.390625 42.859375 10.171875 
Q 46.921875 13.96875 46.921875 20.515625 
Q 46.921875 27.09375 42.890625 30.859375 
Q 38.875 34.625 31.78125 34.625 
z
M 21.921875 38.8125 
Q 15.578125 40.375 12.03125 44.71875 
Q 8.5 49.078125 8.5 55.328125 
Q 8.5 64.0625 14.71875 69.140625 
Q 20.953125 74.21875 31.78125 74.21875 
Q 42.671875 74.21875 48.875 69.140625 
Q 55.078125 64.0625 55.078125 55.328125 
Q 55.078125 49.078125 51.53125 44.71875 
Q 48 40.375 41.703125 38.8125 
Q 48.828125 37.15625 52.796875 32.3125 
Q 56.78125 27.484375 56.78125 20.515625 
Q 56.78125 9.90625 50.3125 4.234375 
Q 43.84375 -1.421875 31.78125 -1.421875 
Q 19.734375 -1.421875 13.25 4.234375 
Q 6.78125 9.90625 6.78125 20.515625 
Q 6.78125 27.484375 10.78125 32.3125 
Q 14.796875 37.15625 21.921875 38.8125 
z
M 18.3125 54.390625 
Q 18.3125 48.734375 21.84375 45.5625 
Q 25.390625 42.390625 31.78125 42.390625 
Q 38.140625 42.390625 41.71875 45.5625 
Q 45.3125 48.734375 45.3125 54.390625 
Q 45.3125 60.0625 41.71875 63.234375 
Q 38.140625 66.40625 31.78125 66.40625 
Q 25.390625 66.40625 21.84375 63.234375 
Q 18.3125 60.0625 18.3125 54.390625 
z
" id="DejaVuSans-38"/>
      </defs>
      <g transform="translate(24.734375 135.377692)scale(0.1 -0.1)">
       <use xlink:href="#DejaVuSans-30"/>
       <use x="63.623047" xlink:href="#DejaVuSans-2e"/>
       <use x="95.410156" xlink:href="#DejaVuSans-38"/>
       <use x="159.033203" xlink:href="#DejaVuSans-30"/>
      </g>
     </g>
    </g>
    <g id="ytick_6">
     <g id="line2d_11">
      <g>
       <use style="stroke:#000000;stroke-width:0.8;" x="54" xlink:href="#mbc8f0f642e" y="106.768576"/>
      </g>
     </g>
     <g id="text_11">
      <!-- 0.85 -->
      <g transform="translate(24.734375 110.567794)scale(0.1 -0.1)">
       <use xlink:href="#DejaVuSans-30"/>
       <use x="63.623047" xlink:href="#DejaVuSans-2e"/>
       <use x="95.410156" xlink:href="#DejaVuSans-38"/>
       <use x="159.033203" xlink:href="#DejaVuSans-35"/>
      </g>
     </g>
    </g>
    <g id="ytick_7">
     <g id="line2d_12">
      <g>
       <use style="stroke:#000000;stroke-width:0.8;" x="54" xlink:href="#mbc8f0f642e" y="81.958678"/>
      </g>
     </g>
     <g id="text_12">
      <!-- 0.90 -->
      <defs>
       <path d="M 10.984375 1.515625 
L 10.984375 10.5 
Q 14.703125 8.734375 18.5 7.8125 
Q 22.3125 6.890625 25.984375 6.890625 
Q 35.75 6.890625 40.890625 13.453125 
Q 46.046875 20.015625 46.78125 33.40625 
Q 43.953125 29.203125 39.59375 26.953125 
Q 35.25 24.703125 29.984375 24.703125 
Q 19.046875 24.703125 12.671875 31.3125 
Q 6.296875 37.9375 6.296875 49.421875 
Q 6.296875 60.640625 12.9375 67.421875 
Q 19.578125 74.21875 30.609375 74.21875 
Q 43.265625 74.21875 49.921875 64.515625 
Q 56.59375 54.828125 56.59375 36.375 
Q 56.59375 19.140625 48.40625 8.859375 
Q 40.234375 -1.421875 26.421875 -1.421875 
Q 22.703125 -1.421875 18.890625 -0.6875 
Q 15.09375 0.046875 10.984375 1.515625 
z
M 30.609375 32.421875 
Q 37.25 32.421875 41.125 36.953125 
Q 45.015625 41.5 45.015625 49.421875 
Q 45.015625 57.28125 41.125 61.84375 
Q 37.25 66.40625 30.609375 66.40625 
Q 23.96875 66.40625 20.09375 61.84375 
Q 16.21875 57.28125 16.21875 49.421875 
Q 16.21875 41.5 20.09375 36.953125 
Q 23.96875 32.421875 30.609375 32.421875 
z
" id="DejaVuSans-39"/>
      </defs>
      <g transform="translate(24.734375 85.757897)scale(0.1 -0.1)">
       <use xlink:href="#DejaVuSans-30"/>
       <use x="63.623047" xlink:href="#DejaVuSans-2e"/>
       <use x="95.410156" xlink:href="#DejaVuSans-39"/>
       <use x="159.033203" xlink:href="#DejaVuSans-30"/>
      </g>
     </g>
    </g>
    <g id="ytick_8">
     <g id="line2d_13">
      <g>
       <use style="stroke:#000000;stroke-width:0.8;" x="54" xlink:href="#mbc8f0f642e" y="57.148781"/>
      </g>
     </g>
     <g id="text_13">
      <!-- 0.95 -->
      <g transform="translate(24.734375 60.948)scale(0.1 -0.1)">
       <use xlink:href="#DejaVuSans-30"/>
       <use x="63.623047" xlink:href="#DejaVuSans-2e"/>
       <use x="95.410156" xlink:href="#DejaVuSans-39"/>
       <use x="159.033203" xlink:href="#DejaVuSans-35"/>
      </g>
     </g>
    </g>
   </g>
   <g id="line2d_14">
    <path clip-path="url(#pe940513d22)" d="M 69.218182 237.54592 
L 70.324959 226.913107 
L 71.431736 227.946853 
L 72.538512 224.225368 
L 73.645289 225.406792 
L 74.752066 235.330751 
L 75.858843 242.116364 
L 76.96562 240.46237 
L 78.072397 240.46237 
L 79.179174 242.116364 
L 80.28595 237.981381 
L 81.392727 227.643924 
L 82.499504 229.36068 
L 83.606281 233.909161 
L 84.713058 236.286776 
L 85.819835 239.088622 
L 86.926612 234.591829 
L 88.033388 230.56022 
L 89.140165 225.074305 
L 90.246942 224.07357 
L 91.353719 221.415366 
L 92.460496 213.339077 
L 93.567273 212.305331 
L 94.67405 205.216789 
L 95.780826 205.069111 
L 96.887603 201.85053 
L 97.99438 201.168939 
L 99.101157 196.758291 
L 100.207934 204.910114 
L 101.314711 202.61997 
L 102.421488 211.567802 
L 103.528264 207.393809 
L 104.635041 199.769935 
L 105.741818 195.451175 
L 106.848595 189.972322 
L 107.955372 183.77767 
L 109.062149 185.868655 
L 110.168926 189.083352 
L 111.275702 192.982051 
L 112.382479 194.642517 
L 113.489256 192.557652 
L 114.596033 192.491697 
L 115.70281 191.641514 
L 117.916364 187.142259 
L 119.02314 187.360573 
L 120.129917 186.627276 
L 121.236694 189.671582 
L 122.343471 188.672162 
L 123.450248 190.259725 
L 124.557025 189.269785 
L 125.663802 190.021123 
L 126.770579 192.575083 
L 127.877355 194.412853 
L 128.984132 197.13505 
L 130.090909 197.641983 
L 131.197686 204.0794 
L 132.304463 205.553043 
L 133.41124 204.747527 
L 134.518017 205.988417 
L 135.624793 205.170647 
L 136.73157 207.664209 
L 137.838347 206.08205 
L 138.945124 212.284524 
L 140.051901 213.323362 
L 141.158678 214.669636 
L 143.372231 215.412235 
L 144.479008 218.824812 
L 145.585785 216.276441 
L 147.799339 214.271012 
L 148.906116 209.498281 
L 150.012893 209.750799 
L 151.119669 209.167037 
L 152.226446 209.205376 
L 153.333223 200.695884 
L 154.44 197.003469 
L 155.546777 195.0536 
L 156.653554 189.339693 
L 157.760331 194.546105 
L 158.867107 193.487349 
L 159.973884 194.885946 
L 161.080661 191.567357 
L 162.187438 193.248541 
L 163.294215 196.69436 
L 164.400992 196.365187 
L 166.614545 191.324155 
L 167.721322 189.282329 
L 168.828099 187.660767 
L 169.934876 186.653015 
L 171.041653 188.477979 
L 172.14843 184.847587 
L 173.255207 182.239699 
L 174.361983 183.201101 
L 175.46876 184.44976 
L 176.575537 185.192407 
L 177.682314 183.142177 
L 178.789091 184.55644 
L 179.895868 179.234026 
L 181.002645 182.101837 
L 182.109421 182.439164 
L 183.216198 180.912401 
L 185.429752 170.283588 
L 186.536529 169.998689 
L 187.643306 176.504781 
L 188.750083 173.603306 
L 189.85686 175.628439 
L 190.963636 176.521953 
L 192.070413 172.816578 
L 193.17719 175.727332 
L 194.283967 181.281513 
L 195.390744 181.32807 
L 196.497521 181.252736 
L 197.604298 181.386414 
L 198.711074 181.802241 
L 199.817851 184.149981 
L 200.924628 183.948083 
L 202.031405 182.555437 
L 203.138182 180.859629 
L 204.244959 180.985705 
L 205.351736 181.783785 
L 206.458512 184.475363 
L 207.565289 186.843581 
L 208.672066 187.549988 
L 209.778843 184.392365 
L 210.88562 185.204795 
L 211.992397 186.91461 
L 213.099174 184.708762 
L 214.20595 183.949275 
L 215.312727 178.569649 
L 216.419504 177.927287 
L 217.526281 175.302416 
L 218.633058 172.349844 
L 219.739835 176.972154 
L 220.846612 177.697475 
L 221.953388 175.562565 
L 223.060165 173.170783 
L 224.166942 177.377589 
L 225.273719 176.915027 
L 226.380496 177.140787 
L 227.487273 176.628975 
L 228.59405 178.497597 
L 229.700826 175.816527 
L 230.807603 173.477889 
L 231.91438 174.844424 
L 233.021157 174.581189 
L 234.127934 172.928327 
L 235.234711 178.650777 
L 236.341488 178.844689 
L 237.448264 182.193838 
L 238.555041 181.089501 
L 239.661818 183.620396 
L 240.768595 184.351922 
L 241.875372 179.847972 
L 242.982149 178.663114 
L 244.088926 178.979907 
L 245.195702 181.246551 
L 246.302479 178.627975 
L 247.409256 178.718853 
L 248.516033 182.70222 
L 249.62281 188.725777 
L 250.729587 187.284912 
L 251.836364 187.189636 
L 252.94314 189.847839 
L 254.049917 185.323681 
L 255.156694 184.949475 
L 256.263471 183.600511 
L 257.370248 184.69357 
L 258.477025 185.165874 
L 259.583802 179.599284 
L 260.690579 175.379274 
L 262.904132 178.541187 
L 264.010909 177.047141 
L 265.117686 173.339774 
L 266.224463 173.156985 
L 267.33124 171.305817 
L 269.544793 165.705547 
L 270.65157 158.111561 
L 271.758347 148.475574 
L 272.865124 144.787132 
L 273.971901 144.918085 
L 275.078678 144.181002 
L 276.185455 147.560901 
L 277.292231 148.990586 
L 278.399008 151.138444 
L 279.505785 147.53766 
L 282.826116 162.082672 
L 283.932893 162.717255 
L 285.039669 161.541796 
L 286.146446 163.014534 
L 287.253223 167.753335 
L 288.36 169.036293 
L 289.466777 170.716329 
L 290.573554 173.622567 
L 291.680331 174.843875 
L 292.787107 177.978393 
L 293.893884 181.634119 
L 295.000661 184.852346 
L 296.107438 186.310052 
L 297.214215 185.260914 
L 298.320992 183.359502 
L 300.534545 182.746304 
L 301.641322 182.89994 
L 302.748099 179.450011 
L 303.854876 177.428558 
L 304.961653 174.535654 
L 306.06843 170.769192 
L 309.38876 166.268268 
L 310.495537 164.689058 
L 312.709091 160.520774 
L 313.815868 158.538131 
L 314.922645 156.256253 
L 318.242975 147.855375 
L 319.349752 145.962932 
L 321.563306 143.520906 
L 323.77686 139.70256 
L 324.883636 138.647096 
L 327.09719 137.733076 
L 328.203967 137.673116 
L 330.417521 136.649021 
L 331.524298 136.289721 
L 332.631074 135.516807 
L 333.737851 135.556776 
L 334.844628 136.220043 
L 335.951405 137.263137 
L 337.058182 137.825638 
L 339.271736 140.044452 
L 340.378512 140.851046 
L 341.485289 140.922659 
L 342.592066 141.378562 
L 343.698843 142.440978 
L 344.80562 142.856703 
L 345.912397 143.413508 
L 347.019174 144.133601 
L 348.12595 143.890654 
L 349.232727 143.967459 
L 350.339504 144.171595 
L 351.446281 145.232709 
L 352.553058 147.041393 
L 353.659835 148.071984 
L 354.766612 149.574823 
L 355.873388 150.300102 
L 356.980165 150.613521 
L 359.193719 150.868328 
L 360.300496 150.589589 
L 362.51405 151.259971 
L 363.620826 151.735601 
L 365.83438 151.447884 
L 366.941157 151.371014 
L 369.154711 150.276062 
L 370.261488 150.314356 
L 371.368264 150.131371 
L 372.475041 150.222055 
L 373.581818 151.315249 
L 373.581818 151.315249 
" style="fill:none;stroke:#1f77b4;stroke-linecap:square;stroke-width:1.5;"/>
   </g>
   <g id="line2d_15">
    <path clip-path="url(#pe940513d22)" d="M 70.324959 59.781178 
L 71.431736 59.781178 
L 72.538512 62.036623 
L 73.645289 63.218047 
L 74.752066 64.87204 
L 75.858843 66.939531 
L 76.96562 60.737057 
L 80.28595 60.737057 
L 81.392727 63.218047 
L 82.499504 69.608475 
L 83.606281 77.308098 
L 84.713058 82.545743 
L 85.819835 86.517196 
L 86.926612 86.19912 
L 88.033388 86.19912 
L 89.140165 87.616829 
L 90.246942 89.825285 
L 91.353719 85.84345 
L 92.460496 83.572243 
L 93.567273 85.639735 
L 95.780826 83.139089 
L 96.887603 81.924209 
L 97.99438 80.461837 
L 99.101157 81.038811 
L 101.314711 82.722773 
L 102.421488 82.722773 
L 103.528264 80.793114 
L 107.955372 51.128598 
L 109.062149 48.11201 
L 110.168926 48.11201 
L 111.275702 48.269533 
L 113.489256 47.552524 
L 115.70281 44.592243 
L 116.809587 44.443636 
L 117.916364 45.821964 
L 119.02314 45.678207 
L 120.129917 47.3703 
L 122.343471 46.216171 
L 125.663802 46.397222 
L 127.877355 47.270305 
L 128.984132 47.906456 
L 130.090909 49.126615 
L 131.197686 48.564852 
L 132.304463 49.544191 
L 133.41124 48.508305 
L 134.518017 46.716479 
L 136.73157 46.622502 
L 137.838347 46.781495 
L 138.945124 47.647873 
L 140.051901 47.18 
L 141.158678 49.192541 
L 142.265455 48.049277 
L 143.372231 50.054118 
L 144.479008 50.713035 
L 145.585785 51.197313 
L 147.799339 54.36475 
L 148.906116 55.410129 
L 150.012893 57.821905 
L 151.119669 61.793306 
L 152.226446 62.173786 
L 154.44 62.025283 
L 155.546777 62.791722 
L 157.760331 64.811315 
L 159.973884 64.736215 
L 162.187438 64.130443 
L 163.294215 66.930466 
L 164.400992 67.235923 
L 165.507769 66.264828 
L 166.614545 67.381239 
L 167.721322 69.238985 
L 168.828099 70.201784 
L 169.934876 69.471033 
L 171.041653 72.122815 
L 172.14843 71.276576 
L 173.255207 68.002889 
L 174.361983 73.84522 
L 175.46876 75.577216 
L 176.575537 76.272321 
L 177.682314 78.067774 
L 178.789091 78.614997 
L 179.895868 77.992526 
L 182.109421 88.291446 
L 183.216198 89.59723 
L 184.322975 90.598331 
L 185.429752 85.490411 
L 186.536529 86.949817 
L 187.643306 86.343828 
L 189.85686 86.650296 
L 190.963636 88.672864 
L 192.070413 90.295604 
L 193.17719 88.069075 
L 194.283967 87.527682 
L 195.390744 89.295054 
L 196.497521 82.442797 
L 197.604298 83.52252 
L 198.711074 85.445287 
L 199.817851 84.228346 
L 200.924628 83.697626 
L 202.031405 83.869917 
L 203.138182 81.625825 
L 204.244959 81.098997 
L 205.351736 81.559131 
L 206.458512 81.777583 
L 207.565289 84.389151 
L 208.672066 84.517169 
L 209.778843 87.290689 
L 210.88562 87.505471 
L 211.992397 89.045395 
L 213.099174 87.566344 
L 214.20595 84.671748 
L 215.312727 85.110176 
L 216.419504 84.991846 
L 217.526281 82.826831 
L 218.633058 84.491565 
L 219.739835 81.465967 
L 220.846612 80.60415 
L 221.953388 78.719854 
L 223.060165 78.608385 
L 224.166942 80.034954 
L 225.273719 81.137571 
L 226.380496 78.361739 
L 227.487273 77.72238 
L 228.59405 78.768746 
L 229.700826 76.52203 
L 230.807603 75.145097 
L 233.021157 73.011227 
L 234.127934 69.075864 
L 235.234711 66.409888 
L 236.341488 68.38657 
L 237.448264 69.347674 
L 238.555041 69.134321 
L 239.661818 69.30899 
L 240.768595 68.537897 
L 241.875372 70.104838 
L 242.982149 68.057131 
L 244.088926 68.057131 
L 245.195702 65.984909 
L 246.302479 64.348797 
L 248.516033 59.079998 
L 249.62281 60.782638 
L 250.729587 61.998809 
L 251.836364 64.114948 
L 252.94314 64.217186 
L 254.049917 63.406405 
L 255.156694 63.872809 
L 256.263471 63.879938 
L 257.370248 63.444677 
L 258.477025 62.181628 
L 259.583802 59.687081 
L 260.690579 59.70443 
L 261.797355 59.572877 
L 264.010909 58.072875 
L 265.117686 58.04836 
L 266.224463 58.392942 
L 267.33124 59.04638 
L 268.438017 60.431666 
L 269.544793 63.104207 
L 270.65157 66.423841 
L 271.758347 65.713794 
L 272.865124 66.640362 
L 275.078678 67.437209 
L 276.185455 68.580543 
L 277.292231 71.735926 
L 279.505785 76.230282 
L 280.612562 77.789761 
L 281.719339 79.687295 
L 282.826116 81.034672 
L 283.932893 82.002139 
L 287.253223 87.601726 
L 288.36 89.859518 
L 289.466777 91.198357 
L 290.573554 90.987522 
L 292.787107 87.97864 
L 293.893884 86.65642 
L 295.000661 83.441951 
L 296.107438 82.865522 
L 298.320992 82.438872 
L 299.427769 79.719349 
L 300.534545 79.071245 
L 301.641322 78.772084 
L 303.854876 77.850998 
L 304.961653 77.186814 
L 306.06843 76.672724 
L 310.495537 71.483992 
L 312.709091 68.674984 
L 313.815868 67.649634 
L 314.922645 66.920005 
L 316.029421 66.015889 
L 317.136198 65.401058 
L 318.242975 64.356535 
L 319.349752 63.871042 
L 320.456529 63.074355 
L 321.563306 62.717273 
L 322.670083 61.928768 
L 323.77686 61.678853 
L 325.990413 60.667038 
L 327.09719 60.335664 
L 329.310744 60.689513 
L 330.417521 60.987451 
L 337.058182 63.882209 
L 340.378512 64.930562 
L 341.485289 64.995743 
L 342.592066 64.906981 
L 343.698843 65.061758 
L 344.80562 65.034912 
L 349.232727 65.764205 
L 351.446281 66.14756 
L 353.659835 65.943953 
L 354.766612 66.011618 
L 356.980165 65.756644 
L 359.193719 65.492793 
L 360.300496 65.175235 
L 361.407273 65.05561 
L 362.51405 64.82111 
L 363.620826 64.702151 
L 365.83438 64.813583 
L 366.941157 64.565737 
L 369.154711 63.774034 
L 370.261488 63.84551 
L 371.368264 63.684311 
L 372.475041 63.739168 
L 373.581818 63.280683 
L 373.581818 63.280683 
" style="fill:none;stroke:#ff7f0e;stroke-linecap:square;stroke-width:1.5;"/>
   </g>
   <g id="patch_3">
    <path d="M 54 252 
L 54 34.56 
" style="fill:none;stroke:#000000;stroke-linecap:square;stroke-linejoin:miter;stroke-width:0.8;"/>
   </g>
   <g id="patch_4">
    <path d="M 388.8 252 
L 388.8 34.56 
" style="fill:none;stroke:#000000;stroke-linecap:square;stroke-linejoin:miter;stroke-width:0.8;"/>
   </g>
   <g id="patch_5">
    <path d="M 54 252 
L 388.8 252 
" style="fill:none;stroke:#000000;stroke-linecap:square;stroke-linejoin:miter;stroke-width:0.8;"/>
   </g>
   <g id="patch_6">
    <path d="M 54 34.56 
L 388.8 34.56 
" style="fill:none;stroke:#000000;stroke-linecap:square;stroke-linejoin:miter;stroke-width:0.8;"/>
   </g>
   <g id="legend_1">
    <g id="patch_7">
     <path d="M 269.857813 247 
L 381.8 247 
Q 383.8 247 383.8 245 
L 383.8 216.64375 
Q 383.8 214.64375 381.8 214.64375 
L 269.857813 214.64375 
Q 267.857813 214.64375 267.857813 216.64375 
L 267.857813 245 
Q 267.857813 247 269.857813 247 
z
" style="fill:#ffffff;opacity:0.8;stroke:#cccccc;stroke-linejoin:miter;"/>
    </g>
    <g id="line2d_16">
     <path d="M 271.857813 222.742188 
L 291.857813 222.742188 
" style="fill:none;stroke:#1f77b4;stroke-linecap:square;stroke-width:1.5;"/>
    </g>
    <g id="line2d_17"/>
    <g id="text_14">
     <!-- Share Female -->
     <defs>
      <path d="M 53.515625 70.515625 
L 53.515625 60.890625 
Q 47.90625 63.578125 42.921875 64.890625 
Q 37.9375 66.21875 33.296875 66.21875 
Q 25.25 66.21875 20.875 63.09375 
Q 16.5 59.96875 16.5 54.203125 
Q 16.5 49.359375 19.40625 46.890625 
Q 22.3125 44.4375 30.421875 42.921875 
L 36.375 41.703125 
Q 47.40625 39.59375 52.65625 34.296875 
Q 57.90625 29 57.90625 20.125 
Q 57.90625 9.515625 50.796875 4.046875 
Q 43.703125 -1.421875 29.984375 -1.421875 
Q 24.8125 -1.421875 18.96875 -0.25 
Q 13.140625 0.921875 6.890625 3.21875 
L 6.890625 13.375 
Q 12.890625 10.015625 18.65625 8.296875 
Q 24.421875 6.59375 29.984375 6.59375 
Q 38.421875 6.59375 43.015625 9.90625 
Q 47.609375 13.234375 47.609375 19.390625 
Q 47.609375 24.75 44.3125 27.78125 
Q 41.015625 30.8125 33.5 32.328125 
L 27.484375 33.5 
Q 16.453125 35.6875 11.515625 40.375 
Q 6.59375 45.0625 6.59375 53.421875 
Q 6.59375 63.09375 13.40625 68.65625 
Q 20.21875 74.21875 32.171875 74.21875 
Q 37.3125 74.21875 42.625 73.28125 
Q 47.953125 72.359375 53.515625 70.515625 
z
" id="DejaVuSans-53"/>
      <path d="M 54.890625 33.015625 
L 54.890625 0 
L 45.90625 0 
L 45.90625 32.71875 
Q 45.90625 40.484375 42.875 44.328125 
Q 39.84375 48.1875 33.796875 48.1875 
Q 26.515625 48.1875 22.3125 43.546875 
Q 18.109375 38.921875 18.109375 30.90625 
L 18.109375 0 
L 9.078125 0 
L 9.078125 75.984375 
L 18.109375 75.984375 
L 18.109375 46.1875 
Q 21.34375 51.125 25.703125 53.5625 
Q 30.078125 56 35.796875 56 
Q 45.21875 56 50.046875 50.171875 
Q 54.890625 44.34375 54.890625 33.015625 
z
" id="DejaVuSans-68"/>
      <path d="M 34.28125 27.484375 
Q 23.390625 27.484375 19.1875 25 
Q 14.984375 22.515625 14.984375 16.5 
Q 14.984375 11.71875 18.140625 8.90625 
Q 21.296875 6.109375 26.703125 6.109375 
Q 34.1875 6.109375 38.703125 11.40625 
Q 43.21875 16.703125 43.21875 25.484375 
L 43.21875 27.484375 
z
M 52.203125 31.203125 
L 52.203125 0 
L 43.21875 0 
L 43.21875 8.296875 
Q 40.140625 3.328125 35.546875 0.953125 
Q 30.953125 -1.421875 24.3125 -1.421875 
Q 15.921875 -1.421875 10.953125 3.296875 
Q 6 8.015625 6 15.921875 
Q 6 25.140625 12.171875 29.828125 
Q 18.359375 34.515625 30.609375 34.515625 
L 43.21875 34.515625 
L 43.21875 35.40625 
Q 43.21875 41.609375 39.140625 45 
Q 35.0625 48.390625 27.6875 48.390625 
Q 23 48.390625 18.546875 47.265625 
Q 14.109375 46.140625 10.015625 43.890625 
L 10.015625 52.203125 
Q 14.9375 54.109375 19.578125 55.046875 
Q 24.21875 56 28.609375 56 
Q 40.484375 56 46.34375 49.84375 
Q 52.203125 43.703125 52.203125 31.203125 
z
" id="DejaVuSans-61"/>
      <path d="M 41.109375 46.296875 
Q 39.59375 47.171875 37.8125 47.578125 
Q 36.03125 48 33.890625 48 
Q 26.265625 48 22.1875 43.046875 
Q 18.109375 38.09375 18.109375 28.8125 
L 18.109375 0 
L 9.078125 0 
L 9.078125 54.6875 
L 18.109375 54.6875 
L 18.109375 46.1875 
Q 20.953125 51.171875 25.484375 53.578125 
Q 30.03125 56 36.53125 56 
Q 37.453125 56 38.578125 55.875 
Q 39.703125 55.765625 41.0625 55.515625 
z
" id="DejaVuSans-72"/>
      <path d="M 56.203125 29.59375 
L 56.203125 25.203125 
L 14.890625 25.203125 
Q 15.484375 15.921875 20.484375 11.0625 
Q 25.484375 6.203125 34.421875 6.203125 
Q 39.59375 6.203125 44.453125 7.46875 
Q 49.3125 8.734375 54.109375 11.28125 
L 54.109375 2.78125 
Q 49.265625 0.734375 44.1875 -0.34375 
Q 39.109375 -1.421875 33.890625 -1.421875 
Q 20.796875 -1.421875 13.15625 6.1875 
Q 5.515625 13.8125 5.515625 26.8125 
Q 5.515625 40.234375 12.765625 48.109375 
Q 20.015625 56 32.328125 56 
Q 43.359375 56 49.78125 48.890625 
Q 56.203125 41.796875 56.203125 29.59375 
z
M 47.21875 32.234375 
Q 47.125 39.59375 43.09375 43.984375 
Q 39.0625 48.390625 32.421875 48.390625 
Q 24.90625 48.390625 20.390625 44.140625 
Q 15.875 39.890625 15.1875 32.171875 
z
" id="DejaVuSans-65"/>
      <path id="DejaVuSans-20"/>
      <path d="M 9.8125 72.90625 
L 51.703125 72.90625 
L 51.703125 64.59375 
L 19.671875 64.59375 
L 19.671875 43.109375 
L 48.578125 43.109375 
L 48.578125 34.8125 
L 19.671875 34.8125 
L 19.671875 0 
L 9.8125 0 
z
" id="DejaVuSans-46"/>
      <path d="M 52 44.1875 
Q 55.375 50.25 60.0625 53.125 
Q 64.75 56 71.09375 56 
Q 79.640625 56 84.28125 50.015625 
Q 88.921875 44.046875 88.921875 33.015625 
L 88.921875 0 
L 79.890625 0 
L 79.890625 32.71875 
Q 79.890625 40.578125 77.09375 44.375 
Q 74.3125 48.1875 68.609375 48.1875 
Q 61.625 48.1875 57.5625 43.546875 
Q 53.515625 38.921875 53.515625 30.90625 
L 53.515625 0 
L 44.484375 0 
L 44.484375 32.71875 
Q 44.484375 40.625 41.703125 44.40625 
Q 38.921875 48.1875 33.109375 48.1875 
Q 26.21875 48.1875 22.15625 43.53125 
Q 18.109375 38.875 18.109375 30.90625 
L 18.109375 0 
L 9.078125 0 
L 9.078125 54.6875 
L 18.109375 54.6875 
L 18.109375 46.1875 
Q 21.1875 51.21875 25.484375 53.609375 
Q 29.78125 56 35.6875 56 
Q 41.65625 56 45.828125 52.96875 
Q 50 49.953125 52 44.1875 
z
" id="DejaVuSans-6d"/>
      <path d="M 9.421875 75.984375 
L 18.40625 75.984375 
L 18.40625 0 
L 9.421875 0 
z
" id="DejaVuSans-6c"/>
     </defs>
     <g transform="translate(299.857813 226.242188)scale(0.1 -0.1)">
      <use xlink:href="#DejaVuSans-53"/>
      <use x="63.476562" xlink:href="#DejaVuSans-68"/>
      <use x="126.855469" xlink:href="#DejaVuSans-61"/>
      <use x="188.134766" xlink:href="#DejaVuSans-72"/>
      <use x="229.216797" xlink:href="#DejaVuSans-65"/>
      <use x="290.740234" xlink:href="#DejaVuSans-20"/>
      <use x="322.527344" xlink:href="#DejaVuSans-46"/>
      <use x="379.96875" xlink:href="#DejaVuSans-65"/>
      <use x="441.492188" xlink:href="#DejaVuSans-6d"/>
      <use x="538.904297" xlink:href="#DejaVuSans-61"/>
      <use x="600.183594" xlink:href="#DejaVuSans-6c"/>
      <use x="627.966797" xlink:href="#DejaVuSans-65"/>
     </g>
    </g>
    <g id="line2d_18">
     <path d="M 271.857813 237.420312 
L 291.857813 237.420312 
" style="fill:none;stroke:#ff7f0e;stroke-linecap:square;stroke-width:1.5;"/>
    </g>
    <g id="line2d_19"/>
    <g id="text_15">
     <!-- Share Left Wing -->
     <defs>
      <path d="M 9.8125 72.90625 
L 19.671875 72.90625 
L 19.671875 8.296875 
L 55.171875 8.296875 
L 55.171875 0 
L 9.8125 0 
z
" id="DejaVuSans-4c"/>
      <path d="M 37.109375 75.984375 
L 37.109375 68.5 
L 28.515625 68.5 
Q 23.6875 68.5 21.796875 66.546875 
Q 19.921875 64.59375 19.921875 59.515625 
L 19.921875 54.6875 
L 34.71875 54.6875 
L 34.71875 47.703125 
L 19.921875 47.703125 
L 19.921875 0 
L 10.890625 0 
L 10.890625 47.703125 
L 2.296875 47.703125 
L 2.296875 54.6875 
L 10.890625 54.6875 
L 10.890625 58.5 
Q 10.890625 67.625 15.140625 71.796875 
Q 19.390625 75.984375 28.609375 75.984375 
z
" id="DejaVuSans-66"/>
      <path d="M 18.3125 70.21875 
L 18.3125 54.6875 
L 36.8125 54.6875 
L 36.8125 47.703125 
L 18.3125 47.703125 
L 18.3125 18.015625 
Q 18.3125 11.328125 20.140625 9.421875 
Q 21.96875 7.515625 27.59375 7.515625 
L 36.8125 7.515625 
L 36.8125 0 
L 27.59375 0 
Q 17.1875 0 13.234375 3.875 
Q 9.28125 7.765625 9.28125 18.015625 
L 9.28125 47.703125 
L 2.6875 47.703125 
L 2.6875 54.6875 
L 9.28125 54.6875 
L 9.28125 70.21875 
z
" id="DejaVuSans-74"/>
      <path d="M 3.328125 72.90625 
L 13.28125 72.90625 
L 28.609375 11.28125 
L 43.890625 72.90625 
L 54.984375 72.90625 
L 70.3125 11.28125 
L 85.59375 72.90625 
L 95.609375 72.90625 
L 77.296875 0 
L 64.890625 0 
L 49.515625 63.28125 
L 33.984375 0 
L 21.578125 0 
z
" id="DejaVuSans-57"/>
      <path d="M 9.421875 54.6875 
L 18.40625 54.6875 
L 18.40625 0 
L 9.421875 0 
z
M 9.421875 75.984375 
L 18.40625 75.984375 
L 18.40625 64.59375 
L 9.421875 64.59375 
z
" id="DejaVuSans-69"/>
      <path d="M 54.890625 33.015625 
L 54.890625 0 
L 45.90625 0 
L 45.90625 32.71875 
Q 45.90625 40.484375 42.875 44.328125 
Q 39.84375 48.1875 33.796875 48.1875 
Q 26.515625 48.1875 22.3125 43.546875 
Q 18.109375 38.921875 18.109375 30.90625 
L 18.109375 0 
L 9.078125 0 
L 9.078125 54.6875 
L 18.109375 54.6875 
L 18.109375 46.1875 
Q 21.34375 51.125 25.703125 53.5625 
Q 30.078125 56 35.796875 56 
Q 45.21875 56 50.046875 50.171875 
Q 54.890625 44.34375 54.890625 33.015625 
z
" id="DejaVuSans-6e"/>
      <path d="M 45.40625 27.984375 
Q 45.40625 37.75 41.375 43.109375 
Q 37.359375 48.484375 30.078125 48.484375 
Q 22.859375 48.484375 18.828125 43.109375 
Q 14.796875 37.75 14.796875 27.984375 
Q 14.796875 18.265625 18.828125 12.890625 
Q 22.859375 7.515625 30.078125 7.515625 
Q 37.359375 7.515625 41.375 12.890625 
Q 45.40625 18.265625 45.40625 27.984375 
z
M 54.390625 6.78125 
Q 54.390625 -7.171875 48.1875 -13.984375 
Q 42 -20.796875 29.203125 -20.796875 
Q 24.46875 -20.796875 20.265625 -20.09375 
Q 16.0625 -19.390625 12.109375 -17.921875 
L 12.109375 -9.1875 
Q 16.0625 -11.328125 19.921875 -12.34375 
Q 23.78125 -13.375 27.78125 -13.375 
Q 36.625 -13.375 41.015625 -8.765625 
Q 45.40625 -4.15625 45.40625 5.171875 
L 45.40625 9.625 
Q 42.625 4.78125 38.28125 2.390625 
Q 33.9375 0 27.875 0 
Q 17.828125 0 11.671875 7.65625 
Q 5.515625 15.328125 5.515625 27.984375 
Q 5.515625 40.671875 11.671875 48.328125 
Q 17.828125 56 27.875 56 
Q 33.9375 56 38.28125 53.609375 
Q 42.625 51.21875 45.40625 46.390625 
L 45.40625 54.6875 
L 54.390625 54.6875 
z
" id="DejaVuSans-67"/>
     </defs>
     <g transform="translate(299.857813 240.920312)scale(0.1 -0.1)">
      <use xlink:href="#DejaVuSans-53"/>
      <use x="63.476562" xlink:href="#DejaVuSans-68"/>
      <use x="126.855469" xlink:href="#DejaVuSans-61"/>
      <use x="188.134766" xlink:href="#DejaVuSans-72"/>
      <use x="229.216797" xlink:href="#DejaVuSans-65"/>
      <use x="290.740234" xlink:href="#DejaVuSans-20"/>
      <use x="322.527344" xlink:href="#DejaVuSans-4c"/>
      <use x="378.224609" xlink:href="#DejaVuSans-65"/>
      <use x="439.748047" xlink:href="#DejaVuSans-66"/>
      <use x="474.9375" xlink:href="#DejaVuSans-74"/>
      <use x="514.146484" xlink:href="#DejaVuSans-20"/>
      <use x="545.933594" xlink:href="#DejaVuSans-57"/>
      <use x="644.779297" xlink:href="#DejaVuSans-69"/>
      <use x="672.5625" xlink:href="#DejaVuSans-6e"/>
      <use x="735.941406" xlink:href="#DejaVuSans-67"/>
     </g>
    </g>
   </g>
  </g>
 </g>
 <defs>
  <clipPath id="pe940513d22">
   <rect height="217.44" width="334.8" x="54" y="34.56"/>
  </clipPath>
 </defs>
</svg>
