<?xml version="1.0" encoding="utf-8" standalone="no"?>
<!DOCTYPE svg PUBLIC "-//W3C//DTD SVG 1.1//EN"
  "http://www.w3.org/Graphics/SVG/1.1/DTD/svg11.dtd">
<!-- Created with matplotlib (http://matplotlib.org/) -->
<svg height="288pt" version="1.1" viewBox="0 0 432 288" width="432pt" xmlns="http://www.w3.org/2000/svg" xmlns:xlink="http://www.w3.org/1999/xlink">
 <defs>
  <style type="text/css">
*{stroke-linecap:butt;stroke-linejoin:round;}
  </style>
 </defs>
 <g id="figure_1">
  <g id="patch_1">
   <path d="M 0 288 
L 432 288 
L 432 0 
L 0 0 
z
" style="fill:#ffffff;"/>
  </g>
  <g id="axes_1">
   <g id="patch_2">
    <path d="M 54 252 
L 388.8 252 
L 388.8 34.56 
L 54 34.56 
z
" style="fill:#ffffff;"/>
   </g>
   <g id="matplotlib.axis_1">
    <g id="xtick_1">
     <g id="line2d_1">
      <defs>
       <path d="M 0 0 
L 0 3.5 
" id="m03f8c447b4" style="stroke:#000000;stroke-width:0.8;"/>
      </defs>
      <g>
       <use style="stroke:#000000;stroke-width:0.8;" x="63.957576" xlink:href="#m03f8c447b4" y="252"/>
      </g>
     </g>
     <g id="text_1">
      <!-- 0 -->
      <defs>
       <path d="M 31.78125 66.40625 
Q 24.171875 66.40625 20.328125 58.90625 
Q 16.5 51.421875 16.5 36.375 
Q 16.5 21.390625 20.328125 13.890625 
Q 24.171875 6.390625 31.78125 6.390625 
Q 39.453125 6.390625 43.28125 13.890625 
Q 47.125 21.390625 47.125 36.375 
Q 47.125 51.421875 43.28125 58.90625 
Q 39.453125 66.40625 31.78125 66.40625 
z
M 31.78125 74.21875 
Q 44.046875 74.21875 50.515625 64.515625 
Q 56.984375 54.828125 56.984375 36.375 
Q 56.984375 17.96875 50.515625 8.265625 
Q 44.046875 -1.421875 31.78125 -1.421875 
Q 19.53125 -1.421875 13.0625 8.265625 
Q 6.59375 17.96875 6.59375 36.375 
Q 6.59375 54.828125 13.0625 64.515625 
Q 19.53125 74.21875 31.78125 74.21875 
z
" id="DejaVuSans-30"/>
      </defs>
      <g transform="translate(60.776326 266.598437)scale(0.1 -0.1)">
       <use xlink:href="#DejaVuSans-30"/>
      </g>
     </g>
    </g>
    <g id="xtick_2">
     <g id="line2d_2">
      <g>
       <use style="stroke:#000000;stroke-width:0.8;" x="101.533333" xlink:href="#m03f8c447b4" y="252"/>
      </g>
     </g>
     <g id="text_2">
      <!-- 50 -->
      <defs>
       <path d="M 10.796875 72.90625 
L 49.515625 72.90625 
L 49.515625 64.59375 
L 19.828125 64.59375 
L 19.828125 46.734375 
Q 21.96875 47.46875 24.109375 47.828125 
Q 26.265625 48.1875 28.421875 48.1875 
Q 40.625 48.1875 47.75 41.5 
Q 54.890625 34.8125 54.890625 23.390625 
Q 54.890625 11.625 47.5625 5.09375 
Q 40.234375 -1.421875 26.90625 -1.421875 
Q 22.3125 -1.421875 17.546875 -0.640625 
Q 12.796875 0.140625 7.71875 1.703125 
L 7.71875 11.625 
Q 12.109375 9.234375 16.796875 8.0625 
Q 21.484375 6.890625 26.703125 6.890625 
Q 35.15625 6.890625 40.078125 11.328125 
Q 45.015625 15.765625 45.015625 23.390625 
Q 45.015625 31 40.078125 35.4375 
Q 35.15625 39.890625 26.703125 39.890625 
Q 22.75 39.890625 18.8125 39.015625 
Q 14.890625 38.140625 10.796875 36.28125 
z
" id="DejaVuSans-35"/>
      </defs>
      <g transform="translate(95.170833 266.598437)scale(0.1 -0.1)">
       <use xlink:href="#DejaVuSans-35"/>
       <use x="63.623047" xlink:href="#DejaVuSans-30"/>
      </g>
     </g>
    </g>
    <g id="xtick_3">
     <g id="line2d_3">
      <g>
       <use style="stroke:#000000;stroke-width:0.8;" x="139.109091" xlink:href="#m03f8c447b4" y="252"/>
      </g>
     </g>
     <g id="text_3">
      <!-- 100 -->
      <defs>
       <path d="M 12.40625 8.296875 
L 28.515625 8.296875 
L 28.515625 63.921875 
L 10.984375 60.40625 
L 10.984375 69.390625 
L 28.421875 72.90625 
L 38.28125 72.90625 
L 38.28125 8.296875 
L 54.390625 8.296875 
L 54.390625 0 
L 12.40625 0 
z
" id="DejaVuSans-31"/>
      </defs>
      <g transform="translate(129.565341 266.598437)scale(0.1 -0.1)">
       <use xlink:href="#DejaVuSans-31"/>
       <use x="63.623047" xlink:href="#DejaVuSans-30"/>
       <use x="127.246094" xlink:href="#DejaVuSans-30"/>
      </g>
     </g>
    </g>
    <g id="xtick_4">
     <g id="line2d_4">
      <g>
       <use style="stroke:#000000;stroke-width:0.8;" x="176.684848" xlink:href="#m03f8c447b4" y="252"/>
      </g>
     </g>
     <g id="text_4">
      <!-- 150 -->
      <g transform="translate(167.141098 266.598437)scale(0.1 -0.1)">
       <use xlink:href="#DejaVuSans-31"/>
       <use x="63.623047" xlink:href="#DejaVuSans-35"/>
       <use x="127.246094" xlink:href="#DejaVuSans-30"/>
      </g>
     </g>
    </g>
    <g id="xtick_5">
     <g id="line2d_5">
      <g>
       <use style="stroke:#000000;stroke-width:0.8;" x="214.260606" xlink:href="#m03f8c447b4" y="252"/>
      </g>
     </g>
     <g id="text_5">
      <!-- 200 -->
      <defs>
       <path d="M 19.1875 8.296875 
L 53.609375 8.296875 
L 53.609375 0 
L 7.328125 0 
L 7.328125 8.296875 
Q 12.9375 14.109375 22.625 23.890625 
Q 32.328125 33.6875 34.8125 36.53125 
Q 39.546875 41.84375 41.421875 45.53125 
Q 43.3125 49.21875 43.3125 52.78125 
Q 43.3125 58.59375 39.234375 62.25 
Q 35.15625 65.921875 28.609375 65.921875 
Q 23.96875 65.921875 18.8125 64.3125 
Q 13.671875 62.703125 7.8125 59.421875 
L 7.8125 69.390625 
Q 13.765625 71.78125 18.9375 73 
Q 24.125 74.21875 28.421875 74.21875 
Q 39.75 74.21875 46.484375 68.546875 
Q 53.21875 62.890625 53.21875 53.421875 
Q 53.21875 48.921875 51.53125 44.890625 
Q 49.859375 40.875 45.40625 35.40625 
Q 44.1875 33.984375 37.640625 27.21875 
Q 31.109375 20.453125 19.1875 8.296875 
z
" id="DejaVuSans-32"/>
      </defs>
      <g transform="translate(204.716856 266.598437)scale(0.1 -0.1)">
       <use xlink:href="#DejaVuSans-32"/>
       <use x="63.623047" xlink:href="#DejaVuSans-30"/>
       <use x="127.246094" xlink:href="#DejaVuSans-30"/>
      </g>
     </g>
    </g>
    <g id="xtick_6">
     <g id="line2d_6">
      <g>
       <use style="stroke:#000000;stroke-width:0.8;" x="251.836364" xlink:href="#m03f8c447b4" y="252"/>
      </g>
     </g>
     <g id="text_6">
      <!-- 250 -->
      <g transform="translate(242.292614 266.598437)scale(0.1 -0.1)">
       <use xlink:href="#DejaVuSans-32"/>
       <use x="63.623047" xlink:href="#DejaVuSans-35"/>
       <use x="127.246094" xlink:href="#DejaVuSans-30"/>
      </g>
     </g>
    </g>
    <g id="xtick_7">
     <g id="line2d_7">
      <g>
       <use style="stroke:#000000;stroke-width:0.8;" x="289.412121" xlink:href="#m03f8c447b4" y="252"/>
      </g>
     </g>
     <g id="text_7">
      <!-- 300 -->
      <defs>
       <path d="M 40.578125 39.3125 
Q 47.65625 37.796875 51.625 33 
Q 55.609375 28.21875 55.609375 21.1875 
Q 55.609375 10.40625 48.1875 4.484375 
Q 40.765625 -1.421875 27.09375 -1.421875 
Q 22.515625 -1.421875 17.65625 -0.515625 
Q 12.796875 0.390625 7.625 2.203125 
L 7.625 11.71875 
Q 11.71875 9.328125 16.59375 8.109375 
Q 21.484375 6.890625 26.8125 6.890625 
Q 36.078125 6.890625 40.9375 10.546875 
Q 45.796875 14.203125 45.796875 21.1875 
Q 45.796875 27.640625 41.28125 31.265625 
Q 36.765625 34.90625 28.71875 34.90625 
L 20.21875 34.90625 
L 20.21875 43.015625 
L 29.109375 43.015625 
Q 36.375 43.015625 40.234375 45.921875 
Q 44.09375 48.828125 44.09375 54.296875 
Q 44.09375 59.90625 40.109375 62.90625 
Q 36.140625 65.921875 28.71875 65.921875 
Q 24.65625 65.921875 20.015625 65.03125 
Q 15.375 64.15625 9.8125 62.3125 
L 9.8125 71.09375 
Q 15.4375 72.65625 20.34375 73.4375 
Q 25.25 74.21875 29.59375 74.21875 
Q 40.828125 74.21875 47.359375 69.109375 
Q 53.90625 64.015625 53.90625 55.328125 
Q 53.90625 49.265625 50.4375 45.09375 
Q 46.96875 40.921875 40.578125 39.3125 
z
" id="DejaVuSans-33"/>
      </defs>
      <g transform="translate(279.868371 266.598437)scale(0.1 -0.1)">
       <use xlink:href="#DejaVuSans-33"/>
       <use x="63.623047" xlink:href="#DejaVuSans-30"/>
       <use x="127.246094" xlink:href="#DejaVuSans-30"/>
      </g>
     </g>
    </g>
    <g id="xtick_8">
     <g id="line2d_8">
      <g>
       <use style="stroke:#000000;stroke-width:0.8;" x="326.987879" xlink:href="#m03f8c447b4" y="252"/>
      </g>
     </g>
     <g id="text_8">
      <!-- 350 -->
      <g transform="translate(317.444129 266.598437)scale(0.1 -0.1)">
       <use xlink:href="#DejaVuSans-33"/>
       <use x="63.623047" xlink:href="#DejaVuSans-35"/>
       <use x="127.246094" xlink:href="#DejaVuSans-30"/>
      </g>
     </g>
    </g>
    <g id="xtick_9">
     <g id="line2d_9">
      <g>
       <use style="stroke:#000000;stroke-width:0.8;" x="364.563636" xlink:href="#m03f8c447b4" y="252"/>
      </g>
     </g>
     <g id="text_9">
      <!-- 400 -->
      <defs>
       <path d="M 37.796875 64.3125 
L 12.890625 25.390625 
L 37.796875 25.390625 
z
M 35.203125 72.90625 
L 47.609375 72.90625 
L 47.609375 25.390625 
L 58.015625 25.390625 
L 58.015625 17.1875 
L 47.609375 17.1875 
L 47.609375 0 
L 37.796875 0 
L 37.796875 17.1875 
L 4.890625 17.1875 
L 4.890625 26.703125 
z
" id="DejaVuSans-34"/>
      </defs>
      <g transform="translate(355.019886 266.598437)scale(0.1 -0.1)">
       <use xlink:href="#DejaVuSans-34"/>
       <use x="63.623047" xlink:href="#DejaVuSans-30"/>
       <use x="127.246094" xlink:href="#DejaVuSans-30"/>
      </g>
     </g>
    </g>
   </g>
   <g id="matplotlib.axis_2">
    <g id="ytick_1">
     <g id="line2d_10">
      <defs>
       <path d="M 0 0 
L -3.5 0 
" id="mb69926dc06" style="stroke:#000000;stroke-width:0.8;"/>
      </defs>
      <g>
       <use style="stroke:#000000;stroke-width:0.8;" x="54" xlink:href="#mb69926dc06" y="246.34481"/>
      </g>
     </g>
     <g id="text_10">
      <!-- $\mathdefault{10^{-1}}$ -->
      <defs>
       <path d="M 10.59375 35.5 
L 73.1875 35.5 
L 73.1875 27.203125 
L 10.59375 27.203125 
z
" id="DejaVuSans-2212"/>
      </defs>
      <g transform="translate(23.5 250.144029)scale(0.1 -0.1)">
       <use transform="translate(0 0.684375)" xlink:href="#DejaVuSans-31"/>
       <use transform="translate(63.623047 0.684375)" xlink:href="#DejaVuSans-30"/>
       <use transform="translate(128.203125 38.965625)scale(0.7)" xlink:href="#DejaVuSans-2212"/>
       <use transform="translate(186.855469 38.965625)scale(0.7)" xlink:href="#DejaVuSans-31"/>
      </g>
     </g>
    </g>
    <g id="ytick_2">
     <g id="line2d_11">
      <g>
       <use style="stroke:#000000;stroke-width:0.8;" x="54" xlink:href="#mb69926dc06" y="202.712097"/>
      </g>
     </g>
     <g id="text_11">
      <!-- $\mathdefault{10^{0}}$ -->
      <g transform="translate(29.4 206.511316)scale(0.1 -0.1)">
       <use transform="translate(0 0.765625)" xlink:href="#DejaVuSans-31"/>
       <use transform="translate(63.623047 0.765625)" xlink:href="#DejaVuSans-30"/>
       <use transform="translate(128.203125 39.046875)scale(0.7)" xlink:href="#DejaVuSans-30"/>
      </g>
     </g>
    </g>
    <g id="ytick_3">
     <g id="line2d_12">
      <g>
       <use style="stroke:#000000;stroke-width:0.8;" x="54" xlink:href="#mb69926dc06" y="159.079384"/>
      </g>
     </g>
     <g id="text_12">
      <!-- $\mathdefault{10^{1}}$ -->
      <g transform="translate(29.4 162.878603)scale(0.1 -0.1)">
       <use transform="translate(0 0.684375)" xlink:href="#DejaVuSans-31"/>
       <use transform="translate(63.623047 0.684375)" xlink:href="#DejaVuSans-30"/>
       <use transform="translate(128.203125 38.965625)scale(0.7)" xlink:href="#DejaVuSans-31"/>
      </g>
     </g>
    </g>
    <g id="ytick_4">
     <g id="line2d_13">
      <g>
       <use style="stroke:#000000;stroke-width:0.8;" x="54" xlink:href="#mb69926dc06" y="115.446671"/>
      </g>
     </g>
     <g id="text_13">
      <!-- $\mathdefault{10^{2}}$ -->
      <g transform="translate(29.4 119.24589)scale(0.1 -0.1)">
       <use transform="translate(0 0.765625)" xlink:href="#DejaVuSans-31"/>
       <use transform="translate(63.623047 0.765625)" xlink:href="#DejaVuSans-30"/>
       <use transform="translate(128.203125 39.046875)scale(0.7)" xlink:href="#DejaVuSans-32"/>
      </g>
     </g>
    </g>
    <g id="ytick_5">
     <g id="line2d_14">
      <g>
       <use style="stroke:#000000;stroke-width:0.8;" x="54" xlink:href="#mb69926dc06" y="71.813959"/>
      </g>
     </g>
     <g id="text_14">
      <!-- $\mathdefault{10^{3}}$ -->
      <g transform="translate(29.4 75.613177)scale(0.1 -0.1)">
       <use transform="translate(0 0.765625)" xlink:href="#DejaVuSans-31"/>
       <use transform="translate(63.623047 0.765625)" xlink:href="#DejaVuSans-30"/>
       <use transform="translate(128.203125 39.046875)scale(0.7)" xlink:href="#DejaVuSans-33"/>
      </g>
     </g>
    </g>
    <g id="ytick_6">
     <g id="line2d_15">
      <defs>
       <path d="M 0 0 
L -2 0 
" id="md221a08bcb" style="stroke:#000000;stroke-width:0.6;"/>
      </defs>
      <g>
       <use style="stroke:#000000;stroke-width:0.6;" x="54" xlink:href="#md221a08bcb" y="250.573257"/>
      </g>
     </g>
    </g>
    <g id="ytick_7">
     <g id="line2d_16">
      <g>
       <use style="stroke:#000000;stroke-width:0.6;" x="54" xlink:href="#md221a08bcb" y="248.341334"/>
      </g>
     </g>
    </g>
    <g id="ytick_8">
     <g id="line2d_17">
      <g>
       <use style="stroke:#000000;stroke-width:0.6;" x="54" xlink:href="#md221a08bcb" y="233.210055"/>
      </g>
     </g>
    </g>
    <g id="ytick_9">
     <g id="line2d_18">
      <g>
       <use style="stroke:#000000;stroke-width:0.6;" x="54" xlink:href="#md221a08bcb" y="225.526716"/>
      </g>
     </g>
    </g>
    <g id="ytick_10">
     <g id="line2d_19">
      <g>
       <use style="stroke:#000000;stroke-width:0.6;" x="54" xlink:href="#md221a08bcb" y="220.0753"/>
      </g>
     </g>
    </g>
    <g id="ytick_11">
     <g id="line2d_20">
      <g>
       <use style="stroke:#000000;stroke-width:0.6;" x="54" xlink:href="#md221a08bcb" y="215.846853"/>
      </g>
     </g>
    </g>
    <g id="ytick_12">
     <g id="line2d_21">
      <g>
       <use style="stroke:#000000;stroke-width:0.6;" x="54" xlink:href="#md221a08bcb" y="212.39196"/>
      </g>
     </g>
    </g>
    <g id="ytick_13">
     <g id="line2d_22">
      <g>
       <use style="stroke:#000000;stroke-width:0.6;" x="54" xlink:href="#md221a08bcb" y="209.47089"/>
      </g>
     </g>
    </g>
    <g id="ytick_14">
     <g id="line2d_23">
      <g>
       <use style="stroke:#000000;stroke-width:0.6;" x="54" xlink:href="#md221a08bcb" y="206.940544"/>
      </g>
     </g>
    </g>
    <g id="ytick_15">
     <g id="line2d_24">
      <g>
       <use style="stroke:#000000;stroke-width:0.6;" x="54" xlink:href="#md221a08bcb" y="204.708621"/>
      </g>
     </g>
    </g>
    <g id="ytick_16">
     <g id="line2d_25">
      <g>
       <use style="stroke:#000000;stroke-width:0.6;" x="54" xlink:href="#md221a08bcb" y="189.577342"/>
      </g>
     </g>
    </g>
    <g id="ytick_17">
     <g id="line2d_26">
      <g>
       <use style="stroke:#000000;stroke-width:0.6;" x="54" xlink:href="#md221a08bcb" y="181.894003"/>
      </g>
     </g>
    </g>
    <g id="ytick_18">
     <g id="line2d_27">
      <g>
       <use style="stroke:#000000;stroke-width:0.6;" x="54" xlink:href="#md221a08bcb" y="176.442587"/>
      </g>
     </g>
    </g>
    <g id="ytick_19">
     <g id="line2d_28">
      <g>
       <use style="stroke:#000000;stroke-width:0.6;" x="54" xlink:href="#md221a08bcb" y="172.21414"/>
      </g>
     </g>
    </g>
    <g id="ytick_20">
     <g id="line2d_29">
      <g>
       <use style="stroke:#000000;stroke-width:0.6;" x="54" xlink:href="#md221a08bcb" y="168.759247"/>
      </g>
     </g>
    </g>
    <g id="ytick_21">
     <g id="line2d_30">
      <g>
       <use style="stroke:#000000;stroke-width:0.6;" x="54" xlink:href="#md221a08bcb" y="165.838177"/>
      </g>
     </g>
    </g>
    <g id="ytick_22">
     <g id="line2d_31">
      <g>
       <use style="stroke:#000000;stroke-width:0.6;" x="54" xlink:href="#md221a08bcb" y="163.307831"/>
      </g>
     </g>
    </g>
    <g id="ytick_23">
     <g id="line2d_32">
      <g>
       <use style="stroke:#000000;stroke-width:0.6;" x="54" xlink:href="#md221a08bcb" y="161.075908"/>
      </g>
     </g>
    </g>
    <g id="ytick_24">
     <g id="line2d_33">
      <g>
       <use style="stroke:#000000;stroke-width:0.6;" x="54" xlink:href="#md221a08bcb" y="145.944629"/>
      </g>
     </g>
    </g>
    <g id="ytick_25">
     <g id="line2d_34">
      <g>
       <use style="stroke:#000000;stroke-width:0.6;" x="54" xlink:href="#md221a08bcb" y="138.26129"/>
      </g>
     </g>
    </g>
    <g id="ytick_26">
     <g id="line2d_35">
      <g>
       <use style="stroke:#000000;stroke-width:0.6;" x="54" xlink:href="#md221a08bcb" y="132.809874"/>
      </g>
     </g>
    </g>
    <g id="ytick_27">
     <g id="line2d_36">
      <g>
       <use style="stroke:#000000;stroke-width:0.6;" x="54" xlink:href="#md221a08bcb" y="128.581427"/>
      </g>
     </g>
    </g>
    <g id="ytick_28">
     <g id="line2d_37">
      <g>
       <use style="stroke:#000000;stroke-width:0.6;" x="54" xlink:href="#md221a08bcb" y="125.126534"/>
      </g>
     </g>
    </g>
    <g id="ytick_29">
     <g id="line2d_38">
      <g>
       <use style="stroke:#000000;stroke-width:0.6;" x="54" xlink:href="#md221a08bcb" y="122.205464"/>
      </g>
     </g>
    </g>
    <g id="ytick_30">
     <g id="line2d_39">
      <g>
       <use style="stroke:#000000;stroke-width:0.6;" x="54" xlink:href="#md221a08bcb" y="119.675118"/>
      </g>
     </g>
    </g>
    <g id="ytick_31">
     <g id="line2d_40">
      <g>
       <use style="stroke:#000000;stroke-width:0.6;" x="54" xlink:href="#md221a08bcb" y="117.443195"/>
      </g>
     </g>
    </g>
    <g id="ytick_32">
     <g id="line2d_41">
      <g>
       <use style="stroke:#000000;stroke-width:0.6;" x="54" xlink:href="#md221a08bcb" y="102.311916"/>
      </g>
     </g>
    </g>
    <g id="ytick_33">
     <g id="line2d_42">
      <g>
       <use style="stroke:#000000;stroke-width:0.6;" x="54" xlink:href="#md221a08bcb" y="94.628577"/>
      </g>
     </g>
    </g>
    <g id="ytick_34">
     <g id="line2d_43">
      <g>
       <use style="stroke:#000000;stroke-width:0.6;" x="54" xlink:href="#md221a08bcb" y="89.177161"/>
      </g>
     </g>
    </g>
    <g id="ytick_35">
     <g id="line2d_44">
      <g>
       <use style="stroke:#000000;stroke-width:0.6;" x="54" xlink:href="#md221a08bcb" y="84.948714"/>
      </g>
     </g>
    </g>
    <g id="ytick_36">
     <g id="line2d_45">
      <g>
       <use style="stroke:#000000;stroke-width:0.6;" x="54" xlink:href="#md221a08bcb" y="81.493821"/>
      </g>
     </g>
    </g>
    <g id="ytick_37">
     <g id="line2d_46">
      <g>
       <use style="stroke:#000000;stroke-width:0.6;" x="54" xlink:href="#md221a08bcb" y="78.572751"/>
      </g>
     </g>
    </g>
    <g id="ytick_38">
     <g id="line2d_47">
      <g>
       <use style="stroke:#000000;stroke-width:0.6;" x="54" xlink:href="#md221a08bcb" y="76.042405"/>
      </g>
     </g>
    </g>
    <g id="ytick_39">
     <g id="line2d_48">
      <g>
       <use style="stroke:#000000;stroke-width:0.6;" x="54" xlink:href="#md221a08bcb" y="73.810482"/>
      </g>
     </g>
    </g>
    <g id="ytick_40">
     <g id="line2d_49">
      <g>
       <use style="stroke:#000000;stroke-width:0.6;" x="54" xlink:href="#md221a08bcb" y="58.679203"/>
      </g>
     </g>
    </g>
    <g id="ytick_41">
     <g id="line2d_50">
      <g>
       <use style="stroke:#000000;stroke-width:0.6;" x="54" xlink:href="#md221a08bcb" y="50.995864"/>
      </g>
     </g>
    </g>
    <g id="ytick_42">
     <g id="line2d_51">
      <g>
       <use style="stroke:#000000;stroke-width:0.6;" x="54" xlink:href="#md221a08bcb" y="45.544448"/>
      </g>
     </g>
    </g>
    <g id="ytick_43">
     <g id="line2d_52">
      <g>
       <use style="stroke:#000000;stroke-width:0.6;" x="54" xlink:href="#md221a08bcb" y="41.316001"/>
      </g>
     </g>
    </g>
    <g id="ytick_44">
     <g id="line2d_53">
      <g>
       <use style="stroke:#000000;stroke-width:0.6;" x="54" xlink:href="#md221a08bcb" y="37.861108"/>
      </g>
     </g>
    </g>
    <g id="ytick_45">
     <g id="line2d_54">
      <g>
       <use style="stroke:#000000;stroke-width:0.6;" x="54" xlink:href="#md221a08bcb" y="34.940038"/>
      </g>
     </g>
    </g>
   </g>
   <g id="line2d_55">
    <path clip-path="url(#pdc7d8324d9)" d="M 69.218182 228.981608 
L 69.969697 242.116364 
L 70.721212 221.298269 
L 71.472727 228.981608 
L 72.224242 221.298269 
L 72.975758 215.846853 
L 74.478788 215.846853 
L 75.230303 211.618406 
L 75.981818 208.163513 
L 76.733333 215.846853 
L 77.484848 211.618406 
L 78.236364 215.846853 
L 78.987879 221.298269 
L 79.739394 215.846853 
L 80.490909 211.618406 
L 81.242424 211.618406 
L 81.993939 215.846853 
L 84.248485 215.846853 
L 85 211.618406 
L 85.751515 215.846853 
L 88.006061 215.846853 
L 88.757576 211.618406 
L 89.509091 211.618406 
L 90.260606 208.163513 
L 91.012121 211.618406 
L 91.763636 211.618406 
L 92.515152 215.846853 
L 94.769697 215.846853 
L 95.521212 221.298269 
L 96.272727 228.981608 
L 98.527273 228.981608 
L 99.278788 242.116364 
L 100.030303 242.116364 
L 100.031111 289 
M 101.532525 289 
L 101.533333 242.116364 
L 102.284848 242.116364 
L 103.036364 228.981608 
L 103.787879 221.298269 
L 105.290909 221.298269 
L 106.042424 211.618406 
L 106.793939 166.527324 
L 107.545455 152.873373 
L 108.29697 150.622491 
L 109.048485 150.173076 
L 109.8 150.173076 
L 110.551515 149.734073 
L 111.30303 149.58997 
L 112.054545 149.734073 
L 112.806061 158.154838 
L 113.557576 179.662079 
L 114.309091 193.511993 
L 115.060606 196.677576 
L 115.812121 198.483651 
L 116.563636 202.712097 
L 118.066667 202.712097 
L 118.818182 205.242443 
L 119.569697 208.163513 
L 120.321212 208.163513 
L 121.072727 211.618406 
L 121.824242 211.618406 
L 122.575758 215.846853 
L 124.078788 200.480174 
L 124.830303 202.712097 
L 125.581818 198.483651 
L 127.084848 198.483651 
L 127.836364 193.511993 
L 128.587879 190.800311 
L 129.339394 193.511993 
L 130.090909 196.677576 
L 130.842424 192.107688 
L 131.593939 195.028758 
L 132.345455 195.028758 
L 133.09697 196.677576 
L 133.848485 202.712097 
L 134.6 205.242443 
L 135.351515 208.163513 
L 136.10303 211.618406 
L 136.854545 228.981608 
L 138.357576 228.981608 
L 139.109091 221.298269 
L 139.860606 221.298269 
L 140.612121 228.981608 
L 141.363636 228.981608 
L 142.115152 242.116364 
L 142.866667 228.981608 
L 143.618182 221.298269 
L 148.127273 221.298269 
L 148.878788 228.981608 
L 149.630303 242.116364 
L 150.381818 221.298269 
L 153.387879 221.298269 
L 154.139394 215.846853 
L 154.890909 211.618406 
L 155.642424 211.618406 
L 156.393939 221.298269 
L 159.4 221.298269 
L 160.151515 228.981608 
L 160.90303 242.116364 
L 161.654545 242.116364 
L 162.406061 215.846853 
L 163.909091 215.846853 
L 164.660606 208.163513 
L 165.412121 198.483651 
L 166.163636 198.483651 
L 167.666667 195.028758 
L 168.418182 200.480174 
L 169.921212 200.480174 
L 170.672727 205.242443 
L 171.424242 215.846853 
L 172.175758 215.846853 
L 172.927273 221.298269 
L 173.678788 228.981608 
L 174.430303 228.981608 
L 175.181818 242.116364 
L 175.933333 242.116364 
L 176.684848 228.981608 
L 177.436364 228.981608 
L 178.187879 215.846853 
L 178.939394 208.163513 
L 179.690909 208.163513 
L 181.193939 196.677576 
L 181.945455 195.028758 
L 182.69697 196.677576 
L 183.448485 196.677576 
L 184.2 193.511993 
L 184.951515 196.677576 
L 185.70303 192.107688 
L 186.454545 192.107688 
L 187.206061 195.028758 
L 187.957576 192.107688 
L 188.709091 192.107688 
L 189.460606 188.428539 
L 190.212121 192.107688 
L 190.963636 192.107688 
L 191.715152 196.677576 
L 192.466667 200.480174 
L 193.218182 202.712097 
L 193.969697 211.618406 
L 194.721212 208.163513 
L 195.472727 208.163513 
L 196.224242 198.483651 
L 196.975758 195.028758 
L 197.727273 195.028758 
L 198.478788 185.348895 
L 199.230303 179.662079 
L 199.981818 177.665556 
L 200.733333 177.665556 
L 201.484848 178.307972 
L 202.987879 178.307972 
L 203.739394 170.408065 
L 204.490909 173.186119 
L 205.242424 174.210663 
L 205.993939 170.408065 
L 206.745455 169.565728 
L 207.49697 168.368523 
L 208.248485 169.565728 
L 209 169.158198 
L 209.751515 173.186119 
L 210.50303 174.210663 
L 211.254545 177.044207 
L 212.006061 182.700484 
L 212.757576 182.700484 
L 213.509091 187.345419 
L 214.260606 185.348895 
L 215.012121 188.428539 
L 215.763636 192.107688 
L 216.515152 190.800311 
L 217.266667 188.428539 
L 218.018182 184.424349 
L 219.521212 178.307972 
L 220.272727 179.662079 
L 221.024242 174.210663 
L 221.775758 173.186119 
L 222.527273 170.843703 
L 223.278788 171.289593 
L 224.781818 174.210663 
L 225.533333 173.186119 
L 226.284848 173.186119 
L 227.036364 178.307972 
L 227.787879 181.120448 
L 228.539394 182.700484 
L 229.290909 181.120448 
L 230.042424 183.54282 
L 230.793939 183.54282 
L 231.545455 188.428539 
L 232.29697 188.428539 
L 233.048485 187.345419 
L 233.8 184.424349 
L 234.551515 186.320875 
L 235.30303 189.577342 
L 236.054545 185.348895 
L 236.806061 185.348895 
L 237.557576 181.120448 
L 238.309091 180.377238 
L 239.060606 178.307972 
L 239.812121 179.662079 
L 240.563636 178.972933 
L 242.066667 176.442587 
L 242.818182 176.442587 
L 243.569697 177.665556 
L 244.321212 177.044207 
L 245.072727 178.972933 
L 245.824242 177.044207 
L 247.327273 178.307972 
L 249.581818 170.843703 
L 250.333333 166.527324 
L 251.084848 166.527324 
L 251.836364 167.985693 
L 252.587879 167.242482 
L 253.339394 166.88153 
L 254.090909 166.88153 
L 254.842424 166.527324 
L 255.593939 169.158198 
L 256.345455 173.186119 
L 257.09697 170.843703 
L 257.848485 166.179618 
L 258.6 165.838177 
L 259.351515 164.849286 
L 260.10303 167.242482 
L 260.854545 166.527324 
L 262.357576 167.242482 
L 263.860606 170.408065 
L 264.612121 171.289593 
L 265.363636 171.746229 
L 266.115152 170.408065 
L 266.866667 174.210663 
L 267.618182 172.21414 
L 268.369697 173.186119 
L 269.121212 172.693898 
L 269.872727 174.210663 
L 270.624242 163.909452 
L 271.375758 164.217579 
L 272.127273 166.527324 
L 272.878788 163.909452 
L 273.630303 162.724725 
L 274.381818 157.708948 
L 275.133333 156.638073 
L 275.884848 156.023442 
L 276.636364 158.38178 
L 277.387879 157.930581 
L 278.139394 155.822917 
L 278.890909 152.368025 
L 279.642424 152.703422 
L 280.393939 155.428123 
L 281.145455 156.226112 
L 281.89697 155.428123 
L 282.648485 158.154838 
L 283.4 156.226112 
L 284.151515 155.624492 
L 284.90303 161.882389 
L 285.654545 161.075908 
L 286.406061 160.814532 
L 287.157576 161.340939 
L 287.909091 162.159028 
L 288.660606 161.882389 
L 290.163636 168.759247 
L 290.915152 169.982217 
L 291.666667 175.293784 
L 292.418182 179.662079 
L 293.169697 175.859481 
L 293.921212 174.210663 
L 294.672727 175.859481 
L 295.424242 173.691468 
L 296.175758 172.693898 
L 296.927273 170.408065 
L 297.678788 167.242482 
L 298.430303 165.173216 
L 299.181818 166.88153 
L 299.933333 171.289593 
L 300.684848 171.746229 
L 301.436364 169.982217 
L 302.187879 170.408065 
L 302.939394 169.982217 
L 303.690909 167.985693 
L 304.442424 166.88153 
L 305.945455 157.930581 
L 306.69697 156.226112 
L 307.448485 155.233768 
L 308.2 151.396045 
L 308.951515 151.082824 
L 309.70303 149.87928 
L 310.454545 147.550428 
L 311.206061 146.424388 
L 311.957576 146.303304 
L 312.709091 145.020082 
L 313.460606 141.527629 
L 314.212121 142.195941 
L 314.963636 140.345746 
L 315.715152 136.671782 
L 317.969697 130.110039 
L 318.721212 129.753932 
L 319.472727 129.703601 
L 320.224242 127.566859 
L 320.975758 123.682792 
L 321.727273 122.512483 
L 322.478788 122.859552 
L 323.230303 123.070886 
L 323.981818 123.646246 
L 324.733333 123.248817 
L 325.484848 123.177444 
L 326.236364 122.512483 
L 326.987879 124.35298 
L 327.739394 124.467019 
L 328.490909 122.307252 
L 329.242424 118.892092 
L 330.745455 107.700272 
L 331.49697 103.097811 
L 333 96.546308 
L 333.751515 92.750859 
L 335.254545 80.7696 
L 336.006061 63.696631 
L 336.757576 61.939446 
L 337.509091 60.939424 
L 338.260606 60.429932 
L 339.012121 60.074764 
L 339.763636 60.233509 
L 340.515152 60.603488 
L 341.266667 62.101909 
L 342.018182 75.865582 
L 342.769697 77.529339 
L 343.521212 77.780798 
L 344.272727 77.609572 
L 345.024242 77.871886 
L 345.775758 75.539862 
L 346.527273 74.865756 
L 347.278788 72.798409 
L 348.030303 71.672368 
L 348.781818 71.712378 
L 350.284848 70.481017 
L 351.036364 69.301979 
L 351.787879 66.450982 
L 352.539394 65.139203 
L 354.042424 65.619901 
L 354.793939 65.519382 
L 355.545455 65.864036 
L 356.29697 65.975106 
L 357.048485 66.518927 
L 357.8 69.930521 
L 358.551515 71.597283 
L 359.30303 70.846598 
L 360.806061 70.492059 
L 361.557576 69.666443 
L 362.309091 69.4624 
L 363.060606 67.920063 
L 363.812121 69.857745 
L 364.563636 72.109975 
L 366.818182 83.902739 
L 367.569697 91.89112 
L 368.321212 101.994812 
L 368.324426 289 
L 368.324426 289 
" style="fill:none;stroke:#1f77b4;stroke-linecap:square;stroke-width:1.5;"/>
   </g>
   <g id="line2d_56">
    <path clip-path="url(#pdc7d8324d9)" d="M 69.218182 198.483651 
L 69.969697 200.480174 
L 70.721212 195.028758 
L 71.472727 196.677576 
L 73.727273 196.677576 
L 75.230303 193.511993 
L 75.981818 195.028758 
L 76.733333 198.483651 
L 77.484848 196.677576 
L 78.236364 196.677576 
L 78.987879 198.483651 
L 79.739394 198.483651 
L 81.242424 202.712097 
L 81.993939 205.242443 
L 82.745455 205.242443 
L 83.49697 208.163513 
L 85 202.712097 
L 85.751515 202.712097 
L 86.50303 196.677576 
L 87.254545 195.028758 
L 88.006061 195.028758 
L 89.509091 192.107688 
L 90.260606 193.511993 
L 91.012121 192.107688 
L 91.763636 193.511993 
L 92.515152 200.480174 
L 93.266667 202.712097 
L 94.769697 202.712097 
L 95.521212 205.242443 
L 96.272727 198.483651 
L 97.024242 200.480174 
L 97.775758 196.677576 
L 98.527273 195.028758 
L 99.278788 196.677576 
L 100.030303 195.028758 
L 100.781818 198.483651 
L 101.533333 200.480174 
L 102.284848 211.618406 
L 103.036364 211.618406 
L 103.787879 215.846853 
L 105.290909 215.846853 
L 106.042424 205.242443 
L 106.793939 152.873373 
L 107.545455 142.391298 
L 108.29697 140.345746 
L 109.048485 140.170287 
L 109.8 140.170287 
L 110.551515 139.824168 
L 112.054545 139.738618 
L 112.806061 150.928134 
L 113.557576 170.843703 
L 114.309091 182.700484 
L 115.812121 182.700484 
L 116.563636 183.54282 
L 117.315152 182.700484 
L 118.066667 186.320875 
L 118.818182 190.800311 
L 119.569697 193.511993 
L 120.321212 195.028758 
L 121.072727 198.483651 
L 121.824242 200.480174 
L 122.575758 208.163513 
L 123.327273 205.242443 
L 124.078788 187.345419 
L 124.830303 187.345419 
L 125.581818 184.424349 
L 126.333333 185.348895 
L 127.084848 184.424349 
L 127.836364 182.700484 
L 128.587879 180.377238 
L 129.339394 181.120448 
L 130.090909 189.577342 
L 130.842424 188.428539 
L 131.593939 190.800311 
L 132.345455 189.577342 
L 133.09697 192.107688 
L 133.848485 195.028758 
L 134.6 198.483651 
L 135.351515 202.712097 
L 136.10303 205.242443 
L 136.854545 211.618406 
L 137.606061 211.618406 
L 138.357576 215.846853 
L 139.109091 208.163513 
L 139.860606 208.163513 
L 140.612121 211.618406 
L 141.363636 208.163513 
L 142.115152 211.618406 
L 142.866667 208.163513 
L 143.618182 211.618406 
L 144.369697 211.618406 
L 145.121212 221.298269 
L 145.872727 215.846853 
L 146.624242 211.618406 
L 147.375758 211.618406 
L 148.127273 208.163513 
L 148.878788 211.618406 
L 149.630303 202.712097 
L 150.381818 190.800311 
L 151.133333 189.577342 
L 152.636364 192.107688 
L 153.387879 187.345419 
L 154.139394 187.345419 
L 154.890909 184.424349 
L 155.642424 187.345419 
L 156.393939 192.107688 
L 157.145455 189.577342 
L 157.89697 189.577342 
L 158.648485 190.800311 
L 159.4 198.483651 
L 160.151515 198.483651 
L 160.90303 192.107688 
L 162.406061 181.894003 
L 163.157576 183.54282 
L 163.909091 182.700484 
L 164.660606 179.662079 
L 165.412121 174.744486 
L 166.163636 174.210663 
L 166.915152 173.186119 
L 167.666667 173.691468 
L 168.418182 177.665556 
L 169.921212 177.665556 
L 170.672727 177.044207 
L 171.424242 180.377238 
L 172.175758 181.894003 
L 172.927273 190.800311 
L 173.678788 193.511993 
L 174.430303 195.028758 
L 175.181818 190.800311 
L 175.933333 184.424349 
L 176.684848 185.348895 
L 177.436364 185.348895 
L 178.187879 180.377238 
L 178.939394 176.442587 
L 179.690909 175.859481 
L 180.442424 173.186119 
L 181.193939 171.746229 
L 181.945455 166.527324 
L 182.69697 165.838177 
L 183.448485 165.50278 
L 184.2 161.075908 
L 184.951515 160.302354 
L 185.70303 157.930581 
L 186.454545 156.847461 
L 187.206061 158.154838 
L 187.957576 160.814532 
L 188.709091 161.075908 
L 189.460606 160.556713 
L 190.212121 164.849286 
L 190.963636 167.610444 
L 191.715152 172.693898 
L 192.466667 176.442587 
L 193.218182 172.21414 
L 193.969697 174.744486 
L 194.721212 173.691468 
L 195.472727 168.368523 
L 196.224242 167.242482 
L 196.975758 164.217579 
L 197.727273 162.159028 
L 198.478788 156.638073 
L 199.230303 156.847461 
L 199.981818 156.023442 
L 200.733333 156.023442 
L 201.484848 157.930581 
L 202.236364 156.226112 
L 202.987879 155.624492 
L 203.739394 152.873373 
L 204.490909 156.023442 
L 205.242424 154.475689 
L 205.993939 151.396045 
L 207.49697 152.038461 
L 208.248485 154.290815 
L 209 154.475689 
L 209.751515 157.708948 
L 210.50303 159.317745 
L 211.254545 162.439766 
L 212.006061 169.982217 
L 212.757576 170.843703 
L 213.509091 170.408065 
L 214.260606 169.565728 
L 215.012121 169.565728 
L 216.515152 167.242482 
L 217.266667 166.527324 
L 218.018182 163.606254 
L 218.769697 162.439766 
L 219.521212 163.307831 
L 220.272727 163.909452 
L 221.024242 162.439766 
L 221.775758 160.556713 
L 222.527273 160.051364 
L 223.278788 160.051364 
L 224.030303 161.882389 
L 224.781818 161.882389 
L 225.533333 158.843985 
L 226.284848 158.611473 
L 227.787879 164.5308 
L 229.290909 164.5308 
L 230.042424 165.838177 
L 230.793939 166.88153 
L 231.545455 170.843703 
L 232.29697 172.693898 
L 233.048485 174.210663 
L 233.8 173.691468 
L 234.551515 174.744486 
L 235.30303 178.307972 
L 236.054545 174.210663 
L 236.806061 172.693898 
L 237.557576 172.693898 
L 238.309091 170.408065 
L 239.060606 169.158198 
L 240.563636 167.610444 
L 241.315152 163.606254 
L 242.066667 162.724725 
L 242.818182 162.159028 
L 243.569697 160.556713 
L 244.321212 160.302354 
L 245.072727 159.559143 
L 246.575758 161.60973 
L 247.327273 163.307831 
L 249.581818 152.703422 
L 250.333333 149.87928 
L 251.084848 150.622491 
L 251.836364 151.082824 
L 252.587879 150.774696 
L 253.339394 150.025609 
L 254.090909 151.238787 
L 254.842424 153.044863 
L 255.593939 157.489877 
L 256.345455 161.075908 
L 257.09697 160.556713 
L 257.848485 154.107727 
L 258.6 154.107727 
L 259.351515 153.746774 
L 260.10303 155.822917 
L 260.854545 155.822917 
L 261.606061 154.107727 
L 263.109091 153.392569 
L 263.860606 158.611473 
L 264.612121 158.38178 
L 265.363636 159.317745 
L 266.115152 159.079384 
L 266.866667 158.611473 
L 267.618182 161.60973 
L 268.369697 163.909452 
L 269.121212 165.50278 
L 269.872727 164.217579 
L 270.624242 151.714531 
L 271.375758 152.534981 
L 272.127273 153.568844 
L 272.878788 153.568844 
L 273.630303 151.554619 
L 274.381818 147.679777 
L 275.884848 146.063435 
L 276.636364 152.703422 
L 277.387879 152.202526 
L 278.139394 150.025609 
L 278.890909 146.303304 
L 279.642424 146.424388 
L 280.393939 148.610814 
L 281.89697 148.610814 
L 282.648485 149.87928 
L 283.4 148.885448 
L 284.151515 148.340103 
L 284.90303 155.041386 
L 285.654545 155.428123 
L 286.406061 156.638073 
L 287.157576 157.273309 
L 287.909091 158.611473 
L 288.660606 158.611473 
L 289.412121 160.814532 
L 290.163636 163.606254 
L 290.915152 164.5308 
L 291.666667 168.759247 
L 292.418182 169.565728 
L 293.169697 168.759247 
L 293.921212 168.759247 
L 294.672727 169.565728 
L 295.424242 165.173216 
L 296.175758 165.173216 
L 296.927273 162.439766 
L 297.678788 160.302354 
L 298.430303 159.803655 
L 299.181818 157.273309 
L 299.933333 159.079384 
L 300.684848 158.38178 
L 301.436364 158.611473 
L 302.187879 155.428123 
L 302.939394 153.217918 
L 303.690909 149.30501 
L 304.442424 142.688162 
L 305.193939 140.612019 
L 305.945455 135.959313 
L 306.69697 135.34022 
L 307.448485 133.534144 
L 308.2 129.256542 
L 308.951515 128.581427 
L 309.70303 125.565846 
L 310.454545 121.02484 
L 311.206061 117.628327 
L 311.957576 115.541656 
L 312.709091 112.410899 
L 313.460606 107.716018 
L 314.212121 106.130312 
L 314.963636 104.021123 
L 315.715152 99.901866 
L 316.466667 99.276144 
L 317.218182 98.876773 
L 317.969697 97.422429 
L 319.472727 97.385865 
L 320.975758 95.051733 
L 321.727273 95.675505 
L 322.478788 96.097371 
L 323.230303 95.986779 
L 323.981818 97.294762 
L 324.733333 97.312947 
L 325.484848 97.652569 
L 326.236364 97.376735 
L 328.490909 87.457416 
L 329.242424 83.372279 
L 329.993939 75.632355 
L 330.745455 70.941368 
L 331.49697 67.413852 
L 332.248485 64.843409 
L 333 63.340397 
L 333.751515 60.85953 
L 335.254545 53.016089 
L 336.006061 44.52034 
L 336.757576 44.443636 
L 337.509091 44.632877 
L 339.012121 45.356481 
L 339.763636 46.461031 
L 340.515152 48.395574 
L 341.266667 51.670979 
L 342.018182 68.217475 
L 342.769697 69.727874 
L 343.521212 70.305212 
L 344.272727 70.554015 
L 345.024242 71.295275 
L 345.775758 69.341437 
L 346.527273 69.184094 
L 347.278788 68.32751 
L 348.030303 68.166604 
L 348.781818 68.950501 
L 349.533333 69.331045 
L 350.284848 69.433132 
L 351.036364 69.026001 
L 351.787879 68.956611 
L 352.539394 69.235707 
L 353.290909 69.742732 
L 354.793939 71.380743 
L 355.545455 72.830872 
L 356.29697 74.024871 
L 357.048485 75.519689 
L 357.8 79.32869 
L 358.551515 81.079908 
L 360.054545 83.569466 
L 360.806061 84.393191 
L 361.557576 84.416207 
L 362.309091 85.053224 
L 363.060606 84.503926 
L 363.812121 84.920311 
L 364.563636 84.476181 
L 366.066667 85.73214 
L 366.818182 85.940651 
L 367.569697 87.215608 
L 368.321212 87.933847 
L 369.072727 89.331754 
L 369.824242 89.772669 
L 370.575758 88.825148 
L 371.327273 89.541872 
L 372.078788 88.935913 
L 372.830303 88.565365 
L 373.581818 90.349665 
L 373.581818 90.349665 
" style="fill:none;stroke:#ff7f0e;stroke-linecap:square;stroke-width:1.5;"/>
   </g>
   <g id="patch_3">
    <path d="M 54 252 
L 54 34.56 
" style="fill:none;stroke:#000000;stroke-linecap:square;stroke-linejoin:miter;stroke-width:0.8;"/>
   </g>
   <g id="patch_4">
    <path d="M 388.8 252 
L 388.8 34.56 
" style="fill:none;stroke:#000000;stroke-linecap:square;stroke-linejoin:miter;stroke-width:0.8;"/>
   </g>
   <g id="patch_5">
    <path d="M 54 252 
L 388.8 252 
" style="fill:none;stroke:#000000;stroke-linecap:square;stroke-linejoin:miter;stroke-width:0.8;"/>
   </g>
   <g id="patch_6">
    <path d="M 54 34.56 
L 388.8 34.56 
" style="fill:none;stroke:#000000;stroke-linecap:square;stroke-linejoin:miter;stroke-width:0.8;"/>
   </g>
   <g id="text_15">
    <!-- Memember inflow and outflow -->
    <defs>
     <path d="M 9.8125 72.90625 
L 24.515625 72.90625 
L 43.109375 23.296875 
L 61.8125 72.90625 
L 76.515625 72.90625 
L 76.515625 0 
L 66.890625 0 
L 66.890625 64.015625 
L 48.09375 14.015625 
L 38.1875 14.015625 
L 19.390625 64.015625 
L 19.390625 0 
L 9.8125 0 
z
" id="DejaVuSans-4d"/>
     <path d="M 56.203125 29.59375 
L 56.203125 25.203125 
L 14.890625 25.203125 
Q 15.484375 15.921875 20.484375 11.0625 
Q 25.484375 6.203125 34.421875 6.203125 
Q 39.59375 6.203125 44.453125 7.46875 
Q 49.3125 8.734375 54.109375 11.28125 
L 54.109375 2.78125 
Q 49.265625 0.734375 44.1875 -0.34375 
Q 39.109375 -1.421875 33.890625 -1.421875 
Q 20.796875 -1.421875 13.15625 6.1875 
Q 5.515625 13.8125 5.515625 26.8125 
Q 5.515625 40.234375 12.765625 48.109375 
Q 20.015625 56 32.328125 56 
Q 43.359375 56 49.78125 48.890625 
Q 56.203125 41.796875 56.203125 29.59375 
z
M 47.21875 32.234375 
Q 47.125 39.59375 43.09375 43.984375 
Q 39.0625 48.390625 32.421875 48.390625 
Q 24.90625 48.390625 20.390625 44.140625 
Q 15.875 39.890625 15.1875 32.171875 
z
" id="DejaVuSans-65"/>
     <path d="M 52 44.1875 
Q 55.375 50.25 60.0625 53.125 
Q 64.75 56 71.09375 56 
Q 79.640625 56 84.28125 50.015625 
Q 88.921875 44.046875 88.921875 33.015625 
L 88.921875 0 
L 79.890625 0 
L 79.890625 32.71875 
Q 79.890625 40.578125 77.09375 44.375 
Q 74.3125 48.1875 68.609375 48.1875 
Q 61.625 48.1875 57.5625 43.546875 
Q 53.515625 38.921875 53.515625 30.90625 
L 53.515625 0 
L 44.484375 0 
L 44.484375 32.71875 
Q 44.484375 40.625 41.703125 44.40625 
Q 38.921875 48.1875 33.109375 48.1875 
Q 26.21875 48.1875 22.15625 43.53125 
Q 18.109375 38.875 18.109375 30.90625 
L 18.109375 0 
L 9.078125 0 
L 9.078125 54.6875 
L 18.109375 54.6875 
L 18.109375 46.1875 
Q 21.1875 51.21875 25.484375 53.609375 
Q 29.78125 56 35.6875 56 
Q 41.65625 56 45.828125 52.96875 
Q 50 49.953125 52 44.1875 
z
" id="DejaVuSans-6d"/>
     <path d="M 48.6875 27.296875 
Q 48.6875 37.203125 44.609375 42.84375 
Q 40.53125 48.484375 33.40625 48.484375 
Q 26.265625 48.484375 22.1875 42.84375 
Q 18.109375 37.203125 18.109375 27.296875 
Q 18.109375 17.390625 22.1875 11.75 
Q 26.265625 6.109375 33.40625 6.109375 
Q 40.53125 6.109375 44.609375 11.75 
Q 48.6875 17.390625 48.6875 27.296875 
z
M 18.109375 46.390625 
Q 20.953125 51.265625 25.265625 53.625 
Q 29.59375 56 35.59375 56 
Q 45.5625 56 51.78125 48.09375 
Q 58.015625 40.1875 58.015625 27.296875 
Q 58.015625 14.40625 51.78125 6.484375 
Q 45.5625 -1.421875 35.59375 -1.421875 
Q 29.59375 -1.421875 25.265625 0.953125 
Q 20.953125 3.328125 18.109375 8.203125 
L 18.109375 0 
L 9.078125 0 
L 9.078125 75.984375 
L 18.109375 75.984375 
z
" id="DejaVuSans-62"/>
     <path d="M 41.109375 46.296875 
Q 39.59375 47.171875 37.8125 47.578125 
Q 36.03125 48 33.890625 48 
Q 26.265625 48 22.1875 43.046875 
Q 18.109375 38.09375 18.109375 28.8125 
L 18.109375 0 
L 9.078125 0 
L 9.078125 54.6875 
L 18.109375 54.6875 
L 18.109375 46.1875 
Q 20.953125 51.171875 25.484375 53.578125 
Q 30.03125 56 36.53125 56 
Q 37.453125 56 38.578125 55.875 
Q 39.703125 55.765625 41.0625 55.515625 
z
" id="DejaVuSans-72"/>
     <path id="DejaVuSans-20"/>
     <path d="M 9.421875 54.6875 
L 18.40625 54.6875 
L 18.40625 0 
L 9.421875 0 
z
M 9.421875 75.984375 
L 18.40625 75.984375 
L 18.40625 64.59375 
L 9.421875 64.59375 
z
" id="DejaVuSans-69"/>
     <path d="M 54.890625 33.015625 
L 54.890625 0 
L 45.90625 0 
L 45.90625 32.71875 
Q 45.90625 40.484375 42.875 44.328125 
Q 39.84375 48.1875 33.796875 48.1875 
Q 26.515625 48.1875 22.3125 43.546875 
Q 18.109375 38.921875 18.109375 30.90625 
L 18.109375 0 
L 9.078125 0 
L 9.078125 54.6875 
L 18.109375 54.6875 
L 18.109375 46.1875 
Q 21.34375 51.125 25.703125 53.5625 
Q 30.078125 56 35.796875 56 
Q 45.21875 56 50.046875 50.171875 
Q 54.890625 44.34375 54.890625 33.015625 
z
" id="DejaVuSans-6e"/>
     <path d="M 37.109375 75.984375 
L 37.109375 68.5 
L 28.515625 68.5 
Q 23.6875 68.5 21.796875 66.546875 
Q 19.921875 64.59375 19.921875 59.515625 
L 19.921875 54.6875 
L 34.71875 54.6875 
L 34.71875 47.703125 
L 19.921875 47.703125 
L 19.921875 0 
L 10.890625 0 
L 10.890625 47.703125 
L 2.296875 47.703125 
L 2.296875 54.6875 
L 10.890625 54.6875 
L 10.890625 58.5 
Q 10.890625 67.625 15.140625 71.796875 
Q 19.390625 75.984375 28.609375 75.984375 
z
" id="DejaVuSans-66"/>
     <path d="M 9.421875 75.984375 
L 18.40625 75.984375 
L 18.40625 0 
L 9.421875 0 
z
" id="DejaVuSans-6c"/>
     <path d="M 30.609375 48.390625 
Q 23.390625 48.390625 19.1875 42.75 
Q 14.984375 37.109375 14.984375 27.296875 
Q 14.984375 17.484375 19.15625 11.84375 
Q 23.34375 6.203125 30.609375 6.203125 
Q 37.796875 6.203125 41.984375 11.859375 
Q 46.1875 17.53125 46.1875 27.296875 
Q 46.1875 37.015625 41.984375 42.703125 
Q 37.796875 48.390625 30.609375 48.390625 
z
M 30.609375 56 
Q 42.328125 56 49.015625 48.375 
Q 55.71875 40.765625 55.71875 27.296875 
Q 55.71875 13.875 49.015625 6.21875 
Q 42.328125 -1.421875 30.609375 -1.421875 
Q 18.84375 -1.421875 12.171875 6.21875 
Q 5.515625 13.875 5.515625 27.296875 
Q 5.515625 40.765625 12.171875 48.375 
Q 18.84375 56 30.609375 56 
z
" id="DejaVuSans-6f"/>
     <path d="M 4.203125 54.6875 
L 13.1875 54.6875 
L 24.421875 12.015625 
L 35.59375 54.6875 
L 46.1875 54.6875 
L 57.421875 12.015625 
L 68.609375 54.6875 
L 77.59375 54.6875 
L 63.28125 0 
L 52.6875 0 
L 40.921875 44.828125 
L 29.109375 0 
L 18.5 0 
z
" id="DejaVuSans-77"/>
     <path d="M 34.28125 27.484375 
Q 23.390625 27.484375 19.1875 25 
Q 14.984375 22.515625 14.984375 16.5 
Q 14.984375 11.71875 18.140625 8.90625 
Q 21.296875 6.109375 26.703125 6.109375 
Q 34.1875 6.109375 38.703125 11.40625 
Q 43.21875 16.703125 43.21875 25.484375 
L 43.21875 27.484375 
z
M 52.203125 31.203125 
L 52.203125 0 
L 43.21875 0 
L 43.21875 8.296875 
Q 40.140625 3.328125 35.546875 0.953125 
Q 30.953125 -1.421875 24.3125 -1.421875 
Q 15.921875 -1.421875 10.953125 3.296875 
Q 6 8.015625 6 15.921875 
Q 6 25.140625 12.171875 29.828125 
Q 18.359375 34.515625 30.609375 34.515625 
L 43.21875 34.515625 
L 43.21875 35.40625 
Q 43.21875 41.609375 39.140625 45 
Q 35.0625 48.390625 27.6875 48.390625 
Q 23 48.390625 18.546875 47.265625 
Q 14.109375 46.140625 10.015625 43.890625 
L 10.015625 52.203125 
Q 14.9375 54.109375 19.578125 55.046875 
Q 24.21875 56 28.609375 56 
Q 40.484375 56 46.34375 49.84375 
Q 52.203125 43.703125 52.203125 31.203125 
z
" id="DejaVuSans-61"/>
     <path d="M 45.40625 46.390625 
L 45.40625 75.984375 
L 54.390625 75.984375 
L 54.390625 0 
L 45.40625 0 
L 45.40625 8.203125 
Q 42.578125 3.328125 38.25 0.953125 
Q 33.9375 -1.421875 27.875 -1.421875 
Q 17.96875 -1.421875 11.734375 6.484375 
Q 5.515625 14.40625 5.515625 27.296875 
Q 5.515625 40.1875 11.734375 48.09375 
Q 17.96875 56 27.875 56 
Q 33.9375 56 38.25 53.625 
Q 42.578125 51.265625 45.40625 46.390625 
z
M 14.796875 27.296875 
Q 14.796875 17.390625 18.875 11.75 
Q 22.953125 6.109375 30.078125 6.109375 
Q 37.203125 6.109375 41.296875 11.75 
Q 45.40625 17.390625 45.40625 27.296875 
Q 45.40625 37.203125 41.296875 42.84375 
Q 37.203125 48.484375 30.078125 48.484375 
Q 22.953125 48.484375 18.875 42.84375 
Q 14.796875 37.203125 14.796875 27.296875 
z
" id="DejaVuSans-64"/>
     <path d="M 8.5 21.578125 
L 8.5 54.6875 
L 17.484375 54.6875 
L 17.484375 21.921875 
Q 17.484375 14.15625 20.5 10.265625 
Q 23.53125 6.390625 29.59375 6.390625 
Q 36.859375 6.390625 41.078125 11.03125 
Q 45.3125 15.671875 45.3125 23.6875 
L 45.3125 54.6875 
L 54.296875 54.6875 
L 54.296875 0 
L 45.3125 0 
L 45.3125 8.40625 
Q 42.046875 3.421875 37.71875 1 
Q 33.40625 -1.421875 27.6875 -1.421875 
Q 18.265625 -1.421875 13.375 4.4375 
Q 8.5 10.296875 8.5 21.578125 
z
M 31.109375 56 
z
" id="DejaVuSans-75"/>
     <path d="M 18.3125 70.21875 
L 18.3125 54.6875 
L 36.8125 54.6875 
L 36.8125 47.703125 
L 18.3125 47.703125 
L 18.3125 18.015625 
Q 18.3125 11.328125 20.140625 9.421875 
Q 21.96875 7.515625 27.59375 7.515625 
L 36.8125 7.515625 
L 36.8125 0 
L 27.59375 0 
Q 17.1875 0 13.234375 3.875 
Q 9.28125 7.765625 9.28125 18.015625 
L 9.28125 47.703125 
L 2.6875 47.703125 
L 2.6875 54.6875 
L 9.28125 54.6875 
L 9.28125 70.21875 
z
" id="DejaVuSans-74"/>
    </defs>
    <g transform="translate(130.164375 28.56)scale(0.12 -0.12)">
     <use xlink:href="#DejaVuSans-4d"/>
     <use x="86.279297" xlink:href="#DejaVuSans-65"/>
     <use x="147.802734" xlink:href="#DejaVuSans-6d"/>
     <use x="245.214844" xlink:href="#DejaVuSans-65"/>
     <use x="306.738281" xlink:href="#DejaVuSans-6d"/>
     <use x="404.150391" xlink:href="#DejaVuSans-62"/>
     <use x="467.626953" xlink:href="#DejaVuSans-65"/>
     <use x="529.150391" xlink:href="#DejaVuSans-72"/>
     <use x="570.263672" xlink:href="#DejaVuSans-20"/>
     <use x="602.050781" xlink:href="#DejaVuSans-69"/>
     <use x="629.833984" xlink:href="#DejaVuSans-6e"/>
     <use x="693.212891" xlink:href="#DejaVuSans-66"/>
     <use x="728.417969" xlink:href="#DejaVuSans-6c"/>
     <use x="756.201172" xlink:href="#DejaVuSans-6f"/>
     <use x="817.382812" xlink:href="#DejaVuSans-77"/>
     <use x="899.169922" xlink:href="#DejaVuSans-20"/>
     <use x="930.957031" xlink:href="#DejaVuSans-61"/>
     <use x="992.236328" xlink:href="#DejaVuSans-6e"/>
     <use x="1055.615234" xlink:href="#DejaVuSans-64"/>
     <use x="1119.091797" xlink:href="#DejaVuSans-20"/>
     <use x="1150.878906" xlink:href="#DejaVuSans-6f"/>
     <use x="1212.060547" xlink:href="#DejaVuSans-75"/>
     <use x="1275.439453" xlink:href="#DejaVuSans-74"/>
     <use x="1314.648438" xlink:href="#DejaVuSans-66"/>
     <use x="1349.853516" xlink:href="#DejaVuSans-6c"/>
     <use x="1377.636719" xlink:href="#DejaVuSans-6f"/>
     <use x="1438.818359" xlink:href="#DejaVuSans-77"/>
    </g>
   </g>
   <g id="legend_1">
    <g id="patch_7">
     <path d="M 61 71.91625 
L 129.971875 71.91625 
Q 131.971875 71.91625 131.971875 69.91625 
L 131.971875 41.56 
Q 131.971875 39.56 129.971875 39.56 
L 61 39.56 
Q 59 39.56 59 41.56 
L 59 69.91625 
Q 59 71.91625 61 71.91625 
z
" style="fill:#ffffff;opacity:0.8;stroke:#cccccc;stroke-linejoin:miter;"/>
    </g>
    <g id="line2d_57">
     <path d="M 63 47.658437 
L 83 47.658437 
" style="fill:none;stroke:#1f77b4;stroke-linecap:square;stroke-width:1.5;"/>
    </g>
    <g id="line2d_58"/>
    <g id="text_16">
     <!-- outflow -->
     <g transform="translate(91 51.158437)scale(0.1 -0.1)">
      <use xlink:href="#DejaVuSans-6f"/>
      <use x="61.181641" xlink:href="#DejaVuSans-75"/>
      <use x="124.560547" xlink:href="#DejaVuSans-74"/>
      <use x="163.769531" xlink:href="#DejaVuSans-66"/>
      <use x="198.974609" xlink:href="#DejaVuSans-6c"/>
      <use x="226.757812" xlink:href="#DejaVuSans-6f"/>
      <use x="287.939453" xlink:href="#DejaVuSans-77"/>
     </g>
    </g>
    <g id="line2d_59">
     <path d="M 63 62.336562 
L 83 62.336562 
" style="fill:none;stroke:#ff7f0e;stroke-linecap:square;stroke-width:1.5;"/>
    </g>
    <g id="line2d_60"/>
    <g id="text_17">
     <!-- inflow -->
     <g transform="translate(91 65.836562)scale(0.1 -0.1)">
      <use xlink:href="#DejaVuSans-69"/>
      <use x="27.783203" xlink:href="#DejaVuSans-6e"/>
      <use x="91.162109" xlink:href="#DejaVuSans-66"/>
      <use x="126.367188" xlink:href="#DejaVuSans-6c"/>
      <use x="154.150391" xlink:href="#DejaVuSans-6f"/>
      <use x="215.332031" xlink:href="#DejaVuSans-77"/>
     </g>
    </g>
   </g>
  </g>
 </g>
 <defs>
  <clipPath id="pdc7d8324d9">
   <rect height="217.44" width="334.8" x="54" y="34.56"/>
  </clipPath>
 </defs>
</svg>
