<?xml version="1.0" encoding="utf-8" standalone="no"?>
<!DOCTYPE svg PUBLIC "-//W3C//DTD SVG 1.1//EN"
  "http://www.w3.org/Graphics/SVG/1.1/DTD/svg11.dtd">
<!-- Created with matplotlib (http://matplotlib.org/) -->
<svg height="288pt" version="1.1" viewBox="0 0 432 288" width="432pt" xmlns="http://www.w3.org/2000/svg" xmlns:xlink="http://www.w3.org/1999/xlink">
 <defs>
  <style type="text/css">
*{stroke-linecap:butt;stroke-linejoin:round;}
  </style>
 </defs>
 <g id="figure_1">
  <g id="patch_1">
   <path d="M 0 288 
L 432 288 
L 432 0 
L 0 0 
z
" style="fill:#ffffff;"/>
  </g>
  <g id="axes_1">
   <g id="patch_2">
    <path d="M 54 252 
L 388.8 252 
L 388.8 34.56 
L 54 34.56 
z
" style="fill:#ffffff;"/>
   </g>
   <g id="PolyCollection_1">
    <defs>
     <path d="M 75.186096 -144.471834 
L 75.186096 -130.631926 
L 81.154011 -130.631926 
L 81.154011 -124.665359 
L 87.121925 -124.665359 
L 87.121925 -122.111444 
L 93.08984 -122.111444 
L 93.08984 -119.559389 
L 99.057754 -119.559389 
L 99.057754 -118.369059 
L 105.025668 -118.369059 
L 105.025668 -117.519065 
L 110.993583 -117.519065 
L 110.993583 -116.329411 
L 116.961497 -116.329411 
L 116.961497 -115.479897 
L 122.929412 -115.479897 
L 122.929412 -114.460743 
L 128.897326 -114.460743 
L 128.897326 -113.781464 
L 134.865241 -113.781464 
L 134.865241 -112.593029 
L 140.833155 -112.593029 
L 140.833155 -111.404976 
L 146.80107 -111.404976 
L 146.80107 -110.556599 
L 152.768984 -110.556599 
L 152.768984 -108.860424 
L 158.736898 -108.860424 
L 158.736898 -108.012623 
L 164.704813 -108.012623 
L 164.704813 -106.656538 
L 170.672727 -106.656538 
L 170.672727 -105.978678 
L 176.640642 -105.978678 
L 176.640642 -105.809231 
L 182.608556 -105.809231 
L 182.608556 -105.470361 
L 188.576471 -105.470361 
L 188.576471 -104.623318 
L 194.544385 -104.623318 
L 194.544385 -104.115182 
L 200.512299 -104.115182 
L 200.512299 -103.099111 
L 206.480214 -103.099111 
L 206.480214 -101.914034 
L 212.448128 -101.914034 
L 212.448128 -100.560104 
L 218.416043 -100.560104 
L 218.416043 -99.714138 
L 224.383957 -99.714138 
L 224.383957 -98.868355 
L 230.351872 -98.868355 
L 230.351872 -98.19186 
L 236.319786 -98.19186 
L 236.319786 -96.839219 
L 242.287701 -96.839219 
L 242.287701 -95.487043 
L 248.255615 -95.487043 
L 248.255615 -93.966398 
L 254.223529 -93.966398 
L 254.223529 -93.290742 
L 260.191444 -93.290742 
L 260.191444 -91.939774 
L 266.159358 -91.939774 
L 266.159358 -91.264461 
L 272.127273 -91.264461 
L 272.127273 -90.589262 
L 278.095187 -90.589262 
L 278.095187 -89.576677 
L 284.063102 -89.576677 
L 284.063102 -89.407938 
L 290.031016 -89.407938 
L 290.031016 -88.901762 
L 295.99893 -88.901762 
L 295.99893 -88.564346 
L 301.966845 -88.564346 
L 301.966845 -87.889601 
L 307.934759 -87.889601 
L 307.934759 -87.889601 
L 313.902674 -87.889601 
L 313.902674 -87.383615 
L 319.870588 -87.383615 
L 319.870588 -87.046327 
L 325.838503 -87.046327 
L 325.838503 -86.03463 
L 331.806417 -86.03463 
L 331.806417 -85.360306 
L 337.774332 -85.360306 
L 337.774332 -84.686093 
L 343.742246 -84.686093 
L 343.742246 -84.011993 
L 349.71016 -84.011993 
L 349.71016 -82.832585 
L 355.678075 -82.832585 
L 355.678075 -81.316704 
L 361.645989 -81.316704 
L 361.645989 -80.138074 
L 367.613904 -80.138074 
L 367.613904 -79.296403 
L 373.581818 -79.296403 
L 373.581818 -94.317335 
L 373.581818 -94.317335 
L 367.613904 -94.317335 
L 367.613904 -95.150379 
L 361.645989 -95.150379 
L 361.645989 -96.316353 
L 355.678075 -96.316353 
L 355.678075 -97.814967 
L 349.71016 -97.814967 
L 349.71016 -98.980169 
L 343.742246 -98.980169 
L 343.742246 -99.645847 
L 337.774332 -99.645847 
L 337.774332 -100.311414 
L 331.806417 -100.311414 
L 331.806417 -100.97687 
L 325.838503 -100.97687 
L 325.838503 -101.974845 
L 319.870588 -101.974845 
L 319.870588 -102.307448 
L 313.902674 -102.307448 
L 313.902674 -102.8063 
L 307.934759 -102.8063 
L 307.934759 -102.8063 
L 301.966845 -102.8063 
L 301.966845 -103.471337 
L 295.99893 -103.471337 
L 295.99893 -103.803814 
L 290.031016 -103.803814 
L 290.031016 -104.302477 
L 284.063102 -104.302477 
L 284.063102 -104.468684 
L 278.095187 -104.468684 
L 278.095187 -105.465777 
L 272.127273 -105.465777 
L 272.127273 -106.130365 
L 266.159358 -106.130365 
L 266.159358 -106.79484 
L 260.191444 -106.79484 
L 260.191444 -108.12345 
L 254.223529 -108.12345 
L 254.223529 -108.787584 
L 248.255615 -108.787584 
L 248.255615 -110.281469 
L 242.287701 -110.281469 
L 242.287701 -111.60888 
L 236.319786 -111.60888 
L 236.319786 -112.935829 
L 230.351872 -112.935829 
L 230.351872 -113.59913 
L 224.383957 -113.59913 
L 224.383957 -114.428093 
L 218.416043 -114.428093 
L 218.416043 -115.256873 
L 212.448128 -115.256873 
L 212.448128 -116.582542 
L 206.480214 -116.582542 
L 206.480214 -117.742116 
L 200.512299 -117.742116 
L 200.512299 -118.735748 
L 194.544385 -118.735748 
L 194.544385 -119.232464 
L 188.576471 -119.232464 
L 188.576471 -120.060174 
L 182.608556 -120.060174 
L 182.608556 -120.391206 
L 176.640642 -120.391206 
L 176.640642 -120.556711 
L 170.672727 -120.556711 
L 170.672727 -121.218655 
L 164.704813 -121.218655 
L 164.704813 -122.542182 
L 158.736898 -122.542182 
L 158.736898 -123.36914 
L 152.768984 -123.36914 
L 152.768984 -125.022486 
L 146.80107 -125.022486 
L 146.80107 -125.848872 
L 140.833155 -125.848872 
L 140.833155 -127.005488 
L 134.865241 -127.005488 
L 134.865241 -128.161723 
L 128.897326 -128.161723 
L 128.897326 -128.822258 
L 122.929412 -128.822258 
L 122.929412 -129.812824 
L 116.961497 -129.812824 
L 116.961497 -130.638079 
L 110.993583 -130.638079 
L 110.993583 -131.793103 
L 105.025668 -131.793103 
L 105.025668 -132.61788 
L 99.057754 -132.61788 
L 99.057754 -133.772231 
L 93.08984 -133.772231 
L 93.08984 -136.244502 
L 87.121925 -136.244502 
L 87.121925 -138.71492 
L 81.154011 -138.71492 
L 81.154011 -144.471834 
L 75.186096 -144.471834 
z
" id="me160760d57" style="stroke:#1f77b4;stroke-opacity:0.25;"/>
    </defs>
    <g clip-path="url(#pde8c3ad790)">
     <use style="fill:#1f77b4;fill-opacity:0.25;stroke:#1f77b4;stroke-opacity:0.25;" x="0" xlink:href="#me160760d57" y="288"/>
    </g>
   </g>
   <g id="PolyCollection_2">
    <defs>
     <path d="M 75.186096 -200.55 
L 75.186096 -194.051037 
L 81.154011 -194.051037 
L 81.154011 -189.481403 
L 87.121925 -189.481403 
L 87.121925 -185.271157 
L 93.08984 -185.271157 
L 93.08984 -181.557821 
L 99.057754 -181.557821 
L 99.057754 -179.947931 
L 105.025668 -179.947931 
L 105.025668 -178.40888 
L 110.993583 -178.40888 
L 110.993583 -176.03191 
L 116.961497 -176.03191 
L 116.961497 -173.58694 
L 122.929412 -173.58694 
L 122.929412 -171.981261 
L 128.897326 -171.981261 
L 128.897326 -170.585653 
L 134.865241 -170.585653 
L 134.865241 -169.469583 
L 140.833155 -169.469583 
L 140.833155 -168.284156 
L 146.80107 -168.284156 
L 146.80107 -166.053847 
L 152.768984 -166.053847 
L 152.768984 -164.660606 
L 158.736898 -164.660606 
L 158.736898 -162.780565 
L 164.704813 -162.780565 
L 164.704813 -160.901459 
L 170.672727 -160.901459 
L 170.672727 -158.884175 
L 176.640642 -158.884175 
L 176.640642 -156.242383 
L 182.608556 -156.242383 
L 182.608556 -153.880119 
L 188.576471 -153.880119 
L 188.576471 -150.96385 
L 194.544385 -150.96385 
L 194.544385 -148.188269 
L 200.512299 -148.188269 
L 200.512299 -145.761047 
L 206.480214 -145.761047 
L 206.480214 -142.850073 
L 212.448128 -142.850073 
L 212.448128 -141.048944 
L 218.416043 -141.048944 
L 218.416043 -138.833097 
L 224.383957 -138.833097 
L 224.383957 -136.203082 
L 230.351872 -136.203082 
L 230.351872 -133.989408 
L 236.319786 -133.989408 
L 236.319786 -131.361919 
L 242.287701 -131.361919 
L 242.287701 -128.873947 
L 248.255615 -128.873947 
L 248.255615 -126.870601 
L 254.223529 -126.870601 
L 254.223529 -124.24666 
L 260.191444 -124.24666 
L 260.191444 -121.830991 
L 266.159358 -121.830991 
L 266.159358 -119.899216 
L 272.127273 -119.899216 
L 272.127273 -117.278587 
L 278.095187 -117.278587 
L 278.095187 -115.417297 
L 284.063102 -115.417297 
L 284.063102 -113.349906 
L 290.031016 -113.349906 
L 290.031016 -110.870009 
L 295.99893 -110.870009 
L 295.99893 -108.184637 
L 301.966845 -108.184637 
L 301.966845 -105.775723 
L 307.934759 -105.775723 
L 307.934759 -103.298991 
L 313.902674 -103.298991 
L 313.902674 -100.548254 
L 319.870588 -100.548254 
L 319.870588 -98.486013 
L 325.838503 -98.486013 
L 325.838503 -95.18786 
L 331.806417 -95.18786 
L 331.806417 -92.784059 
L 337.774332 -92.784059 
L 337.774332 -90.312539 
L 343.742246 -90.312539 
L 343.742246 -88.459534 
L 349.71016 -88.459534 
L 349.71016 -85.715336 
L 355.678075 -85.715336 
L 355.678075 -82.835199 
L 361.645989 -82.835199 
L 361.645989 -80.093413 
L 367.613904 -80.093413 
L 367.613904 -77.763812 
L 373.581818 -77.763812 
L 373.581818 -87.380919 
L 373.581818 -87.380919 
L 367.613904 -87.380919 
L 367.613904 -89.697756 
L 361.645989 -89.697756 
L 361.645989 -92.422374 
L 355.678075 -92.422374 
L 355.678075 -95.281967 
L 349.71016 -95.281967 
L 349.71016 -98.004186 
L 343.742246 -98.004186 
L 343.742246 -99.841015 
L 337.774332 -99.841015 
L 337.774332 -102.289278 
L 331.806417 -102.289278 
L 331.806417 -104.668604 
L 325.838503 -104.668604 
L 325.838503 -107.930176 
L 319.870588 -107.930176 
L 319.870588 -109.967766 
L 313.902674 -109.967766 
L 313.902674 -112.683476 
L 307.934759 -112.683476 
L 307.934759 -115.126551 
L 301.966845 -115.126551 
L 301.966845 -117.500786 
L 295.99893 -117.500786 
L 295.99893 -120.145214 
L 290.031016 -120.145214 
L 290.031016 -122.585137 
L 284.063102 -122.585137 
L 284.063102 -124.617598 
L 278.095187 -124.617598 
L 278.095187 -126.446178 
L 272.127273 -126.446178 
L 272.127273 -129.018703 
L 266.159358 -129.018703 
L 266.159358 -130.913465 
L 260.191444 -130.913465 
L 260.191444 -133.28097 
L 254.223529 -133.28097 
L 254.223529 -135.850193 
L 248.255615 -135.850193 
L 248.255615 -137.810055 
L 242.287701 -137.810055 
L 242.287701 -140.24193 
L 236.319786 -140.24193 
L 236.319786 -142.807617 
L 230.351872 -142.807617 
L 230.351872 -144.967146 
L 224.383957 -144.967146 
L 224.383957 -147.530314 
L 218.416043 -147.530314 
L 218.416043 -149.687677 
L 212.448128 -149.687677 
L 212.448128 -151.439783 
L 206.480214 -151.439783 
L 206.480214 -154.268653 
L 200.512299 -154.268653 
L 200.512299 -156.624638 
L 194.544385 -156.624638 
L 194.544385 -159.315583 
L 188.576471 -159.315583 
L 188.576471 -162.139171 
L 182.608556 -162.139171 
L 182.608556 -164.42346 
L 176.640642 -164.42346 
L 176.640642 -166.974878 
L 170.672727 -166.974878 
L 170.672727 -168.920836 
L 164.704813 -168.920836 
L 164.704813 -170.731646 
L 158.736898 -170.731646 
L 158.736898 -172.541523 
L 152.768984 -172.541523 
L 152.768984 -173.881555 
L 146.80107 -173.881555 
L 146.80107 -176.024486 
L 140.833155 -176.024486 
L 140.833155 -177.162343 
L 134.865241 -177.162343 
L 134.865241 -178.232893 
L 128.897326 -178.232893 
L 128.897326 -179.570563 
L 122.929412 -179.570563 
L 122.929412 -181.108153 
L 116.961497 -181.108153 
L 116.961497 -183.446421 
L 110.993583 -183.446421 
L 110.993583 -185.716029 
L 105.025668 -185.716029 
L 105.025668 -187.183587 
L 99.057754 -187.183587 
L 99.057754 -188.716972 
L 93.08984 -188.716972 
L 93.08984 -192.246838 
L 87.121925 -192.246838 
L 87.121925 -196.236449 
L 81.154011 -196.236449 
L 81.154011 -200.55 
L 75.186096 -200.55 
z
" id="mad4ea2e9c2" style="stroke:#ff7f0e;stroke-opacity:0.25;"/>
    </defs>
    <g clip-path="url(#pde8c3ad790)">
     <use style="fill:#ff7f0e;fill-opacity:0.25;stroke:#ff7f0e;stroke-opacity:0.25;" x="0" xlink:href="#mad4ea2e9c2" y="288"/>
    </g>
   </g>
   <g id="PolyCollection_3">
    <defs>
     <path d="M 75.186096 -196.184045 
L 75.186096 -193.195789 
L 81.154011 -193.195789 
L 81.154011 -177.81292 
L 87.121925 -177.81292 
L 87.121925 -167.151402 
L 93.08984 -167.151402 
L 93.08984 -160.380671 
L 99.057754 -160.380671 
L 99.057754 -154.60121 
L 105.025668 -154.60121 
L 105.025668 -149.436058 
L 110.993583 -149.436058 
L 110.993583 -144.759197 
L 116.961497 -144.759197 
L 116.961497 -140.19539 
L 122.929412 -140.19539 
L 122.929412 -136.201904 
L 128.897326 -136.201904 
L 128.897326 -132.916668 
L 134.865241 -132.916668 
L 134.865241 -129.507668 
L 140.833155 -129.507668 
L 140.833155 -126.445954 
L 146.80107 -126.445954 
L 146.80107 -123.066504 
L 152.768984 -123.066504 
L 152.768984 -120.726365 
L 158.736898 -120.726365 
L 158.736898 -118.02675 
L 164.704813 -118.02675 
L 164.704813 -115.272352 
L 170.672727 -115.272352 
L 170.672727 -111.95125 
L 176.640642 -111.95125 
L 176.640642 -108.907649 
L 182.608556 -108.907649 
L 182.608556 -106.279648 
L 188.576471 -106.279648 
L 188.576471 -103.223516 
L 194.544385 -103.223516 
L 194.544385 -100.541326 
L 200.512299 -100.541326 
L 200.512299 -97.320627 
L 206.480214 -97.320627 
L 206.480214 -93.174908 
L 212.448128 -93.174908 
L 212.448128 -88.602222 
L 218.416043 -88.602222 
L 218.416043 -84.831904 
L 224.383957 -84.831904 
L 224.383957 -81.200635 
L 230.351872 -81.200635 
L 230.351872 -77.832522 
L 236.319786 -77.832522 
L 236.319786 -74.092629 
L 242.287701 -74.092629 
L 242.287701 -70.326113 
L 248.255615 -70.326113 
L 248.255615 -66.560573 
L 254.223529 -66.560573 
L 254.223529 -63.471629 
L 260.191444 -63.471629 
L 260.191444 -61.058847 
L 266.159358 -61.058847 
L 266.159358 -59.142695 
L 272.127273 -59.142695 
L 272.127273 -57.213014 
L 278.095187 -57.213014 
L 278.095187 -55.655673 
L 284.063102 -55.655673 
L 284.063102 -54.415432 
L 290.031016 -54.415432 
L 290.031016 -53.368201 
L 295.99893 -53.368201 
L 295.99893 -52.651718 
L 301.966845 -52.651718 
L 301.966845 -52.224601 
L 307.934759 -52.224601 
L 307.934759 -51.907716 
L 313.902674 -51.907716 
L 313.902674 -51.618392 
L 319.870588 -51.618392 
L 319.870588 -51.466844 
L 325.838503 -51.466844 
L 325.838503 -51.370405 
L 331.806417 -51.370405 
L 331.806417 -51.315297 
L 337.774332 -51.315297 
L 337.774332 -51.273967 
L 343.742246 -51.273967 
L 343.742246 -51.273967 
L 349.71016 -51.273967 
L 349.71016 -51.273967 
L 355.678075 -51.273967 
L 355.678075 -51.273967 
L 361.645989 -51.273967 
L 361.645989 -51.273967 
L 367.613904 -51.273967 
L 367.613904 -51.273967 
L 373.581818 -51.273967 
L 373.581818 -55.602206 
L 373.581818 -55.602206 
L 367.613904 -55.602206 
L 367.613904 -55.602206 
L 361.645989 -55.602206 
L 361.645989 -55.602206 
L 355.678075 -55.602206 
L 355.678075 -55.602206 
L 349.71016 -55.602206 
L 349.71016 -55.602206 
L 343.742246 -55.602206 
L 343.742246 -55.602206 
L 337.774332 -55.602206 
L 337.774332 -55.643607 
L 331.806417 -55.643607 
L 331.806417 -55.698809 
L 325.838503 -55.698809 
L 325.838503 -55.795411 
L 319.870588 -55.795411 
L 319.870588 -55.947213 
L 313.902674 -55.947213 
L 313.902674 -56.237013 
L 307.934759 -56.237013 
L 307.934759 -56.554406 
L 301.966845 -56.554406 
L 301.966845 -56.982186 
L 295.99893 -56.982186 
L 295.99893 -57.699724 
L 290.031016 -57.699724 
L 290.031016 -58.74837 
L 284.063102 -58.74837 
L 284.063102 -59.99009 
L 278.095187 -59.99009 
L 278.095187 -61.548988 
L 272.127273 -61.548988 
L 272.127273 -63.480134 
L 266.159358 -63.480134 
L 266.159358 -65.397233 
L 260.191444 -65.397233 
L 260.191444 -67.810489 
L 254.223529 -67.810489 
L 254.223529 -70.898873 
L 248.255615 -70.898873 
L 248.255615 -74.661955 
L 242.287701 -74.661955 
L 242.287701 -78.424063 
L 236.319786 -78.424063 
L 236.319786 -82.157643 
L 230.351872 -82.157643 
L 230.351872 -85.518415 
L 224.383957 -85.518415 
L 224.383957 -89.140004 
L 218.416043 -89.140004 
L 218.416043 -92.89832 
L 212.448128 -92.89832 
L 212.448128 -97.453761 
L 206.480214 -97.453761 
L 206.480214 -101.581272 
L 200.512299 -101.581272 
L 200.512299 -104.786118 
L 194.544385 -104.786118 
L 194.544385 -107.453952 
L 188.576471 -107.453952 
L 188.576471 -110.492438 
L 182.608556 -110.492438 
L 182.608556 -113.104154 
L 176.640642 -113.104154 
L 176.640642 -116.127595 
L 170.672727 -116.127595 
L 170.672727 -119.425086 
L 164.704813 -119.425086 
L 164.704813 -122.158606 
L 158.736898 -122.158606 
L 158.736898 -124.8366 
L 152.768984 -124.8366 
L 152.768984 -127.157056 
L 146.80107 -127.157056 
L 146.80107 -130.506513 
L 140.833155 -130.506513 
L 140.833155 -133.539426 
L 134.865241 -133.539426 
L 134.865241 -136.914492 
L 128.897326 -136.914492 
L 128.897326 -140.165124 
L 122.929412 -140.165124 
L 122.929412 -144.113963 
L 116.961497 -144.113963 
L 116.961497 -148.623159 
L 110.993583 -148.623159 
L 110.993583 -153.239925 
L 105.025668 -153.239925 
L 105.025668 -158.333616 
L 99.057754 -158.333616 
L 99.057754 -164.026413 
L 93.08984 -164.026413 
L 93.08984 -170.685949 
L 87.121925 -170.685949 
L 87.121925 -181.148844 
L 81.154011 -181.148844 
L 81.154011 -196.184045 
L 75.186096 -196.184045 
z
" id="m0c30ccbb95" style="stroke:#2ca02c;stroke-opacity:0.25;"/>
    </defs>
    <g clip-path="url(#pde8c3ad790)">
     <use style="fill:#2ca02c;fill-opacity:0.25;stroke:#2ca02c;stroke-opacity:0.25;" x="0" xlink:href="#m0c30ccbb95" y="288"/>
    </g>
   </g>
   <g id="PolyCollection_4">
    <defs>
     <path d="M 75.186096 -138.015218 
L 75.186096 -135.275152 
L 81.154011 -135.275152 
L 81.154011 -126.199813 
L 87.121925 -126.199813 
L 87.121925 -120.770176 
L 93.08984 -120.770176 
L 93.08984 -116.194936 
L 99.057754 -116.194936 
L 99.057754 -112.443054 
L 105.025668 -112.443054 
L 105.025668 -108.958225 
L 110.993583 -108.958225 
L 110.993583 -105.3818 
L 116.961497 -105.3818 
L 116.961497 -101.992788 
L 122.929412 -101.992788 
L 122.929412 -98.736772 
L 128.897326 -98.736772 
L 128.897326 -95.508091 
L 134.865241 -95.508091 
L 134.865241 -92.341644 
L 140.833155 -92.341644 
L 140.833155 -89.42665 
L 146.80107 -89.42665 
L 146.80107 -86.724815 
L 152.768984 -86.724815 
L 152.768984 -83.198222 
L 158.736898 -83.198222 
L 158.736898 -80.357473 
L 164.704813 -80.357473 
L 164.704813 -77.107343 
L 170.672727 -77.107343 
L 170.672727 -74.586855 
L 176.640642 -74.586855 
L 176.640642 -72.336577 
L 182.608556 -72.336577 
L 182.608556 -69.503616 
L 188.576471 -69.503616 
L 188.576471 -67.04781 
L 194.544385 -67.04781 
L 194.544385 -64.605009 
L 200.512299 -64.605009 
L 200.512299 -59.663592 
L 206.480214 -59.663592 
L 206.480214 -56.543646 
L 212.448128 -56.543646 
L 212.448128 -55.110476 
L 218.416043 -55.110476 
L 218.416043 -53.324597 
L 224.383957 -53.324597 
L 224.383957 -51.560677 
L 230.351872 -51.560677 
L 230.351872 -49.852754 
L 236.319786 -49.852754 
L 236.319786 -48.206063 
L 242.287701 -48.206063 
L 242.287701 -46.989344 
L 248.255615 -46.989344 
L 248.255615 -45.883636 
L 254.223529 -45.883636 
L 254.223529 -45.883636 
L 260.191444 -45.883636 
L 260.191444 -45.883636 
L 266.159358 -45.883636 
L 266.159358 -45.883636 
L 272.127273 -45.883636 
L 272.127273 -45.883636 
L 278.095187 -45.883636 
L 278.095187 -45.883636 
L 284.063102 -45.883636 
L 284.063102 -45.883636 
L 290.031016 -45.883636 
L 290.031016 -45.883636 
L 295.99893 -45.883636 
L 295.99893 -45.883636 
L 301.966845 -45.883636 
L 301.966845 -45.883636 
L 307.934759 -45.883636 
L 307.934759 -45.883636 
L 313.902674 -45.883636 
L 313.902674 -45.883636 
L 319.870588 -45.883636 
L 319.870588 -45.883636 
L 325.838503 -45.883636 
L 325.838503 -45.883636 
L 331.806417 -45.883636 
L 331.806417 -45.883636 
L 337.774332 -45.883636 
L 337.774332 -45.883636 
L 343.742246 -45.883636 
L 343.742246 -45.883636 
L 349.71016 -45.883636 
L 349.71016 -45.883636 
L 355.678075 -45.883636 
L 355.678075 -45.883636 
L 361.645989 -45.883636 
L 361.645989 -45.883636 
L 367.613904 -45.883636 
L 367.613904 -45.883636 
L 373.581818 -45.883636 
L 373.581818 -49.087012 
L 373.581818 -49.087012 
L 367.613904 -49.087012 
L 367.613904 -49.087012 
L 361.645989 -49.087012 
L 361.645989 -49.087012 
L 355.678075 -49.087012 
L 355.678075 -49.087012 
L 349.71016 -49.087012 
L 349.71016 -49.087012 
L 343.742246 -49.087012 
L 343.742246 -49.087012 
L 337.774332 -49.087012 
L 337.774332 -49.087012 
L 331.806417 -49.087012 
L 331.806417 -49.087012 
L 325.838503 -49.087012 
L 325.838503 -49.087012 
L 319.870588 -49.087012 
L 319.870588 -49.087012 
L 313.902674 -49.087012 
L 313.902674 -49.087012 
L 307.934759 -49.087012 
L 307.934759 -49.087012 
L 301.966845 -49.087012 
L 301.966845 -49.087012 
L 295.99893 -49.087012 
L 295.99893 -49.087012 
L 290.031016 -49.087012 
L 290.031016 -49.087012 
L 284.063102 -49.087012 
L 284.063102 -49.087012 
L 278.095187 -49.087012 
L 278.095187 -49.087012 
L 272.127273 -49.087012 
L 272.127273 -49.087012 
L 266.159358 -49.087012 
L 266.159358 -49.087012 
L 260.191444 -49.087012 
L 260.191444 -49.087012 
L 254.223529 -49.087012 
L 254.223529 -49.087012 
L 248.255615 -49.087012 
L 248.255615 -50.18618 
L 242.287701 -50.18618 
L 242.287701 -51.396162 
L 236.319786 -51.396162 
L 236.319786 -53.034403 
L 230.351872 -53.034403 
L 230.351872 -54.734024 
L 224.383957 -54.734024 
L 224.383957 -56.489629 
L 218.416043 -56.489629 
L 218.416043 -58.26717 
L 212.448128 -58.26717 
L 212.448128 -59.693774 
L 206.480214 -59.693774 
L 206.480214 -62.798991 
L 200.512299 -62.798991 
L 200.512299 -67.715355 
L 194.544385 -67.715355 
L 194.544385 -70.145737 
L 188.576471 -70.145737 
L 188.576471 -72.589792 
L 182.608556 -72.589792 
L 182.608556 -75.409408 
L 176.640642 -75.409408 
L 176.640642 -77.649271 
L 170.672727 -77.649271 
L 170.672727 -80.158611 
L 164.704813 -80.158611 
L 164.704813 -83.394273 
L 158.736898 -83.394273 
L 158.736898 -86.222468 
L 152.768984 -86.222468 
L 152.768984 -89.733124 
L 146.80107 -89.733124 
L 146.80107 -92.422906 
L 140.833155 -92.422906 
L 140.833155 -95.324886 
L 134.865241 -95.324886 
L 134.865241 -98.47678 
L 128.897326 -98.47678 
L 128.897326 -101.690293 
L 122.929412 -101.690293 
L 122.929412 -104.930477 
L 116.961497 -104.930477 
L 116.961497 -108.302288 
L 110.993583 -108.302288 
L 110.993583 -111.859714 
L 105.025668 -111.859714 
L 105.025668 -115.325243 
L 99.057754 -115.325243 
L 99.057754 -119.056373 
L 93.08984 -119.056373 
L 93.08984 -123.605009 
L 87.121925 -123.605009 
L 87.121925 -129.00121 
L 81.154011 -129.00121 
L 81.154011 -138.015218 
L 75.186096 -138.015218 
z
" id="m258a1465c0" style="stroke:#d62728;stroke-opacity:0.25;"/>
    </defs>
    <g clip-path="url(#pde8c3ad790)">
     <use style="fill:#d62728;fill-opacity:0.25;stroke:#d62728;stroke-opacity:0.25;" x="0" xlink:href="#m258a1465c0" y="288"/>
    </g>
   </g>
   <g id="matplotlib.axis_1">
    <g id="xtick_1">
     <g id="line2d_1">
      <defs>
       <path d="M 0 0 
L 0 3.5 
" id="m4a49cae016" style="stroke:#000000;stroke-width:0.8;"/>
      </defs>
      <g>
       <use style="stroke:#000000;stroke-width:0.8;" x="69.218182" xlink:href="#m4a49cae016" y="252"/>
      </g>
     </g>
     <g id="text_1">
      <!-- 0 -->
      <defs>
       <path d="M 31.78125 66.40625 
Q 24.171875 66.40625 20.328125 58.90625 
Q 16.5 51.421875 16.5 36.375 
Q 16.5 21.390625 20.328125 13.890625 
Q 24.171875 6.390625 31.78125 6.390625 
Q 39.453125 6.390625 43.28125 13.890625 
Q 47.125 21.390625 47.125 36.375 
Q 47.125 51.421875 43.28125 58.90625 
Q 39.453125 66.40625 31.78125 66.40625 
z
M 31.78125 74.21875 
Q 44.046875 74.21875 50.515625 64.515625 
Q 56.984375 54.828125 56.984375 36.375 
Q 56.984375 17.96875 50.515625 8.265625 
Q 44.046875 -1.421875 31.78125 -1.421875 
Q 19.53125 -1.421875 13.0625 8.265625 
Q 6.59375 17.96875 6.59375 36.375 
Q 6.59375 54.828125 13.0625 64.515625 
Q 19.53125 74.21875 31.78125 74.21875 
z
" id="DejaVuSans-30"/>
      </defs>
      <g transform="translate(66.036932 266.598437)scale(0.1 -0.1)">
       <use xlink:href="#DejaVuSans-30"/>
      </g>
     </g>
    </g>
    <g id="xtick_2">
     <g id="line2d_2">
      <g>
       <use style="stroke:#000000;stroke-width:0.8;" x="128.897326" xlink:href="#m4a49cae016" y="252"/>
      </g>
     </g>
     <g id="text_2">
      <!-- 10 -->
      <defs>
       <path d="M 12.40625 8.296875 
L 28.515625 8.296875 
L 28.515625 63.921875 
L 10.984375 60.40625 
L 10.984375 69.390625 
L 28.421875 72.90625 
L 38.28125 72.90625 
L 38.28125 8.296875 
L 54.390625 8.296875 
L 54.390625 0 
L 12.40625 0 
z
" id="DejaVuSans-31"/>
      </defs>
      <g transform="translate(122.534826 266.598437)scale(0.1 -0.1)">
       <use xlink:href="#DejaVuSans-31"/>
       <use x="63.623047" xlink:href="#DejaVuSans-30"/>
      </g>
     </g>
    </g>
    <g id="xtick_3">
     <g id="line2d_3">
      <g>
       <use style="stroke:#000000;stroke-width:0.8;" x="188.576471" xlink:href="#m4a49cae016" y="252"/>
      </g>
     </g>
     <g id="text_3">
      <!-- 20 -->
      <defs>
       <path d="M 19.1875 8.296875 
L 53.609375 8.296875 
L 53.609375 0 
L 7.328125 0 
L 7.328125 8.296875 
Q 12.9375 14.109375 22.625 23.890625 
Q 32.328125 33.6875 34.8125 36.53125 
Q 39.546875 41.84375 41.421875 45.53125 
Q 43.3125 49.21875 43.3125 52.78125 
Q 43.3125 58.59375 39.234375 62.25 
Q 35.15625 65.921875 28.609375 65.921875 
Q 23.96875 65.921875 18.8125 64.3125 
Q 13.671875 62.703125 7.8125 59.421875 
L 7.8125 69.390625 
Q 13.765625 71.78125 18.9375 73 
Q 24.125 74.21875 28.421875 74.21875 
Q 39.75 74.21875 46.484375 68.546875 
Q 53.21875 62.890625 53.21875 53.421875 
Q 53.21875 48.921875 51.53125 44.890625 
Q 49.859375 40.875 45.40625 35.40625 
Q 44.1875 33.984375 37.640625 27.21875 
Q 31.109375 20.453125 19.1875 8.296875 
z
" id="DejaVuSans-32"/>
      </defs>
      <g transform="translate(182.213971 266.598437)scale(0.1 -0.1)">
       <use xlink:href="#DejaVuSans-32"/>
       <use x="63.623047" xlink:href="#DejaVuSans-30"/>
      </g>
     </g>
    </g>
    <g id="xtick_4">
     <g id="line2d_4">
      <g>
       <use style="stroke:#000000;stroke-width:0.8;" x="248.255615" xlink:href="#m4a49cae016" y="252"/>
      </g>
     </g>
     <g id="text_4">
      <!-- 30 -->
      <defs>
       <path d="M 40.578125 39.3125 
Q 47.65625 37.796875 51.625 33 
Q 55.609375 28.21875 55.609375 21.1875 
Q 55.609375 10.40625 48.1875 4.484375 
Q 40.765625 -1.421875 27.09375 -1.421875 
Q 22.515625 -1.421875 17.65625 -0.515625 
Q 12.796875 0.390625 7.625 2.203125 
L 7.625 11.71875 
Q 11.71875 9.328125 16.59375 8.109375 
Q 21.484375 6.890625 26.8125 6.890625 
Q 36.078125 6.890625 40.9375 10.546875 
Q 45.796875 14.203125 45.796875 21.1875 
Q 45.796875 27.640625 41.28125 31.265625 
Q 36.765625 34.90625 28.71875 34.90625 
L 20.21875 34.90625 
L 20.21875 43.015625 
L 29.109375 43.015625 
Q 36.375 43.015625 40.234375 45.921875 
Q 44.09375 48.828125 44.09375 54.296875 
Q 44.09375 59.90625 40.109375 62.90625 
Q 36.140625 65.921875 28.71875 65.921875 
Q 24.65625 65.921875 20.015625 65.03125 
Q 15.375 64.15625 9.8125 62.3125 
L 9.8125 71.09375 
Q 15.4375 72.65625 20.34375 73.4375 
Q 25.25 74.21875 29.59375 74.21875 
Q 40.828125 74.21875 47.359375 69.109375 
Q 53.90625 64.015625 53.90625 55.328125 
Q 53.90625 49.265625 50.4375 45.09375 
Q 46.96875 40.921875 40.578125 39.3125 
z
" id="DejaVuSans-33"/>
      </defs>
      <g transform="translate(241.893115 266.598437)scale(0.1 -0.1)">
       <use xlink:href="#DejaVuSans-33"/>
       <use x="63.623047" xlink:href="#DejaVuSans-30"/>
      </g>
     </g>
    </g>
    <g id="xtick_5">
     <g id="line2d_5">
      <g>
       <use style="stroke:#000000;stroke-width:0.8;" x="307.934759" xlink:href="#m4a49cae016" y="252"/>
      </g>
     </g>
     <g id="text_5">
      <!-- 40 -->
      <defs>
       <path d="M 37.796875 64.3125 
L 12.890625 25.390625 
L 37.796875 25.390625 
z
M 35.203125 72.90625 
L 47.609375 72.90625 
L 47.609375 25.390625 
L 58.015625 25.390625 
L 58.015625 17.1875 
L 47.609375 17.1875 
L 47.609375 0 
L 37.796875 0 
L 37.796875 17.1875 
L 4.890625 17.1875 
L 4.890625 26.703125 
z
" id="DejaVuSans-34"/>
      </defs>
      <g transform="translate(301.572259 266.598437)scale(0.1 -0.1)">
       <use xlink:href="#DejaVuSans-34"/>
       <use x="63.623047" xlink:href="#DejaVuSans-30"/>
      </g>
     </g>
    </g>
    <g id="xtick_6">
     <g id="line2d_6">
      <g>
       <use style="stroke:#000000;stroke-width:0.8;" x="367.613904" xlink:href="#m4a49cae016" y="252"/>
      </g>
     </g>
     <g id="text_6">
      <!-- 50 -->
      <defs>
       <path d="M 10.796875 72.90625 
L 49.515625 72.90625 
L 49.515625 64.59375 
L 19.828125 64.59375 
L 19.828125 46.734375 
Q 21.96875 47.46875 24.109375 47.828125 
Q 26.265625 48.1875 28.421875 48.1875 
Q 40.625 48.1875 47.75 41.5 
Q 54.890625 34.8125 54.890625 23.390625 
Q 54.890625 11.625 47.5625 5.09375 
Q 40.234375 -1.421875 26.90625 -1.421875 
Q 22.3125 -1.421875 17.546875 -0.640625 
Q 12.796875 0.140625 7.71875 1.703125 
L 7.71875 11.625 
Q 12.109375 9.234375 16.796875 8.0625 
Q 21.484375 6.890625 26.703125 6.890625 
Q 35.15625 6.890625 40.078125 11.328125 
Q 45.015625 15.765625 45.015625 23.390625 
Q 45.015625 31 40.078125 35.4375 
Q 35.15625 39.890625 26.703125 39.890625 
Q 22.75 39.890625 18.8125 39.015625 
Q 14.890625 38.140625 10.796875 36.28125 
z
" id="DejaVuSans-35"/>
      </defs>
      <g transform="translate(361.251404 266.598437)scale(0.1 -0.1)">
       <use xlink:href="#DejaVuSans-35"/>
       <use x="63.623047" xlink:href="#DejaVuSans-30"/>
      </g>
     </g>
    </g>
    <g id="text_7">
     <!-- timeline -->
     <defs>
      <path d="M 18.3125 70.21875 
L 18.3125 54.6875 
L 36.8125 54.6875 
L 36.8125 47.703125 
L 18.3125 47.703125 
L 18.3125 18.015625 
Q 18.3125 11.328125 20.140625 9.421875 
Q 21.96875 7.515625 27.59375 7.515625 
L 36.8125 7.515625 
L 36.8125 0 
L 27.59375 0 
Q 17.1875 0 13.234375 3.875 
Q 9.28125 7.765625 9.28125 18.015625 
L 9.28125 47.703125 
L 2.6875 47.703125 
L 2.6875 54.6875 
L 9.28125 54.6875 
L 9.28125 70.21875 
z
" id="DejaVuSans-74"/>
      <path d="M 9.421875 54.6875 
L 18.40625 54.6875 
L 18.40625 0 
L 9.421875 0 
z
M 9.421875 75.984375 
L 18.40625 75.984375 
L 18.40625 64.59375 
L 9.421875 64.59375 
z
" id="DejaVuSans-69"/>
      <path d="M 52 44.1875 
Q 55.375 50.25 60.0625 53.125 
Q 64.75 56 71.09375 56 
Q 79.640625 56 84.28125 50.015625 
Q 88.921875 44.046875 88.921875 33.015625 
L 88.921875 0 
L 79.890625 0 
L 79.890625 32.71875 
Q 79.890625 40.578125 77.09375 44.375 
Q 74.3125 48.1875 68.609375 48.1875 
Q 61.625 48.1875 57.5625 43.546875 
Q 53.515625 38.921875 53.515625 30.90625 
L 53.515625 0 
L 44.484375 0 
L 44.484375 32.71875 
Q 44.484375 40.625 41.703125 44.40625 
Q 38.921875 48.1875 33.109375 48.1875 
Q 26.21875 48.1875 22.15625 43.53125 
Q 18.109375 38.875 18.109375 30.90625 
L 18.109375 0 
L 9.078125 0 
L 9.078125 54.6875 
L 18.109375 54.6875 
L 18.109375 46.1875 
Q 21.1875 51.21875 25.484375 53.609375 
Q 29.78125 56 35.6875 56 
Q 41.65625 56 45.828125 52.96875 
Q 50 49.953125 52 44.1875 
z
" id="DejaVuSans-6d"/>
      <path d="M 56.203125 29.59375 
L 56.203125 25.203125 
L 14.890625 25.203125 
Q 15.484375 15.921875 20.484375 11.0625 
Q 25.484375 6.203125 34.421875 6.203125 
Q 39.59375 6.203125 44.453125 7.46875 
Q 49.3125 8.734375 54.109375 11.28125 
L 54.109375 2.78125 
Q 49.265625 0.734375 44.1875 -0.34375 
Q 39.109375 -1.421875 33.890625 -1.421875 
Q 20.796875 -1.421875 13.15625 6.1875 
Q 5.515625 13.8125 5.515625 26.8125 
Q 5.515625 40.234375 12.765625 48.109375 
Q 20.015625 56 32.328125 56 
Q 43.359375 56 49.78125 48.890625 
Q 56.203125 41.796875 56.203125 29.59375 
z
M 47.21875 32.234375 
Q 47.125 39.59375 43.09375 43.984375 
Q 39.0625 48.390625 32.421875 48.390625 
Q 24.90625 48.390625 20.390625 44.140625 
Q 15.875 39.890625 15.1875 32.171875 
z
" id="DejaVuSans-65"/>
      <path d="M 9.421875 75.984375 
L 18.40625 75.984375 
L 18.40625 0 
L 9.421875 0 
z
" id="DejaVuSans-6c"/>
      <path d="M 54.890625 33.015625 
L 54.890625 0 
L 45.90625 0 
L 45.90625 32.71875 
Q 45.90625 40.484375 42.875 44.328125 
Q 39.84375 48.1875 33.796875 48.1875 
Q 26.515625 48.1875 22.3125 43.546875 
Q 18.109375 38.921875 18.109375 30.90625 
L 18.109375 0 
L 9.078125 0 
L 9.078125 54.6875 
L 18.109375 54.6875 
L 18.109375 46.1875 
Q 21.34375 51.125 25.703125 53.5625 
Q 30.078125 56 35.796875 56 
Q 45.21875 56 50.046875 50.171875 
Q 54.890625 44.34375 54.890625 33.015625 
z
" id="DejaVuSans-6e"/>
     </defs>
     <g transform="translate(201.080469 280.276563)scale(0.1 -0.1)">
      <use xlink:href="#DejaVuSans-74"/>
      <use x="39.208984" xlink:href="#DejaVuSans-69"/>
      <use x="66.992188" xlink:href="#DejaVuSans-6d"/>
      <use x="164.404297" xlink:href="#DejaVuSans-65"/>
      <use x="225.927734" xlink:href="#DejaVuSans-6c"/>
      <use x="253.710938" xlink:href="#DejaVuSans-69"/>
      <use x="281.494141" xlink:href="#DejaVuSans-6e"/>
      <use x="344.873047" xlink:href="#DejaVuSans-65"/>
     </g>
    </g>
   </g>
   <g id="matplotlib.axis_2">
    <g id="ytick_1">
     <g id="line2d_7">
      <defs>
       <path d="M 0 0 
L -3.5 0 
" id="m753385c374" style="stroke:#000000;stroke-width:0.8;"/>
      </defs>
      <g>
       <use style="stroke:#000000;stroke-width:0.8;" x="54" xlink:href="#m753385c374" y="222.139355"/>
      </g>
     </g>
     <g id="text_8">
      <!-- 0.5 -->
      <defs>
       <path d="M 10.6875 12.40625 
L 21 12.40625 
L 21 0 
L 10.6875 0 
z
" id="DejaVuSans-2e"/>
      </defs>
      <g transform="translate(31.096875 225.938573)scale(0.1 -0.1)">
       <use xlink:href="#DejaVuSans-30"/>
       <use x="63.623047" xlink:href="#DejaVuSans-2e"/>
       <use x="95.410156" xlink:href="#DejaVuSans-35"/>
      </g>
     </g>
    </g>
    <g id="ytick_2">
     <g id="line2d_8">
      <g>
       <use style="stroke:#000000;stroke-width:0.8;" x="54" xlink:href="#m753385c374" y="186.600211"/>
      </g>
     </g>
     <g id="text_9">
      <!-- 0.6 -->
      <defs>
       <path d="M 33.015625 40.375 
Q 26.375 40.375 22.484375 35.828125 
Q 18.609375 31.296875 18.609375 23.390625 
Q 18.609375 15.53125 22.484375 10.953125 
Q 26.375 6.390625 33.015625 6.390625 
Q 39.65625 6.390625 43.53125 10.953125 
Q 47.40625 15.53125 47.40625 23.390625 
Q 47.40625 31.296875 43.53125 35.828125 
Q 39.65625 40.375 33.015625 40.375 
z
M 52.59375 71.296875 
L 52.59375 62.3125 
Q 48.875 64.0625 45.09375 64.984375 
Q 41.3125 65.921875 37.59375 65.921875 
Q 27.828125 65.921875 22.671875 59.328125 
Q 17.53125 52.734375 16.796875 39.40625 
Q 19.671875 43.65625 24.015625 45.921875 
Q 28.375 48.1875 33.59375 48.1875 
Q 44.578125 48.1875 50.953125 41.515625 
Q 57.328125 34.859375 57.328125 23.390625 
Q 57.328125 12.15625 50.6875 5.359375 
Q 44.046875 -1.421875 33.015625 -1.421875 
Q 20.359375 -1.421875 13.671875 8.265625 
Q 6.984375 17.96875 6.984375 36.375 
Q 6.984375 53.65625 15.1875 63.9375 
Q 23.390625 74.21875 37.203125 74.21875 
Q 40.921875 74.21875 44.703125 73.484375 
Q 48.484375 72.75 52.59375 71.296875 
z
" id="DejaVuSans-36"/>
      </defs>
      <g transform="translate(31.096875 190.39943)scale(0.1 -0.1)">
       <use xlink:href="#DejaVuSans-30"/>
       <use x="63.623047" xlink:href="#DejaVuSans-2e"/>
       <use x="95.410156" xlink:href="#DejaVuSans-36"/>
      </g>
     </g>
    </g>
    <g id="ytick_3">
     <g id="line2d_9">
      <g>
       <use style="stroke:#000000;stroke-width:0.8;" x="54" xlink:href="#m753385c374" y="151.061067"/>
      </g>
     </g>
     <g id="text_10">
      <!-- 0.7 -->
      <defs>
       <path d="M 8.203125 72.90625 
L 55.078125 72.90625 
L 55.078125 68.703125 
L 28.609375 0 
L 18.3125 0 
L 43.21875 64.59375 
L 8.203125 64.59375 
z
" id="DejaVuSans-37"/>
      </defs>
      <g transform="translate(31.096875 154.860286)scale(0.1 -0.1)">
       <use xlink:href="#DejaVuSans-30"/>
       <use x="63.623047" xlink:href="#DejaVuSans-2e"/>
       <use x="95.410156" xlink:href="#DejaVuSans-37"/>
      </g>
     </g>
    </g>
    <g id="ytick_4">
     <g id="line2d_10">
      <g>
       <use style="stroke:#000000;stroke-width:0.8;" x="54" xlink:href="#m753385c374" y="115.521924"/>
      </g>
     </g>
     <g id="text_11">
      <!-- 0.8 -->
      <defs>
       <path d="M 31.78125 34.625 
Q 24.75 34.625 20.71875 30.859375 
Q 16.703125 27.09375 16.703125 20.515625 
Q 16.703125 13.921875 20.71875 10.15625 
Q 24.75 6.390625 31.78125 6.390625 
Q 38.8125 6.390625 42.859375 10.171875 
Q 46.921875 13.96875 46.921875 20.515625 
Q 46.921875 27.09375 42.890625 30.859375 
Q 38.875 34.625 31.78125 34.625 
z
M 21.921875 38.8125 
Q 15.578125 40.375 12.03125 44.71875 
Q 8.5 49.078125 8.5 55.328125 
Q 8.5 64.0625 14.71875 69.140625 
Q 20.953125 74.21875 31.78125 74.21875 
Q 42.671875 74.21875 48.875 69.140625 
Q 55.078125 64.0625 55.078125 55.328125 
Q 55.078125 49.078125 51.53125 44.71875 
Q 48 40.375 41.703125 38.8125 
Q 48.828125 37.15625 52.796875 32.3125 
Q 56.78125 27.484375 56.78125 20.515625 
Q 56.78125 9.90625 50.3125 4.234375 
Q 43.84375 -1.421875 31.78125 -1.421875 
Q 19.734375 -1.421875 13.25 4.234375 
Q 6.78125 9.90625 6.78125 20.515625 
Q 6.78125 27.484375 10.78125 32.3125 
Q 14.796875 37.15625 21.921875 38.8125 
z
M 18.3125 54.390625 
Q 18.3125 48.734375 21.84375 45.5625 
Q 25.390625 42.390625 31.78125 42.390625 
Q 38.140625 42.390625 41.71875 45.5625 
Q 45.3125 48.734375 45.3125 54.390625 
Q 45.3125 60.0625 41.71875 63.234375 
Q 38.140625 66.40625 31.78125 66.40625 
Q 25.390625 66.40625 21.84375 63.234375 
Q 18.3125 60.0625 18.3125 54.390625 
z
" id="DejaVuSans-38"/>
      </defs>
      <g transform="translate(31.096875 119.321142)scale(0.1 -0.1)">
       <use xlink:href="#DejaVuSans-30"/>
       <use x="63.623047" xlink:href="#DejaVuSans-2e"/>
       <use x="95.410156" xlink:href="#DejaVuSans-38"/>
      </g>
     </g>
    </g>
    <g id="ytick_5">
     <g id="line2d_11">
      <g>
       <use style="stroke:#000000;stroke-width:0.8;" x="54" xlink:href="#m753385c374" y="79.98278"/>
      </g>
     </g>
     <g id="text_12">
      <!-- 0.9 -->
      <defs>
       <path d="M 10.984375 1.515625 
L 10.984375 10.5 
Q 14.703125 8.734375 18.5 7.8125 
Q 22.3125 6.890625 25.984375 6.890625 
Q 35.75 6.890625 40.890625 13.453125 
Q 46.046875 20.015625 46.78125 33.40625 
Q 43.953125 29.203125 39.59375 26.953125 
Q 35.25 24.703125 29.984375 24.703125 
Q 19.046875 24.703125 12.671875 31.3125 
Q 6.296875 37.9375 6.296875 49.421875 
Q 6.296875 60.640625 12.9375 67.421875 
Q 19.578125 74.21875 30.609375 74.21875 
Q 43.265625 74.21875 49.921875 64.515625 
Q 56.59375 54.828125 56.59375 36.375 
Q 56.59375 19.140625 48.40625 8.859375 
Q 40.234375 -1.421875 26.421875 -1.421875 
Q 22.703125 -1.421875 18.890625 -0.6875 
Q 15.09375 0.046875 10.984375 1.515625 
z
M 30.609375 32.421875 
Q 37.25 32.421875 41.125 36.953125 
Q 45.015625 41.5 45.015625 49.421875 
Q 45.015625 57.28125 41.125 61.84375 
Q 37.25 66.40625 30.609375 66.40625 
Q 23.96875 66.40625 20.09375 61.84375 
Q 16.21875 57.28125 16.21875 49.421875 
Q 16.21875 41.5 20.09375 36.953125 
Q 23.96875 32.421875 30.609375 32.421875 
z
" id="DejaVuSans-39"/>
      </defs>
      <g transform="translate(31.096875 83.781999)scale(0.1 -0.1)">
       <use xlink:href="#DejaVuSans-30"/>
       <use x="63.623047" xlink:href="#DejaVuSans-2e"/>
       <use x="95.410156" xlink:href="#DejaVuSans-39"/>
      </g>
     </g>
    </g>
    <g id="ytick_6">
     <g id="line2d_12">
      <g>
       <use style="stroke:#000000;stroke-width:0.8;" x="54" xlink:href="#m753385c374" y="44.443636"/>
      </g>
     </g>
     <g id="text_13">
      <!-- 1.0 -->
      <g transform="translate(31.096875 48.242855)scale(0.1 -0.1)">
       <use xlink:href="#DejaVuSans-31"/>
       <use x="63.623047" xlink:href="#DejaVuSans-2e"/>
       <use x="95.410156" xlink:href="#DejaVuSans-30"/>
      </g>
     </g>
    </g>
   </g>
   <g id="line2d_13">
    <path clip-path="url(#pde8c3ad790)" d="M 69.218182 44.443636 
L 75.186096 44.443636 
L 75.186096 150.272799 
L 81.154011 150.272799 
L 81.154011 156.14288 
L 87.121925 156.14288 
L 87.121925 158.658628 
L 93.08984 158.658628 
L 93.08984 161.174377 
L 99.057754 161.174377 
L 99.057754 162.348393 
L 105.025668 162.348393 
L 105.025668 163.186976 
L 110.993583 163.186976 
L 110.993583 164.360992 
L 116.961497 164.360992 
L 116.961497 165.199575 
L 122.929412 165.199575 
L 122.929412 166.205875 
L 128.897326 166.205875 
L 128.897326 166.876741 
L 134.865241 166.876741 
L 134.865241 168.050757 
L 140.833155 168.050757 
L 140.833155 169.224773 
L 146.80107 169.224773 
L 146.80107 170.063356 
L 152.768984 170.063356 
L 152.768984 171.740522 
L 158.736898 171.740522 
L 158.736898 172.579105 
L 164.704813 172.579105 
L 164.704813 173.920837 
L 170.672727 173.920837 
L 170.672727 174.591704 
L 176.640642 174.591704 
L 176.640642 174.75942 
L 182.608556 174.75942 
L 182.608556 175.094853 
L 188.576471 175.094853 
L 188.576471 175.933436 
L 194.544385 175.933436 
L 194.544385 176.436586 
L 200.512299 176.436586 
L 200.512299 177.442886 
L 206.480214 177.442886 
L 206.480214 178.616902 
L 212.448128 178.616902 
L 212.448128 179.958634 
L 218.416043 179.958634 
L 218.416043 180.797217 
L 224.383957 180.797217 
L 224.383957 181.6358 
L 230.351872 181.6358 
L 230.351872 182.306666 
L 236.319786 182.306666 
L 236.319786 183.648399 
L 242.287701 183.648399 
L 242.287701 184.990132 
L 248.255615 184.990132 
L 248.255615 186.499581 
L 254.223529 186.499581 
L 254.223529 187.170447 
L 260.191444 187.170447 
L 260.191444 188.51218 
L 266.159358 188.51218 
L 266.159358 189.183046 
L 272.127273 189.183046 
L 272.127273 189.853913 
L 278.095187 189.853913 
L 278.095187 190.860212 
L 284.063102 190.860212 
L 284.063102 191.027929 
L 290.031016 191.027929 
L 290.031016 191.531078 
L 295.99893 191.531078 
L 295.99893 191.866512 
L 301.966845 191.866512 
L 301.966845 192.537378 
L 307.934759 192.537378 
L 307.934759 192.537378 
L 313.902674 192.537378 
L 313.902674 193.040528 
L 319.870588 193.040528 
L 319.870588 193.375961 
L 325.838503 193.375961 
L 325.838503 194.38226 
L 331.806417 194.38226 
L 331.806417 195.053127 
L 337.774332 195.053127 
L 337.774332 195.723993 
L 343.742246 195.723993 
L 343.742246 196.394859 
L 349.71016 196.394859 
L 349.71016 197.568875 
L 355.678075 197.568875 
L 355.678075 199.078325 
L 361.645989 199.078325 
L 361.645989 200.252341 
L 367.613904 200.252341 
L 367.613904 201.090924 
" style="fill:none;stroke:#1f77b4;stroke-linecap:square;stroke-width:1.5;"/>
   </g>
   <g id="line2d_14">
    <path clip-path="url(#pde8c3ad790)" d="M 69.218182 44.443636 
L 75.186096 44.443636 
L 75.186096 90.593929 
L 81.154011 90.593929 
L 81.154011 95.038031 
L 87.121925 95.038031 
L 87.121925 99.140279 
L 93.08984 99.140279 
L 93.08984 102.763932 
L 99.057754 102.763932 
L 99.057754 104.33646 
L 105.025668 104.33646 
L 105.025668 105.840618 
L 110.993583 105.840618 
L 110.993583 108.165225 
L 116.961497 108.165225 
L 116.961497 110.558203 
L 122.929412 110.558203 
L 122.929412 112.130732 
L 128.897326 112.130732 
L 128.897326 113.498148 
L 134.865241 113.498148 
L 134.865241 114.592081 
L 140.833155 114.592081 
L 140.833155 115.754384 
L 146.80107 115.754384 
L 146.80107 117.94225 
L 152.768984 117.94225 
L 152.768984 119.309666 
L 158.736898 119.309666 
L 158.736898 121.155678 
L 164.704813 121.155678 
L 164.704813 123.00169 
L 170.672727 123.00169 
L 170.672727 124.984443 
L 176.640642 124.984443 
L 176.640642 127.582533 
L 182.608556 127.582533 
L 182.608556 129.907141 
L 188.576471 129.907141 
L 188.576471 132.778714 
L 194.544385 132.778714 
L 194.544385 135.513547 
L 200.512299 135.513547 
L 200.512299 137.906525 
L 206.480214 137.906525 
L 206.480214 140.778098 
L 212.448128 140.778098 
L 212.448128 142.555739 
L 218.416043 142.555739 
L 218.416043 144.743605 
L 224.383957 144.743605 
L 224.383957 147.341696 
L 230.351872 147.341696 
L 230.351872 149.529561 
L 236.319786 149.529561 
L 236.319786 152.127652 
L 242.287701 152.127652 
L 242.287701 154.589001 
L 248.255615 154.589001 
L 248.255615 156.571754 
L 254.223529 156.571754 
L 254.223529 159.169845 
L 260.191444 159.169845 
L 260.191444 161.562823 
L 266.159358 161.562823 
L 266.159358 163.477205 
L 272.127273 163.477205 
L 272.127273 166.075296 
L 278.095187 166.075296 
L 278.095187 167.921307 
L 284.063102 167.921307 
L 284.063102 169.972432 
L 290.031016 169.972432 
L 290.031016 172.43378 
L 295.99893 172.43378 
L 295.99893 175.100242 
L 301.966845 175.100242 
L 301.966845 177.49322 
L 307.934759 177.49322 
L 307.934759 179.954569 
L 313.902674 179.954569 
L 313.902674 182.689401 
L 319.870588 182.689401 
L 319.870588 184.740525 
L 325.838503 184.740525 
L 325.838503 188.022324 
L 331.806417 188.022324 
L 331.806417 190.415302 
L 337.774332 190.415302 
L 337.774332 192.876651 
L 343.742246 192.876651 
L 343.742246 194.722662 
L 349.71016 194.722662 
L 349.71016 197.457495 
L 355.678075 197.457495 
L 355.678075 200.329068 
L 361.645989 200.329068 
L 361.645989 203.0639 
L 367.613904 203.0639 
L 367.613904 205.388508 
" style="fill:none;stroke:#ff7f0e;stroke-linecap:square;stroke-width:1.5;"/>
   </g>
   <g id="line2d_15">
    <path clip-path="url(#pde8c3ad790)" d="M 69.218182 44.443636 
L 75.186096 44.443636 
L 75.186096 93.289101 
L 81.154011 93.289101 
L 81.154011 108.499871 
L 87.121925 108.499871 
L 87.121925 119.063289 
L 93.08984 119.063289 
L 93.08984 125.779195 
L 99.057754 125.779195 
L 99.057754 131.515986 
L 105.025668 131.515986 
L 105.025668 136.646001 
L 110.993583 136.646001 
L 110.993583 141.293353 
L 116.961497 141.293353 
L 116.961497 145.830383 
L 122.929412 145.830383 
L 122.929412 149.802007 
L 128.897326 149.802007 
L 128.897326 153.070323 
L 134.865241 153.070323 
L 134.865241 156.462752 
L 140.833155 156.462752 
L 140.833155 159.510422 
L 146.80107 159.510422 
L 146.80107 162.875271 
L 152.768984 162.875271 
L 152.768984 165.205842 
L 158.736898 165.205842 
L 158.736898 167.894963 
L 164.704813 167.894963 
L 164.704813 170.639245 
L 170.672727 170.639245 
L 170.672727 173.948932 
L 176.640642 173.948932 
L 176.640642 176.982812 
L 182.608556 176.982812 
L 182.608556 179.602981 
L 188.576471 179.602981 
L 188.576471 182.650651 
L 194.544385 182.650651 
L 194.544385 185.325981 
L 200.512299 185.325981 
L 200.512299 188.539136 
L 206.480214 188.539136 
L 206.480214 192.676245 
L 212.448128 192.676245 
L 212.448128 197.240855 
L 218.416043 197.240855 
L 218.416043 201.005624 
L 224.383957 201.005624 
L 224.383957 204.632489 
L 230.351872 204.632489 
L 230.351872 207.997338 
L 236.319786 207.997338 
L 236.319786 211.734526 
L 242.287701 211.734526 
L 242.287701 215.499295 
L 248.255615 215.499295 
L 248.255615 219.264064 
L 254.223529 219.264064 
L 254.223529 222.353105 
L 260.191444 222.353105 
L 260.191444 224.766419 
L 266.159358 224.766419 
L 266.159358 226.683279 
L 272.127273 226.683279 
L 272.127273 228.61393 
L 278.095187 228.61393 
L 278.095187 230.172241 
L 284.063102 230.172241 
L 284.063102 231.413373 
L 290.031016 231.413373 
L 290.031016 232.461441 
L 295.99893 232.461441 
L 295.99893 233.17854 
L 301.966845 233.17854 
L 301.966845 233.606041 
L 307.934759 233.606041 
L 307.934759 233.923219 
L 313.902674 233.923219 
L 313.902674 234.212817 
L 319.870588 234.212817 
L 319.870588 234.364511 
L 325.838503 234.364511 
L 325.838503 234.461044 
L 331.806417 234.461044 
L 331.806417 234.516205 
L 337.774332 234.516205 
L 337.774332 234.557576 
L 343.742246 234.557576 
L 343.742246 234.557576 
L 349.71016 234.557576 
L 349.71016 234.557576 
L 355.678075 234.557576 
L 355.678075 234.557576 
L 361.645989 234.557576 
L 361.645989 234.557576 
L 367.613904 234.557576 
L 367.613904 234.557576 
" style="fill:none;stroke:#2ca02c;stroke-linecap:square;stroke-width:1.5;"/>
   </g>
   <g id="line2d_16">
    <path clip-path="url(#pde8c3ad790)" d="M 69.218182 44.443636 
L 75.186096 44.443636 
L 75.186096 151.348037 
L 81.154011 151.348037 
L 81.154011 160.393211 
L 87.121925 160.393211 
L 87.121925 165.806426 
L 93.08984 165.806426 
L 93.08984 170.36861 
L 99.057754 170.36861 
L 99.057754 174.110317 
L 105.025668 174.110317 
L 105.025668 177.585679 
L 110.993583 177.585679 
L 110.993583 181.152792 
L 116.961497 181.152792 
L 116.961497 184.533381 
L 122.929412 184.533381 
L 122.929412 187.781652 
L 128.897326 187.781652 
L 128.897326 191.002918 
L 134.865241 191.002918 
L 134.865241 194.162255 
L 140.833155 194.162255 
L 140.833155 197.070894 
L 146.80107 197.070894 
L 146.80107 199.766844 
L 152.768984 199.766844 
L 152.768984 203.285651 
L 158.736898 203.285651 
L 158.736898 206.120272 
L 164.704813 206.120272 
L 164.704813 209.363337 
L 170.672727 209.363337 
L 170.672727 211.878383 
L 176.640642 211.878383 
L 176.640642 214.123571 
L 182.608556 214.123571 
L 182.608556 216.950007 
L 188.576471 216.950007 
L 188.576471 219.400067 
L 194.544385 219.400067 
L 194.544385 221.836786 
L 200.512299 221.836786 
L 200.512299 226.765941 
L 206.480214 226.765941 
L 206.480214 229.878695 
L 212.448128 229.878695 
L 212.448128 231.308662 
L 218.416043 231.308662 
L 218.416043 233.090473 
L 224.383957 233.090473 
L 224.383957 234.850337 
L 230.351872 234.850337 
L 230.351872 236.554207 
L 236.319786 236.554207 
L 236.319786 238.196768 
L 242.287701 238.196768 
L 242.287701 239.41019 
L 248.255615 239.41019 
L 248.255615 240.512692 
L 254.223529 240.512692 
L 254.223529 240.512692 
L 260.191444 240.512692 
L 260.191444 240.512692 
L 266.159358 240.512692 
L 266.159358 240.512692 
L 272.127273 240.512692 
L 272.127273 240.512692 
L 278.095187 240.512692 
L 278.095187 240.512692 
L 284.063102 240.512692 
L 284.063102 240.512692 
L 290.031016 240.512692 
L 290.031016 240.512692 
L 295.99893 240.512692 
L 295.99893 240.512692 
L 301.966845 240.512692 
L 301.966845 240.512692 
L 307.934759 240.512692 
L 307.934759 240.512692 
L 313.902674 240.512692 
L 313.902674 240.512692 
L 319.870588 240.512692 
L 319.870588 240.512692 
L 325.838503 240.512692 
L 325.838503 240.512692 
L 331.806417 240.512692 
L 331.806417 240.512692 
L 337.774332 240.512692 
L 337.774332 240.512692 
L 343.742246 240.512692 
L 343.742246 240.512692 
L 349.71016 240.512692 
L 349.71016 240.512692 
L 355.678075 240.512692 
L 355.678075 240.512692 
L 361.645989 240.512692 
L 361.645989 240.512692 
L 367.613904 240.512692 
L 367.613904 240.512692 
" style="fill:none;stroke:#d62728;stroke-linecap:square;stroke-width:1.5;"/>
   </g>
   <g id="patch_3">
    <path d="M 54 252 
L 54 34.56 
" style="fill:none;stroke:#000000;stroke-linecap:square;stroke-linejoin:miter;stroke-width:0.8;"/>
   </g>
   <g id="patch_4">
    <path d="M 388.8 252 
L 388.8 34.56 
" style="fill:none;stroke:#000000;stroke-linecap:square;stroke-linejoin:miter;stroke-width:0.8;"/>
   </g>
   <g id="patch_5">
    <path d="M 54 252 
L 388.8 252 
" style="fill:none;stroke:#000000;stroke-linecap:square;stroke-linejoin:miter;stroke-width:0.8;"/>
   </g>
   <g id="patch_6">
    <path d="M 54 34.56 
L 388.8 34.56 
" style="fill:none;stroke:#000000;stroke-linecap:square;stroke-linejoin:miter;stroke-width:0.8;"/>
   </g>
   <g id="text_14">
    <!-- Survival function of Activist cohorts -->
    <defs>
     <path d="M 53.515625 70.515625 
L 53.515625 60.890625 
Q 47.90625 63.578125 42.921875 64.890625 
Q 37.9375 66.21875 33.296875 66.21875 
Q 25.25 66.21875 20.875 63.09375 
Q 16.5 59.96875 16.5 54.203125 
Q 16.5 49.359375 19.40625 46.890625 
Q 22.3125 44.4375 30.421875 42.921875 
L 36.375 41.703125 
Q 47.40625 39.59375 52.65625 34.296875 
Q 57.90625 29 57.90625 20.125 
Q 57.90625 9.515625 50.796875 4.046875 
Q 43.703125 -1.421875 29.984375 -1.421875 
Q 24.8125 -1.421875 18.96875 -0.25 
Q 13.140625 0.921875 6.890625 3.21875 
L 6.890625 13.375 
Q 12.890625 10.015625 18.65625 8.296875 
Q 24.421875 6.59375 29.984375 6.59375 
Q 38.421875 6.59375 43.015625 9.90625 
Q 47.609375 13.234375 47.609375 19.390625 
Q 47.609375 24.75 44.3125 27.78125 
Q 41.015625 30.8125 33.5 32.328125 
L 27.484375 33.5 
Q 16.453125 35.6875 11.515625 40.375 
Q 6.59375 45.0625 6.59375 53.421875 
Q 6.59375 63.09375 13.40625 68.65625 
Q 20.21875 74.21875 32.171875 74.21875 
Q 37.3125 74.21875 42.625 73.28125 
Q 47.953125 72.359375 53.515625 70.515625 
z
" id="DejaVuSans-53"/>
     <path d="M 8.5 21.578125 
L 8.5 54.6875 
L 17.484375 54.6875 
L 17.484375 21.921875 
Q 17.484375 14.15625 20.5 10.265625 
Q 23.53125 6.390625 29.59375 6.390625 
Q 36.859375 6.390625 41.078125 11.03125 
Q 45.3125 15.671875 45.3125 23.6875 
L 45.3125 54.6875 
L 54.296875 54.6875 
L 54.296875 0 
L 45.3125 0 
L 45.3125 8.40625 
Q 42.046875 3.421875 37.71875 1 
Q 33.40625 -1.421875 27.6875 -1.421875 
Q 18.265625 -1.421875 13.375 4.4375 
Q 8.5 10.296875 8.5 21.578125 
z
M 31.109375 56 
z
" id="DejaVuSans-75"/>
     <path d="M 41.109375 46.296875 
Q 39.59375 47.171875 37.8125 47.578125 
Q 36.03125 48 33.890625 48 
Q 26.265625 48 22.1875 43.046875 
Q 18.109375 38.09375 18.109375 28.8125 
L 18.109375 0 
L 9.078125 0 
L 9.078125 54.6875 
L 18.109375 54.6875 
L 18.109375 46.1875 
Q 20.953125 51.171875 25.484375 53.578125 
Q 30.03125 56 36.53125 56 
Q 37.453125 56 38.578125 55.875 
Q 39.703125 55.765625 41.0625 55.515625 
z
" id="DejaVuSans-72"/>
     <path d="M 2.984375 54.6875 
L 12.5 54.6875 
L 29.59375 8.796875 
L 46.6875 54.6875 
L 56.203125 54.6875 
L 35.6875 0 
L 23.484375 0 
z
" id="DejaVuSans-76"/>
     <path d="M 34.28125 27.484375 
Q 23.390625 27.484375 19.1875 25 
Q 14.984375 22.515625 14.984375 16.5 
Q 14.984375 11.71875 18.140625 8.90625 
Q 21.296875 6.109375 26.703125 6.109375 
Q 34.1875 6.109375 38.703125 11.40625 
Q 43.21875 16.703125 43.21875 25.484375 
L 43.21875 27.484375 
z
M 52.203125 31.203125 
L 52.203125 0 
L 43.21875 0 
L 43.21875 8.296875 
Q 40.140625 3.328125 35.546875 0.953125 
Q 30.953125 -1.421875 24.3125 -1.421875 
Q 15.921875 -1.421875 10.953125 3.296875 
Q 6 8.015625 6 15.921875 
Q 6 25.140625 12.171875 29.828125 
Q 18.359375 34.515625 30.609375 34.515625 
L 43.21875 34.515625 
L 43.21875 35.40625 
Q 43.21875 41.609375 39.140625 45 
Q 35.0625 48.390625 27.6875 48.390625 
Q 23 48.390625 18.546875 47.265625 
Q 14.109375 46.140625 10.015625 43.890625 
L 10.015625 52.203125 
Q 14.9375 54.109375 19.578125 55.046875 
Q 24.21875 56 28.609375 56 
Q 40.484375 56 46.34375 49.84375 
Q 52.203125 43.703125 52.203125 31.203125 
z
" id="DejaVuSans-61"/>
     <path id="DejaVuSans-20"/>
     <path d="M 37.109375 75.984375 
L 37.109375 68.5 
L 28.515625 68.5 
Q 23.6875 68.5 21.796875 66.546875 
Q 19.921875 64.59375 19.921875 59.515625 
L 19.921875 54.6875 
L 34.71875 54.6875 
L 34.71875 47.703125 
L 19.921875 47.703125 
L 19.921875 0 
L 10.890625 0 
L 10.890625 47.703125 
L 2.296875 47.703125 
L 2.296875 54.6875 
L 10.890625 54.6875 
L 10.890625 58.5 
Q 10.890625 67.625 15.140625 71.796875 
Q 19.390625 75.984375 28.609375 75.984375 
z
" id="DejaVuSans-66"/>
     <path d="M 48.78125 52.59375 
L 48.78125 44.1875 
Q 44.96875 46.296875 41.140625 47.34375 
Q 37.3125 48.390625 33.40625 48.390625 
Q 24.65625 48.390625 19.8125 42.84375 
Q 14.984375 37.3125 14.984375 27.296875 
Q 14.984375 17.28125 19.8125 11.734375 
Q 24.65625 6.203125 33.40625 6.203125 
Q 37.3125 6.203125 41.140625 7.25 
Q 44.96875 8.296875 48.78125 10.40625 
L 48.78125 2.09375 
Q 45.015625 0.34375 40.984375 -0.53125 
Q 36.96875 -1.421875 32.421875 -1.421875 
Q 20.0625 -1.421875 12.78125 6.34375 
Q 5.515625 14.109375 5.515625 27.296875 
Q 5.515625 40.671875 12.859375 48.328125 
Q 20.21875 56 33.015625 56 
Q 37.15625 56 41.109375 55.140625 
Q 45.0625 54.296875 48.78125 52.59375 
z
" id="DejaVuSans-63"/>
     <path d="M 30.609375 48.390625 
Q 23.390625 48.390625 19.1875 42.75 
Q 14.984375 37.109375 14.984375 27.296875 
Q 14.984375 17.484375 19.15625 11.84375 
Q 23.34375 6.203125 30.609375 6.203125 
Q 37.796875 6.203125 41.984375 11.859375 
Q 46.1875 17.53125 46.1875 27.296875 
Q 46.1875 37.015625 41.984375 42.703125 
Q 37.796875 48.390625 30.609375 48.390625 
z
M 30.609375 56 
Q 42.328125 56 49.015625 48.375 
Q 55.71875 40.765625 55.71875 27.296875 
Q 55.71875 13.875 49.015625 6.21875 
Q 42.328125 -1.421875 30.609375 -1.421875 
Q 18.84375 -1.421875 12.171875 6.21875 
Q 5.515625 13.875 5.515625 27.296875 
Q 5.515625 40.765625 12.171875 48.375 
Q 18.84375 56 30.609375 56 
z
" id="DejaVuSans-6f"/>
     <path d="M 34.1875 63.1875 
L 20.796875 26.90625 
L 47.609375 26.90625 
z
M 28.609375 72.90625 
L 39.796875 72.90625 
L 67.578125 0 
L 57.328125 0 
L 50.6875 18.703125 
L 17.828125 18.703125 
L 11.1875 0 
L 0.78125 0 
z
" id="DejaVuSans-41"/>
     <path d="M 44.28125 53.078125 
L 44.28125 44.578125 
Q 40.484375 46.53125 36.375 47.5 
Q 32.28125 48.484375 27.875 48.484375 
Q 21.1875 48.484375 17.84375 46.4375 
Q 14.5 44.390625 14.5 40.28125 
Q 14.5 37.15625 16.890625 35.375 
Q 19.28125 33.59375 26.515625 31.984375 
L 29.59375 31.296875 
Q 39.15625 29.25 43.1875 25.515625 
Q 47.21875 21.78125 47.21875 15.09375 
Q 47.21875 7.46875 41.1875 3.015625 
Q 35.15625 -1.421875 24.609375 -1.421875 
Q 20.21875 -1.421875 15.453125 -0.5625 
Q 10.6875 0.296875 5.421875 2 
L 5.421875 11.28125 
Q 10.40625 8.6875 15.234375 7.390625 
Q 20.0625 6.109375 24.8125 6.109375 
Q 31.15625 6.109375 34.5625 8.28125 
Q 37.984375 10.453125 37.984375 14.40625 
Q 37.984375 18.0625 35.515625 20.015625 
Q 33.0625 21.96875 24.703125 23.78125 
L 21.578125 24.515625 
Q 13.234375 26.265625 9.515625 29.90625 
Q 5.8125 33.546875 5.8125 39.890625 
Q 5.8125 47.609375 11.28125 51.796875 
Q 16.75 56 26.8125 56 
Q 31.78125 56 36.171875 55.265625 
Q 40.578125 54.546875 44.28125 53.078125 
z
" id="DejaVuSans-73"/>
     <path d="M 54.890625 33.015625 
L 54.890625 0 
L 45.90625 0 
L 45.90625 32.71875 
Q 45.90625 40.484375 42.875 44.328125 
Q 39.84375 48.1875 33.796875 48.1875 
Q 26.515625 48.1875 22.3125 43.546875 
Q 18.109375 38.921875 18.109375 30.90625 
L 18.109375 0 
L 9.078125 0 
L 9.078125 75.984375 
L 18.109375 75.984375 
L 18.109375 46.1875 
Q 21.34375 51.125 25.703125 53.5625 
Q 30.078125 56 35.796875 56 
Q 45.21875 56 50.046875 50.171875 
Q 54.890625 44.34375 54.890625 33.015625 
z
" id="DejaVuSans-68"/>
    </defs>
    <g transform="translate(114.782813 28.56)scale(0.12 -0.12)">
     <use xlink:href="#DejaVuSans-53"/>
     <use x="63.476562" xlink:href="#DejaVuSans-75"/>
     <use x="126.855469" xlink:href="#DejaVuSans-72"/>
     <use x="167.96875" xlink:href="#DejaVuSans-76"/>
     <use x="227.148438" xlink:href="#DejaVuSans-69"/>
     <use x="254.931641" xlink:href="#DejaVuSans-76"/>
     <use x="314.111328" xlink:href="#DejaVuSans-61"/>
     <use x="375.390625" xlink:href="#DejaVuSans-6c"/>
     <use x="403.173828" xlink:href="#DejaVuSans-20"/>
     <use x="434.960938" xlink:href="#DejaVuSans-66"/>
     <use x="470.166016" xlink:href="#DejaVuSans-75"/>
     <use x="533.544922" xlink:href="#DejaVuSans-6e"/>
     <use x="596.923828" xlink:href="#DejaVuSans-63"/>
     <use x="651.904297" xlink:href="#DejaVuSans-74"/>
     <use x="691.113281" xlink:href="#DejaVuSans-69"/>
     <use x="718.896484" xlink:href="#DejaVuSans-6f"/>
     <use x="780.078125" xlink:href="#DejaVuSans-6e"/>
     <use x="843.457031" xlink:href="#DejaVuSans-20"/>
     <use x="875.244141" xlink:href="#DejaVuSans-6f"/>
     <use x="936.425781" xlink:href="#DejaVuSans-66"/>
     <use x="971.630859" xlink:href="#DejaVuSans-20"/>
     <use x="1003.417969" xlink:href="#DejaVuSans-41"/>
     <use x="1071.810547" xlink:href="#DejaVuSans-63"/>
     <use x="1126.791016" xlink:href="#DejaVuSans-74"/>
     <use x="1166" xlink:href="#DejaVuSans-69"/>
     <use x="1193.783203" xlink:href="#DejaVuSans-76"/>
     <use x="1252.962891" xlink:href="#DejaVuSans-69"/>
     <use x="1280.746094" xlink:href="#DejaVuSans-73"/>
     <use x="1332.845703" xlink:href="#DejaVuSans-74"/>
     <use x="1372.054688" xlink:href="#DejaVuSans-20"/>
     <use x="1403.841797" xlink:href="#DejaVuSans-63"/>
     <use x="1458.822266" xlink:href="#DejaVuSans-6f"/>
     <use x="1520.003906" xlink:href="#DejaVuSans-68"/>
     <use x="1583.382812" xlink:href="#DejaVuSans-6f"/>
     <use x="1644.564453" xlink:href="#DejaVuSans-72"/>
     <use x="1685.677734" xlink:href="#DejaVuSans-74"/>
     <use x="1724.886719" xlink:href="#DejaVuSans-73"/>
    </g>
   </g>
   <g id="legend_1">
    <g id="patch_7">
     <path d="M 306.670313 101.2725 
L 381.8 101.2725 
Q 383.8 101.2725 383.8 99.2725 
L 383.8 41.56 
Q 383.8 39.56 381.8 39.56 
L 306.670313 39.56 
Q 304.670313 39.56 304.670313 41.56 
L 304.670313 99.2725 
Q 304.670313 101.2725 306.670313 101.2725 
z
" style="fill:#ffffff;opacity:0.8;stroke:#cccccc;stroke-linejoin:miter;"/>
    </g>
    <g id="line2d_17">
     <path d="M 308.670313 47.658437 
L 328.670313 47.658437 
" style="fill:none;stroke:#1f77b4;stroke-linecap:square;stroke-width:1.5;"/>
    </g>
    <g id="line2d_18"/>
    <g id="text_15">
     <!-- Cohort 1 -->
     <defs>
      <path d="M 64.40625 67.28125 
L 64.40625 56.890625 
Q 59.421875 61.53125 53.78125 63.8125 
Q 48.140625 66.109375 41.796875 66.109375 
Q 29.296875 66.109375 22.65625 58.46875 
Q 16.015625 50.828125 16.015625 36.375 
Q 16.015625 21.96875 22.65625 14.328125 
Q 29.296875 6.6875 41.796875 6.6875 
Q 48.140625 6.6875 53.78125 8.984375 
Q 59.421875 11.28125 64.40625 15.921875 
L 64.40625 5.609375 
Q 59.234375 2.09375 53.4375 0.328125 
Q 47.65625 -1.421875 41.21875 -1.421875 
Q 24.65625 -1.421875 15.125 8.703125 
Q 5.609375 18.84375 5.609375 36.375 
Q 5.609375 53.953125 15.125 64.078125 
Q 24.65625 74.21875 41.21875 74.21875 
Q 47.75 74.21875 53.53125 72.484375 
Q 59.328125 70.75 64.40625 67.28125 
z
" id="DejaVuSans-43"/>
     </defs>
     <g transform="translate(336.670313 51.158437)scale(0.1 -0.1)">
      <use xlink:href="#DejaVuSans-43"/>
      <use x="69.824219" xlink:href="#DejaVuSans-6f"/>
      <use x="131.005859" xlink:href="#DejaVuSans-68"/>
      <use x="194.384766" xlink:href="#DejaVuSans-6f"/>
      <use x="255.566406" xlink:href="#DejaVuSans-72"/>
      <use x="296.679688" xlink:href="#DejaVuSans-74"/>
      <use x="335.888672" xlink:href="#DejaVuSans-20"/>
      <use x="367.675781" xlink:href="#DejaVuSans-31"/>
     </g>
    </g>
    <g id="line2d_19">
     <path d="M 308.670313 62.336562 
L 328.670313 62.336562 
" style="fill:none;stroke:#ff7f0e;stroke-linecap:square;stroke-width:1.5;"/>
    </g>
    <g id="line2d_20"/>
    <g id="text_16">
     <!-- Cohort 2 -->
     <g transform="translate(336.670313 65.836562)scale(0.1 -0.1)">
      <use xlink:href="#DejaVuSans-43"/>
      <use x="69.824219" xlink:href="#DejaVuSans-6f"/>
      <use x="131.005859" xlink:href="#DejaVuSans-68"/>
      <use x="194.384766" xlink:href="#DejaVuSans-6f"/>
      <use x="255.566406" xlink:href="#DejaVuSans-72"/>
      <use x="296.679688" xlink:href="#DejaVuSans-74"/>
      <use x="335.888672" xlink:href="#DejaVuSans-20"/>
      <use x="367.675781" xlink:href="#DejaVuSans-32"/>
     </g>
    </g>
    <g id="line2d_21">
     <path d="M 308.670313 77.014687 
L 328.670313 77.014687 
" style="fill:none;stroke:#2ca02c;stroke-linecap:square;stroke-width:1.5;"/>
    </g>
    <g id="line2d_22"/>
    <g id="text_17">
     <!-- Cohort 3 -->
     <g transform="translate(336.670313 80.514687)scale(0.1 -0.1)">
      <use xlink:href="#DejaVuSans-43"/>
      <use x="69.824219" xlink:href="#DejaVuSans-6f"/>
      <use x="131.005859" xlink:href="#DejaVuSans-68"/>
      <use x="194.384766" xlink:href="#DejaVuSans-6f"/>
      <use x="255.566406" xlink:href="#DejaVuSans-72"/>
      <use x="296.679688" xlink:href="#DejaVuSans-74"/>
      <use x="335.888672" xlink:href="#DejaVuSans-20"/>
      <use x="367.675781" xlink:href="#DejaVuSans-33"/>
     </g>
    </g>
    <g id="line2d_23">
     <path d="M 308.670313 91.692813 
L 328.670313 91.692813 
" style="fill:none;stroke:#d62728;stroke-linecap:square;stroke-width:1.5;"/>
    </g>
    <g id="line2d_24"/>
    <g id="text_18">
     <!-- Cohort 4 -->
     <g transform="translate(336.670313 95.192813)scale(0.1 -0.1)">
      <use xlink:href="#DejaVuSans-43"/>
      <use x="69.824219" xlink:href="#DejaVuSans-6f"/>
      <use x="131.005859" xlink:href="#DejaVuSans-68"/>
      <use x="194.384766" xlink:href="#DejaVuSans-6f"/>
      <use x="255.566406" xlink:href="#DejaVuSans-72"/>
      <use x="296.679688" xlink:href="#DejaVuSans-74"/>
      <use x="335.888672" xlink:href="#DejaVuSans-20"/>
      <use x="367.675781" xlink:href="#DejaVuSans-34"/>
     </g>
    </g>
   </g>
  </g>
 </g>
 <defs>
  <clipPath id="pde8c3ad790">
   <rect height="217.44" width="334.8" x="54" y="34.56"/>
  </clipPath>
 </defs>
</svg>
